<svg width="341" height="204" viewBox="0 0 341 204" fill="none" xmlns="http://www.w3.org/2000/svg">
<g clip-path="url(#clip0_106_37)">
<path d="M261.247 201.139C256.89 197.458 254.244 191.642 254.938 185.981C255.632 180.32 259.93 175.116 265.505 173.914C271.081 172.711 277.436 176.039 279.13 181.486C280.062 170.985 281.136 160.045 286.718 151.103C291.773 143.006 300.529 137.213 310.017 136.176C319.506 135.14 329.496 139.054 335.414 146.544C341.332 154.033 342.781 164.921 338.636 173.519C335.583 179.853 329.958 184.567 324.064 188.402C305.019 200.69 282.178 205.687 259.742 202.474L261.247 201.139Z" fill="#F2F2F2"/>
<path d="M326.031 139.271C318.201 145.649 311.019 152.781 304.587 160.565C294.521 172.706 286.375 186.318 280.434 200.927C279.999 201.993 281.73 202.457 282.16 201.403C291.881 177.66 307.399 156.733 327.296 140.537C328.19 139.809 326.917 138.55 326.031 139.271Z" fill="white"/>
<path d="M110.262 200.138C116.246 195.082 119.881 187.095 118.927 179.32C117.974 171.544 112.071 164.396 104.413 162.745C96.7551 161.094 88.0257 165.664 85.6998 173.145C84.4197 158.723 82.9447 143.696 75.2769 131.414C68.334 120.294 56.3087 112.336 43.276 110.912C30.2432 109.489 16.5214 114.866 8.39341 125.152C0.265371 135.439 -1.72474 150.393 3.96792 162.203C8.16151 170.903 15.8876 177.378 23.9826 182.645C49.8084 199.45 81.8453 206.458 112.329 201.972" fill="#F2F2F2"/>
<path d="M21.2813 115.164C32.0349 123.923 41.9002 133.719 50.7345 144.411C59.5702 155.092 67.3491 166.604 73.9619 178.787C77.6582 185.621 80.9786 192.652 83.9084 199.848C84.5057 201.311 82.1288 201.949 81.538 200.501C76.3487 187.815 69.9284 175.667 62.3694 164.233C54.8471 152.841 46.2374 142.205 36.6612 132.475C31.2449 126.974 25.5303 121.775 19.5431 116.902C18.3159 115.903 20.0642 114.173 21.2813 115.164L21.2813 115.164Z" fill="white"/>
<path d="M244.979 202.994H102.218V56.5176C102.218 25.3536 127.572 0 158.736 0H188.461C219.625 0 244.979 25.3536 244.979 56.5176V202.994Z" fill="#F2F2F2"/>
<path d="M215.253 202.994H102.218V56.5175C102.187 44.5762 105.968 32.9367 113.011 23.2937C113.271 22.9398 113.53 22.5905 113.797 22.245C117.204 17.7768 121.258 13.8417 125.826 10.5697C126.084 10.3819 126.343 10.1975 126.606 10.013C130.428 7.36796 134.563 5.20571 138.915 3.57545C139.174 3.47748 139.437 3.37931 139.7 3.28515C143.637 1.88026 147.718 0.917918 151.867 0.41589C152.125 0.380747 152.389 0.353248 152.653 0.325748C156.697 -0.106629 160.775 -0.106629 164.819 0.325748C165.082 0.353248 165.347 0.380744 165.607 0.416266C169.756 0.918327 173.835 1.88055 177.771 3.28517C178.034 3.37933 178.298 3.47749 178.557 3.57565C182.856 5.18535 186.942 7.31533 190.723 9.91807C190.986 10.0985 191.249 10.283 191.508 10.4675C194.068 12.2951 196.473 14.3312 198.698 16.555C200.483 18.3387 202.145 20.24 203.675 22.2462C203.941 22.5905 204.2 22.9398 204.459 23.2931C211.503 32.9363 215.284 44.576 215.253 56.5175V202.994Z" fill="#CCCCCC"/>
<path d="M206.062 137.481C209.518 137.481 212.32 134.679 212.32 131.223C212.32 127.766 209.518 124.965 206.062 124.965C202.606 124.965 199.804 127.766 199.804 131.223C199.804 134.679 202.606 137.481 206.062 137.481Z" fill="#4397D2"/>
<path d="M233.284 198.607H228.488L226.207 180.111L233.284 180.112L233.284 198.607Z" fill="#FFB8B8"/>
<path d="M225.063 197.237H234.311V203.059H219.241C219.241 202.295 219.391 201.537 219.684 200.831C219.977 200.125 220.405 199.483 220.946 198.942C221.487 198.401 222.129 197.972 222.835 197.68C223.542 197.387 224.299 197.237 225.063 197.237Z" fill="#2F2E41"/>
<path d="M257.142 198.607H252.347L250.066 180.111L257.143 180.112L257.142 198.607Z" fill="#FFB8B8"/>
<path d="M248.922 197.237H258.17V203.059H243.099C243.099 202.295 243.25 201.537 243.543 200.831C243.835 200.125 244.264 199.483 244.805 198.942C245.345 198.401 245.987 197.972 246.694 197.68C247.4 197.387 248.157 197.237 248.922 197.237Z" fill="#2F2E41"/>
<path d="M209.229 132.462C208.884 131.954 208.655 131.376 208.557 130.77C208.46 130.163 208.496 129.543 208.664 128.952C208.833 128.361 209.128 127.815 209.531 127.35C209.933 126.886 210.432 126.516 210.993 126.266L227.294 81.3384L235.315 85.7156L216.703 128.65C217.061 129.62 217.051 130.688 216.674 131.651C216.298 132.614 215.581 133.406 214.659 133.876C213.738 134.346 212.677 134.461 211.676 134.201C210.675 133.94 209.804 133.322 209.229 132.462Z" fill="#FFB8B8"/>
<path d="M254.693 140.904C254.16 140.599 253.701 140.18 253.347 139.678C252.993 139.175 252.754 138.602 252.646 137.997C252.539 137.392 252.565 136.771 252.723 136.178C252.881 135.584 253.167 135.032 253.561 134.562L248.512 87.0361L257.64 87.4531L259.738 134.201C260.486 134.916 260.945 135.88 261.028 136.911C261.112 137.941 260.815 138.967 260.193 139.793C259.571 140.62 258.668 141.189 257.654 141.394C256.64 141.599 255.587 141.424 254.693 140.904Z" fill="#FFB8B8"/>
<path d="M240.131 73.0166C245.437 73.0166 249.738 68.7156 249.738 63.4102C249.738 58.1047 245.437 53.8037 240.131 53.8037C234.826 53.8037 230.525 58.1047 230.525 63.4102C230.525 68.7156 234.826 73.0166 240.131 73.0166Z" fill="#FFB8B8"/>
<path d="M254.632 130.096H225.67L225.705 129.87C225.757 129.533 230.866 96.0617 227.098 85.1114C226.72 84.0353 226.753 82.8573 227.191 81.8043C227.629 80.7512 228.442 79.8975 229.472 79.4074H229.472C234.858 76.8708 245.198 73.7474 253.925 81.3275C255.209 82.4613 256.212 83.8783 256.854 85.4665C257.496 87.0547 257.76 88.7705 257.625 90.4783L254.632 130.096Z" fill="#4397D2"/>
<path d="M231.232 101.008L218.194 98.3631L224.305 83.8798C224.671 82.477 225.578 81.2766 226.828 80.5418C228.078 79.807 229.568 79.5978 230.971 79.9602C232.375 80.3225 233.578 81.2269 234.316 82.4747C235.053 83.7226 235.266 85.2122 234.907 86.6167L231.232 101.008Z" fill="#4397D2"/>
<path d="M247.932 105.92L247.148 87.9511C246.554 84.5733 248.487 81.3801 251.461 80.8582C254.436 80.3381 257.341 82.6809 257.938 86.0835L260.884 102.874L247.932 105.92Z" fill="#4397D2"/>
<path d="M253.668 127.944C258.328 145.692 258.837 168.257 257.579 192.871L251.321 192.089L239.979 145.154L233.721 192.871L226.68 192.48C224.577 166.654 222.529 144.483 225.898 129.9L253.668 127.944Z" fill="#2F2E41"/>
<path d="M246.461 70.8343C244.669 72.7433 241.341 71.7185 241.107 69.1105C241.089 68.9081 241.09 68.7043 241.111 68.5021C241.232 67.3469 241.899 66.2981 241.739 65.0783C241.703 64.7747 241.59 64.4855 241.41 64.2378C239.982 62.3255 236.63 65.0932 235.282 63.362C234.456 62.3005 235.427 60.6291 234.793 59.4427C233.956 57.8768 231.477 58.6493 229.922 57.7917C228.192 56.8376 228.296 54.1835 229.434 52.5691C230.823 50.6004 233.258 49.5498 235.662 49.3984C238.067 49.247 240.455 49.897 242.7 50.7718C245.25 51.7658 247.779 53.1395 249.349 55.3822C251.258 58.1096 251.441 61.7763 250.487 64.9655C249.906 66.9055 247.924 69.2754 246.461 70.8343Z" fill="#2F2E41"/>
<path d="M329.259 203.246H40.4937C40.3704 203.245 40.2523 203.196 40.1652 203.109C40.0782 203.021 40.0293 202.903 40.0293 202.78C40.0293 202.657 40.0782 202.538 40.1652 202.451C40.2523 202.364 40.3704 202.315 40.4937 202.314H329.259C329.382 202.315 329.5 202.364 329.587 202.451C329.675 202.538 329.723 202.657 329.723 202.78C329.723 202.903 329.675 203.021 329.587 203.109C329.5 203.196 329.382 203.245 329.259 203.246Z" fill="#3F3D56"/>
<path d="M184.159 160.557H133.312C132.643 160.561 131.999 160.298 131.522 159.828C131.046 159.358 130.775 158.717 130.77 158.048V44.5551C130.775 43.8855 131.046 43.2453 131.522 42.7749C131.999 42.3045 132.643 42.0423 133.312 42.0459H184.159C184.828 42.0423 185.472 42.3045 185.949 42.7749C186.425 43.2453 186.696 43.8855 186.701 44.5551V158.048C186.696 158.717 186.425 159.358 185.949 159.828C185.472 160.298 184.828 160.561 184.159 160.557Z" fill="white"/>
<path d="M186.701 78.7686H130.77V79.5508H186.701V78.7686Z" fill="#CCCCCC"/>
<path d="M186.897 123.4H130.966V124.182H186.897V123.4Z" fill="#CCCCCC"/>
<path d="M149.153 42.0459H148.371V160.948H149.153V42.0459Z" fill="#CCCCCC"/>
<path d="M168.709 42.0459H167.927V160.948H168.709V42.0459Z" fill="#CCCCCC"/>
</g>
<defs>
<clipPath id="clip0_106_37">
<rect width="340.279" height="203.439" fill="white" transform="translate(0.721069)"/>
</clipPath>
</defs>
</svg>
