<svg width="561" height="397" viewBox="0 0 561 397" fill="none" xmlns="http://www.w3.org/2000/svg">
<g clip-path="url(#clip0_8_24)">
<path opacity="0.1" d="M186.509 396.777C213.83 396.777 235.977 393.223 235.977 388.839C235.977 384.456 213.83 380.902 186.509 380.902C159.189 380.902 137.042 384.456 137.042 388.839C137.042 393.223 159.189 396.777 186.509 396.777Z" fill="#4397D2"/>
<path opacity="0.1" d="M455.409 397C489.5 397 517.137 393.446 517.137 389.062C517.137 384.679 489.5 381.125 455.409 381.125C421.317 381.125 393.681 384.679 393.681 389.062C393.681 393.446 421.317 397 455.409 397Z" fill="#4397D2"/>
<path opacity="0.1" d="M7.02621 171.533H58.55V241.693H10.7982C10.6713 242.413 10.5495 243.138 10.4175 243.863H58.55V300.446C58.4637 300.42 58.3876 300.39 58.3063 300.36C56.9458 299.822 55.5954 299.254 54.2449 298.645L53.3819 298.255C52.0281 297.616 50.6743 296.939 49.3205 296.226C48.8484 295.977 48.3762 295.719 47.9092 295.455C40.3935 291.249 33.5659 285.919 27.6632 279.651C27.4905 279.483 27.3281 279.306 27.1555 279.144C26.333 278.251 25.5258 277.348 24.744 276.425L23.881 275.411C22.957 274.28 22.0635 273.118 21.1954 271.942C21.0685 271.769 20.9466 271.597 20.8146 271.434C17.284 266.544 14.3525 261.248 12.0826 255.661C12.0116 255.493 11.9506 255.311 11.8846 255.153C11.1874 253.361 10.5698 251.552 10.0316 249.726C9.79811 248.961 9.57473 248.205 9.38181 247.409C9.31074 247.175 9.24982 246.947 9.19397 246.719C6.31039 235.474 5.97025 223.794 5.97025 212.194C5.97025 210.84 5.97025 209.481 5.97025 208.137C5.97025 203.445 6.02609 198.723 6.10732 194.006C6.10732 192.784 6.15808 191.567 6.18347 190.339C6.25454 187.225 6.35608 184.111 6.48807 180.997C6.51853 180.129 6.55915 179.267 6.60484 178.405C6.60484 177.908 6.63022 177.411 6.68099 176.914C6.80283 175.108 6.90437 173.318 7.02621 171.533Z" fill="#4397D2"/>
<path opacity="0.1" d="M58.55 93.4147H30.2878C34.882 86.2308 39.9017 79.3274 45.32 72.7416C49.5185 67.5885 53.9505 62.5673 58.55 57.7287V93.4147Z" fill="#4397D2"/>
<path opacity="0.1" d="M58.55 95.5855V169.362H7.18866C7.18866 169.149 7.2242 168.931 7.23943 168.718C7.28512 168.134 7.33081 167.551 7.38157 166.973C7.43742 166.293 7.49834 165.609 7.56434 164.944C7.63033 164.28 7.70141 163.468 7.77756 162.733C7.85371 161.997 7.92479 161.252 8.01109 160.516C8.0974 159.781 8.17355 159.045 8.26493 158.315C8.35631 157.585 8.43754 156.844 8.534 156.114C8.61015 155.505 8.69137 154.902 8.7726 154.293C8.88936 153.436 9.01121 152.574 9.1432 151.722C9.1432 151.595 9.17874 151.463 9.19905 151.341C10.1256 145.104 11.3882 138.92 12.9812 132.819C14.6487 126.418 16.7781 120.146 19.3525 114.052C22.0887 107.678 25.2924 101.514 28.9374 95.6109L58.55 95.5855Z" fill="#4397D2"/>
<path opacity="0.1" d="M70.851 171.527V241.692H180.899V171.527H70.851ZM70.851 243.858V304.113C71.4805 304.245 72.1049 304.371 72.7243 304.478C73.567 304.64 74.4047 304.787 75.2627 304.914C75.4251 304.939 75.5926 304.965 75.7703 304.98C76.1054 305.036 76.4506 305.081 76.7857 305.127C77.6335 305.244 78.4762 305.34 79.324 305.416C79.7251 305.457 80.1312 305.492 80.5374 305.523L81.5172 305.599C82.0503 305.639 82.5782 305.67 83.1011 305.685C83.426 305.685 83.751 305.715 84.086 305.726C84.3399 305.726 84.5937 305.726 84.8577 305.726C85.1217 305.726 85.4974 305.726 85.8172 305.726C86.2538 305.726 86.6904 305.726 87.1219 305.726H87.7057C88.1423 305.726 88.5789 305.726 89.0105 305.685H89.0409C89.3405 305.685 89.6451 305.685 89.9497 305.644C90.0342 305.649 90.119 305.649 90.2035 305.644C90.4573 305.644 90.7112 305.644 90.9548 305.609H91.1325L92.8333 305.477C93.3917 305.426 93.9552 305.36 94.5238 305.3L95.6813 305.163C100.39 304.503 105.047 303.514 109.617 302.201C119.882 299.34 129.924 295.338 140.184 292.407C153.45 288.628 168.106 286.772 180.925 291.392V243.858H70.851ZM180.899 93.4147V0.00505968C168.851 -0.125352 156.835 1.28252 145.144 4.19447C117.278 11.1887 92.2748 26.3588 70.851 45.7336V93.4097H76.3745V95.5754H70.851V169.362H180.899V95.5805H99.0523V93.4147H180.899ZM322.251 61.8623C315.357 61.6188 308.503 59.4379 302.305 56.0701C290.45 49.6288 280.982 39.6827 270.402 31.2887C248.42 13.8058 221.158 3.25616 193.19 0.639051V93.4147H350.29L350.681 93.0039L322.251 61.8623ZM336.562 59.3263L351.737 75.9622V54.9645C346.655 55.5934 342.203 57.0896 336.583 59.306L336.562 59.3263ZM351.737 319.075V243.858H319.403C319.317 243.539 319.23 243.214 319.129 242.889C319.225 243.214 319.307 243.539 319.398 243.858H193.211V298.255C194.409 299.142 195.592 300.075 196.764 301.024C198.028 302.038 199.277 303.108 200.531 304.158L201.795 305.203C202.399 305.71 203.009 306.218 203.623 306.694C204.841 307.682 206.072 308.655 207.314 309.616C207.928 310.123 208.558 310.579 209.182 311.056C219.095 318.628 229.553 325.462 240.47 331.501C242.917 332.854 245.386 334.174 247.877 335.462C249.537 336.309 251.207 337.151 252.883 337.968C255.401 339.195 257.939 340.379 260.498 341.518C284.087 352.097 309.032 359.357 334.618 363.089C340.301 363.928 346.005 364.587 351.732 365.067V319.07H352.239L351.737 319.075ZM193.211 95.5805V169.362H351.757V95.5805H193.211ZM193.211 171.527V241.692H351.757V171.527H193.211ZM364.063 54.8732V78.2953L383.431 57.0642C377.014 56.0296 370.558 55.2908 364.063 54.8478V54.8732ZM364.063 171.553V241.692H518.269V171.527L364.063 171.553ZM517.706 324.644L518.249 243.858H364.063V365.874C373.996 366.29 383.944 366.172 393.864 365.519H394.036C398.774 365.221 403.491 364.788 408.185 364.22H408.292C433.336 361.308 457.824 354.78 480.991 344.84L517.706 324.644ZM548.004 183.081C547.425 181.717 546.821 180.363 546.206 179.024C545.059 176.488 543.846 174.023 542.597 171.558H530.565V241.692H560.985C560.97 221.831 555.938 201.543 548.019 183.056L548.004 183.081ZM530.565 243.884V313.369C539.134 305.163 546.374 295.774 551.588 285.042C557.857 272.119 560.726 258.126 560.959 243.873L530.565 243.884ZM530.565 151.108V169.367H541.47C538.171 163.081 534.536 156.978 530.58 151.083L530.565 151.108ZM425.984 68.6384C425.182 68.3341 424.38 68.0247 423.573 67.7254C415.059 64.5845 406.36 61.9726 397.524 59.9045L367.886 92.4004L367.317 93.0039L367.698 93.4198H473.183C458.492 83.3168 442.653 74.9897 425.999 68.613L425.984 68.6384ZM476.274 95.6058H366.226L364.063 97.5839V169.362H383.02H383.05H518.289V134.594C506.056 119.812 491.935 106.696 476.29 95.5805L476.274 95.6058Z" fill="#4397D2"/>
<path opacity="0.1" d="M58.55 132.798V169.362H7.18866C7.18866 169.149 7.2242 168.931 7.23943 168.718C7.28512 168.134 7.33081 167.551 7.38157 166.973C7.43742 166.293 7.49834 165.609 7.56434 164.944C7.63033 164.28 7.70141 163.468 7.77756 162.733C7.85371 161.997 7.92479 161.252 8.01109 160.516C8.0974 159.781 8.17355 159.045 8.26493 158.315C8.35631 157.585 8.43754 156.844 8.534 156.114C8.61015 155.505 8.69137 154.902 8.7726 154.293C8.88936 153.436 9.01121 152.574 9.1432 151.722C9.1432 151.595 9.17874 151.463 9.19905 151.341C10.1256 145.104 11.3882 138.92 12.9812 132.819L58.55 132.798Z" fill="#4397D2"/>
<path opacity="0.1" d="M7.02621 171.533H58.55V241.693H10.7982C10.6713 242.413 10.5495 243.138 10.4175 243.863H58.55V300.446C58.4637 300.42 58.3876 300.39 58.3063 300.36C56.9458 299.822 55.5954 299.254 54.2449 298.645L53.3819 298.255C52.0281 297.616 50.6743 296.939 49.3205 296.226C48.8484 295.977 48.3762 295.719 47.9092 295.455C40.3935 291.249 33.5659 285.919 27.6632 279.651C27.4905 279.483 27.3281 279.306 27.1555 279.144C26.333 278.251 25.5258 277.348 24.744 276.425L23.881 275.411C22.957 274.28 22.0635 273.118 21.1954 271.942C21.0685 271.769 20.9466 271.597 20.8146 271.434C17.284 266.544 14.3525 261.248 12.0826 255.661C12.0116 255.493 11.9506 255.311 11.8846 255.153C11.1874 253.361 10.5698 251.552 10.0316 249.726C9.79811 248.961 9.57473 248.205 9.38181 247.409C9.31074 247.175 9.24982 246.947 9.19397 246.719C6.31039 235.474 5.97025 223.794 5.97025 212.194C5.97025 210.84 5.97025 209.481 5.97025 208.137C5.97025 203.445 6.02609 198.723 6.10732 194.006C6.10732 192.784 6.15808 191.567 6.18347 190.339C6.25454 187.225 6.35608 184.111 6.48807 180.997C6.51853 180.129 6.55915 179.267 6.60484 178.405C6.60484 177.908 6.63022 177.411 6.68099 176.914C6.80283 175.108 6.90437 173.318 7.02621 171.533Z" fill="#4397D2"/>
<path opacity="0.1" d="M109.592 106.145V169.362H70.851V106.145H76.3745V84.7418H99.0472V106.145H109.592Z" fill="#4397D2"/>
<path opacity="0.1" d="M109.592 171.527H70.856V241.687H109.592V171.527Z" fill="#4397D2"/>
<path opacity="0.1" d="M70.851 243.863H109.592V302.19C105.022 303.502 100.365 304.49 95.6559 305.147L94.4984 305.289C93.9298 305.355 93.3663 305.411 92.8079 305.467C92.2494 305.523 91.6707 305.563 91.1072 305.599H90.9295C90.6858 305.599 90.4218 305.629 90.1832 305.634H89.9243C89.6197 305.634 89.3151 305.665 89.0105 305.675C88.5789 305.7 88.1474 305.705 87.7057 305.71C87.5179 305.71 87.3402 305.71 87.1524 305.71C86.7158 305.71 86.2843 305.71 85.8477 305.71H84.8881C84.6292 305.71 84.3805 305.71 84.1114 305.71L83.1316 305.675C82.6239 305.675 82.0756 305.619 81.5477 305.584L80.5729 305.513L79.3596 305.401C78.5067 305.325 77.6589 305.229 76.8212 305.112L75.8059 304.97L75.2982 304.899C74.4504 304.767 73.6127 304.625 72.7598 304.463C72.1354 304.356 71.516 304.224 70.8865 304.098L70.851 243.863Z" fill="#4397D2"/>
<path opacity="0.1" d="M351.757 98.6794H319.814V169.357H351.757V98.6794Z" fill="#4397D2"/>
<path opacity="0.1" d="M351.762 171.527V241.693H193.211V211.428H277.662V229.282H319.814V171.527H351.762Z" fill="#4397D2"/>
<path opacity="0.1" d="M352.265 319.09H351.757V365.118C346.037 364.634 340.334 363.977 334.648 363.145C309.05 359.401 284.095 352.126 260.498 341.528C253.685 338.465 247.01 335.121 240.475 331.496C229.558 325.454 219.099 318.621 209.182 311.051C206.691 309.144 204.232 307.193 201.805 305.198C200.125 303.813 198.455 302.393 196.764 301.014C195.592 300.065 194.409 299.132 193.211 298.239V243.863H319.393C319.307 243.539 319.22 243.214 319.129 242.895C319.225 243.214 319.317 243.539 319.403 243.863H351.757V319.06C351.93 319.065 352.097 319.08 352.265 319.09Z" fill="#4397D2"/>
<path opacity="0.1" d="M435.066 93.4147H414.252V86.9531H423.583V67.7051C424.392 67.9993 425.197 68.3019 425.999 68.613V86.9531H435.066V93.4147Z" fill="#4397D2"/>
<path opacity="0.1" d="M485.214 169.362H383.03C383.03 169.362 383.03 169.362 383.065 169.387L383.02 169.362H364.063V98.6845H369.434V150.925H393.98V119.987H414.257V95.5855H435.071V120.007H455.348V150.946H485.214V169.362Z" fill="#4397D2"/>
<path opacity="0.1" d="M364.063 171.527V241.693H485.214V171.527H364.063ZM518.102 324.284L518.269 268.746H485.214V243.894H364.063V365.874C373.996 366.29 383.944 366.172 393.864 365.519H394.036C398.774 365.221 403.491 364.788 408.185 364.22H408.292C433.336 361.308 457.824 354.78 480.991 344.84" fill="#4397D2"/>
<path opacity="0.1" d="M532.717 243.863H560.98C560.731 258.11 557.868 272.104 551.603 285.027C546.389 295.764 539.145 305.153 530.585 313.354V268.721H532.717V243.863Z" fill="#4397D2"/>
<path opacity="0.1" d="M560.995 241.693H532.717V183.056H548.019C555.938 201.543 560.97 221.831 560.995 241.693Z" fill="#4397D2"/>
<path opacity="0.1" d="M351.762 118.328H334.648V140.487H351.762V118.328Z" fill="#4397D2"/>
<path opacity="0.1" d="M351.762 164.259H334.648V169.362H351.762V164.259Z" fill="#4397D2"/>
<path opacity="0.1" d="M351.762 171.527H334.648V186.414H351.762V171.527Z" fill="#4397D2"/>
<path opacity="0.1" d="M351.762 210.191H334.648V232.35H351.762V210.191Z" fill="#4397D2"/>
<path opacity="0.1" d="M351.762 256.122H334.648V278.281H351.762V256.122Z" fill="#4397D2"/>
<path opacity="0.1" d="M351.757 319.06C351.93 319.06 352.097 319.06 352.265 319.09H351.757V324.238H334.648V302.054H351.757V319.06Z" fill="#4397D2"/>
<path opacity="0.1" d="M351.757 347.975V365.093C346.037 364.609 340.334 363.951 334.648 363.12V347.975H351.757Z" fill="#4397D2"/>
<path opacity="0.1" d="M266.554 240.064H193.211V241.693H266.554V240.064Z" fill="#4397D2"/>
<path opacity="0.1" d="M266.554 243.858H193.211V250.097H266.554V243.858Z" fill="#4397D2"/>
<path opacity="0.1" d="M266.554 270.547H193.211V280.579H266.554V270.547Z" fill="#4397D2"/>
<path opacity="0.1" d="M266.549 301.029V311.061H209.182C206.691 309.161 204.23 307.21 201.8 305.208C200.12 303.824 198.455 302.404 196.759 301.029H266.549Z" fill="#4397D2"/>
<path opacity="0.1" d="M266.549 331.506V341.528H260.493C253.686 338.462 247.014 335.116 240.475 331.491L266.549 331.506Z" fill="#4397D2"/>
<path opacity="0.1" d="M408.307 178.329H393.869V192.754H408.307V178.329Z" fill="#4397D2"/>
<path opacity="0.1" d="M95.6915 111.121H81.2532V125.545H95.6915V111.121Z" fill="#4397D2"/>
<path opacity="0.1" d="M95.6915 144.626H81.2532V159.051H95.6915V144.626Z" fill="#4397D2"/>
<path opacity="0.1" d="M95.6915 178.131H81.2532V192.556H95.6915V178.131Z" fill="#4397D2"/>
<path opacity="0.1" d="M95.6915 211.631H81.2532V226.056H95.6915V211.631Z" fill="#4397D2"/>
<path opacity="0.1" d="M95.6915 245.136H81.2532V259.561H95.6915V245.136Z" fill="#4397D2"/>
<path opacity="0.1" d="M95.6915 278.642H81.2532V293.066H95.6915V278.642Z" fill="#4397D2"/>
<path opacity="0.1" d="M463.425 178.329H448.987V192.754H463.425V178.329Z" fill="#4397D2"/>
<path opacity="0.1" d="M408.307 213.909H393.869V228.333H408.307V213.909Z" fill="#4397D2"/>
<path opacity="0.1" d="M463.425 213.909H448.987V228.333H463.425V213.909Z" fill="#4397D2"/>
<path opacity="0.1" d="M408.307 249.483H393.869V263.908H408.307V249.483Z" fill="#4397D2"/>
<path opacity="0.1" d="M463.425 249.483H448.987V263.908H463.425V249.483Z" fill="#4397D2"/>
<path opacity="0.1" d="M408.307 285.063H393.869V299.487H408.307V285.063Z" fill="#4397D2"/>
<path opacity="0.1" d="M463.425 285.063H448.987V299.487H463.425V285.063Z" fill="#4397D2"/>
<path opacity="0.1" d="M408.307 320.642H393.869V335.067H408.307V320.642Z" fill="#4397D2"/>
<path opacity="0.1" d="M463.425 320.642H448.987V335.067H463.425V320.642Z" fill="#4397D2"/>
<path opacity="0.1" d="M393.869 365.519V356.217H408.302V364.195L393.869 365.519Z" fill="#4397D2"/>
<path opacity="0.1" d="M9.13812 151.331V159.583H58.55V151.331H9.13812ZM14.0626 159.066H10.0316V151.838H14.093L14.0626 159.066ZM18.9819 159.066H14.9205V151.838H18.9819V159.066ZM23.8911 159.066H19.8297V151.838H23.8911V159.066ZM28.8105 159.066H24.7542V151.838H28.8156L28.8105 159.066ZM33.7248 159.066H29.6634V151.838H33.7248V159.066ZM38.6441 159.066H34.5827V151.838H38.6441V159.066ZM43.5635 159.066H39.5021V151.838H43.5635V159.066ZM48.4778 159.066H44.4164V151.838H48.4778V159.066ZM53.3921 159.066H49.3307V151.838H53.3921V159.066ZM58.3063 159.066H54.245V151.838H58.3063V159.066Z" fill="#4397D2"/>
<path opacity="0.1" d="M9.13812 175.342V183.594H58.55V175.342H9.13812ZM14.0626 183.071H10.0316V175.864H14.093L14.0626 183.071ZM18.9819 183.071H14.9205V175.864H18.9819V183.071ZM23.8911 183.071H19.8297V175.864H23.8911V183.071ZM28.8105 183.071H24.7542V175.864H28.8156L28.8105 183.071ZM33.7248 183.071H29.6634V175.864H33.7248V183.071ZM38.6441 183.071H34.5827V175.864H38.6441V183.071ZM43.5635 183.071H39.5021V175.864H43.5635V183.071ZM48.4778 183.071H44.4164V175.864H48.4778V183.071ZM53.3921 183.071H49.3307V175.864H53.3921V183.071ZM58.3063 183.071H54.245V175.864H58.3063V183.071Z" fill="#4397D2"/>
<path opacity="0.1" d="M9.13812 199.362V207.629H58.55V199.362H9.13812ZM14.0626 207.092H10.0316V199.88H14.093L14.0626 207.092ZM18.9819 207.092H14.9205V199.88H18.9819V207.092ZM23.8911 207.092H19.8297V199.88H23.8911V207.092ZM28.8105 207.092H24.7542V199.88H28.8156L28.8105 207.092ZM33.7248 207.092H29.6634V199.88H33.7248V207.092ZM38.6441 207.092H34.5827V199.88H38.6441V207.092ZM43.5635 207.092H39.5021V199.88H43.5635V207.092ZM48.4778 207.092H44.4164V199.88H48.4778V207.092ZM53.3921 207.092H49.3307V199.88H53.3921V207.092ZM58.3063 207.092H54.245V199.88H58.3063V207.092Z" fill="#4397D2"/>
<path opacity="0.1" d="M9.13812 223.383V231.625H58.55V223.383H9.13812ZM14.0626 231.112H10.0316V223.895H14.093L14.0626 231.112ZM18.9819 231.112H14.9205V223.895H18.9819V231.112ZM23.8911 231.112H19.8297V223.895H23.8911V231.112ZM28.8105 231.112H24.7542V223.895H28.8156L28.8105 231.112ZM33.7248 231.112H29.6634V223.895H33.7248V231.112ZM38.6441 231.112H34.5827V223.895H38.6441V231.112ZM43.5635 231.112H39.5021V223.895H43.5635V231.112ZM48.4778 231.112H44.4164V223.895H48.4778V231.112ZM53.3921 231.112H49.3307V223.895H53.3921V231.112ZM58.3063 231.112H54.245V223.895H58.3063V231.112Z" fill="#4397D2"/>
<path opacity="0.1" d="M9.35135 247.398C9.54934 248.174 9.77271 248.95 10.0062 249.716V247.916H14.0676V255.128H11.8948C11.9608 255.295 12.0268 255.478 12.0928 255.635H58.55V247.398H9.35135ZM18.9972 255.128H14.9358V247.916H18.9972V255.128ZM23.9064 255.128H19.845V247.916H23.9064V255.128ZM28.8257 255.128H24.7542V247.916H28.8156L28.8257 255.128ZM33.74 255.128H29.6786V247.916H33.74V255.128ZM38.6594 255.128H34.598V247.916H38.6594V255.128ZM43.5787 255.128H39.5173V247.916H43.5787V255.128ZM48.493 255.128H44.4316V247.916H48.493V255.128ZM53.4073 255.128H49.3459V247.916H53.4073V255.128ZM58.3216 255.128H54.2602V247.916H58.3216V255.128Z" fill="#4397D2"/>
<path opacity="0.1" d="M20.8248 271.419C20.9517 271.581 21.0735 271.764 21.2055 271.926H23.8911V275.39C24.1805 275.735 24.4648 276.08 24.7593 276.405V271.906H28.8206V279.144H27.1758C27.3382 279.311 27.4956 279.489 27.6835 279.651H58.5653V271.419H20.8248ZM33.7248 279.144H29.6634V271.936H33.7248V279.144ZM38.6441 279.144H34.5827V271.936H38.6441V279.144ZM43.5635 279.144H39.5021V271.936H43.5635V279.144ZM48.4778 279.144H44.4164V271.936H48.4778V279.144ZM53.3921 279.144H49.3307V271.936H53.3921V279.144ZM58.3063 279.144H54.2449V271.936H58.3063V279.144Z" fill="#4397D2"/>
<path opacity="0.1" d="M47.9295 295.435C48.3915 295.698 48.8636 295.942 49.3408 296.206V295.952H53.4022V298.234L54.2653 298.635V295.952H58.3267V300.339C58.4045 300.378 58.4862 300.408 58.5703 300.43V295.435H47.9295Z" fill="#4397D2"/>
<path opacity="0.1" d="M383.03 169.362H383.06H383.03ZM351.757 319.055H352.265H351.757ZM319.129 242.89C319.225 243.214 319.307 243.539 319.398 243.858C319.317 243.539 319.23 243.214 319.129 242.89ZM383.03 169.347H383.06H383.03ZM76.3948 93.3995V95.5653H99.0726V93.3995H76.3948ZM351.757 319.055H352.265H351.757ZM319.129 242.89C319.225 243.214 319.307 243.539 319.398 243.858C319.317 243.539 319.23 243.214 319.129 242.89ZM383.03 169.347H383.06H383.03ZM351.757 319.039H352.265H351.757ZM319.129 242.89C319.225 243.214 319.307 243.539 319.398 243.858C319.317 243.539 319.23 243.214 319.129 242.89Z" fill="#4397D2"/>
<path d="M234.342 192.566C234.342 192.566 232.342 192.287 232.342 189.376C232.342 186.464 230.91 181.027 230.91 181.027C230.91 181.002 229.672 171.558 227.961 170.057C226.25 168.555 224.052 159.74 224.052 159.74C224.052 159.74 223.676 154.957 222.909 153.928C222.143 152.898 221.107 150.378 219.579 146.782C218.051 143.186 211.68 140.695 211.68 140.695C211.68 140.695 200.161 134.021 196.896 131.845C196.6 131.666 196.322 131.457 196.069 131.221C195.5 130.475 193.023 130.46 193.023 130.46C192.764 128.827 192.515 126.95 192.434 125.251C192.434 125.069 192.434 124.886 192.408 124.703C196.048 122.554 198.79 119.165 200.13 115.158C200.191 114.965 200.242 114.762 200.298 114.57C200.516 114.498 200.716 114.382 200.887 114.228C201.057 114.074 201.194 113.887 201.288 113.677C201.582 113.023 201.587 112.257 201.953 111.648C202.379 110.928 203.191 110.543 203.831 110C205.445 108.631 205.862 106.323 205.786 104.223C205.735 102.524 205.461 100.81 205.567 99.1207L205.598 98.6946C205.628 98.441 205.664 98.1874 205.709 97.944C205.958 96.6861 206.501 95.4993 206.806 94.2516C207.111 93.0039 207.141 91.599 206.43 90.5237C205.39 88.9464 203.222 88.6319 201.318 88.4696C199.16 88.287 197.231 88.5254 195.85 86.735C195.204 85.7993 194.477 84.9218 193.678 84.1128C193.393 83.8491 190.632 82.1652 190.632 82.0536C187.936 80.8064 184.881 80.5723 182.026 81.3943C180.595 81.8102 179.244 82.4898 177.792 82.8296C174.66 83.5701 171.056 82.7688 168.395 84.5592C166.913 85.5735 166.025 87.1864 165.192 88.7587C164.515 90.0537 163.828 91.3471 163.131 92.6387C162.009 94.7639 160.867 96.9245 160.394 99.2779C160.295 99.79 160.234 100.309 160.212 100.83V100.855C160.212 101.043 160.212 101.231 160.212 101.418V101.657C160.212 101.834 160.212 102.007 160.242 102.164C160.273 102.321 160.268 102.372 160.283 102.478C160.298 102.585 160.323 102.823 160.354 102.985C160.384 103.148 160.445 103.432 160.506 103.655C160.532 103.751 160.567 103.843 160.598 103.934C160.648 104.106 160.709 104.274 160.775 104.441C160.811 104.527 160.846 104.619 160.887 104.705C160.963 104.882 161.054 105.055 161.146 105.212C161.186 105.283 161.217 105.349 161.258 105.415C161.399 105.651 161.555 105.878 161.725 106.095C162.811 107.449 164.41 108.311 165.593 109.579C165.593 109.63 165.593 109.68 165.593 109.726C165.593 109.868 165.593 110.005 165.593 110.147C165.656 112.975 166.409 115.745 167.788 118.215C169.166 120.686 171.128 122.783 173.503 124.323C173.503 124.516 173.528 124.714 173.538 124.906C173.637 126.412 173.618 127.923 173.482 129.425C173.276 129.182 173.017 128.988 172.725 128.858C172.433 128.729 172.116 128.666 171.797 128.675C171.579 128.664 171.36 128.683 171.147 128.731L171.101 128.695V128.741C169.984 129.015 168.609 130.176 167.294 133.478C167.294 133.478 163.293 137.982 160.247 137.794C157.201 137.606 149.49 142.481 149.49 142.481C149.49 142.481 141.966 147.36 140.352 152.33C139.449 155.149 138.367 157.907 137.113 160.587L127.812 179.734L126.096 194.924C126.096 194.924 127.045 201.68 126.858 202.71C126.67 203.739 130.762 213.026 130.762 213.026C130.762 213.026 144.281 236.758 149.804 237.975L150.2 237.696C150.437 237.819 150.687 237.913 150.947 237.975L152.084 237.173C152.152 238.067 152.123 238.965 151.998 239.851C151.236 242.195 152.282 257.487 153.612 260.484C154.942 263.482 154.47 302.784 154.47 302.784L154.282 306.253C154.282 306.253 154.282 306.365 154.328 306.557L154.282 307.379L154.419 307.45C154.562 308.55 154.515 309.667 154.282 310.752C153.805 312.273 153.612 316.574 153.612 316.574C153.612 316.574 149.809 340.859 151.612 345.738C153.414 350.617 154.947 355.963 154.947 355.963C154.947 355.963 156.851 362.049 155.039 363.089C153.226 364.129 148.073 365.874 149.134 368.41C150.099 370.753 153.759 377.032 154.302 377.95L154.257 378.432L153.51 386.511C153.631 387.578 153.921 388.619 154.368 389.595C155.186 391.355 156.775 393.181 159.795 392.983C160.303 392.948 160.892 392.887 161.461 392.811C166.989 392.07 173.797 389.605 173.797 389.605C173.444 389.381 173.12 389.113 172.833 388.809C172.561 388.546 172.345 388.23 172.2 387.882C172.054 387.533 171.981 387.158 171.985 386.78C172.066 385.309 169.309 378.3 168.624 376.575C168.517 376.327 168.461 376.185 168.461 376.185C168.461 376.185 174.746 369.622 173.701 363.804C173.701 363.804 166.746 359.747 169.035 357.52C171.325 355.294 175.417 348.898 175.417 348.898C175.417 348.898 175.604 324.984 175.417 321.413C175.221 318.935 175.338 316.442 175.767 313.993C175.843 313.623 175.934 313.262 176.031 312.907C179.197 313.38 182.394 313.622 185.595 313.633C186.763 313.633 187.951 313.633 189.149 313.562C189.149 313.9 189.164 314.265 189.195 314.657C189.459 320.581 189.951 330.969 190.352 334.828C190.921 340.362 194.063 355.273 194.063 355.273C194.063 355.273 188.068 359.118 195.109 368.592C195.109 368.592 195.109 372.026 194.642 372.523C194.144 374.148 193.742 375.801 193.439 377.473C193.145 379.258 193.023 381.064 193.5 382.002C194.642 384.244 201.496 384.062 201.496 384.062L201.663 384.031C202.957 383.897 204.265 384.022 205.51 384.397C206.755 384.772 207.914 385.391 208.918 386.217C211.522 388.307 221.407 387.389 226.758 386.724C228.854 386.461 230.256 386.217 230.256 386.217C230.323 385.98 230.348 385.732 230.327 385.487C230.271 384.173 229.24 381.292 222.255 378.721C222.255 378.721 215.685 374.308 215.777 370.464H215.64H214.878C215.431 370.433 215.787 370.464 215.787 370.464C215.787 370.464 213.213 361.081 214.264 360.32C215.315 359.559 212.167 349.162 212.167 349.162C212.167 349.162 210.365 331.714 210.268 330.492C210.272 329.443 210.432 328.4 210.741 327.398L210.268 317.832C210.268 317.832 210.177 314.652 210.268 313.617C210.253 312.719 210.18 311.823 210.05 310.934C210.004 310.579 209.959 310.209 209.908 309.844C212.37 309.22 213.969 308.642 213.969 308.642L213.685 275.345C215.777 271.287 216.162 262.386 216.152 256.071C216.152 252.014 215.97 249.011 215.97 249.011L218.828 244.35C218.828 244.35 219.488 238.771 218.442 237.549C217.98 236.996 218.188 236.423 218.569 235.951C218.767 235.794 218.975 235.652 219.193 235.525C219.193 235.525 219.163 235.479 219.127 235.413C219.327 235.247 219.539 235.096 219.762 234.962C219.762 234.962 218.747 233.39 219.655 232.725C220.508 233.304 221.27 233.74 221.848 234.095C221.808 234.465 221.767 234.678 221.767 234.678L222.011 234.171C222.569 234.485 222.909 234.678 222.909 234.678C222.909 234.678 227.387 225.767 227.291 224.453C227.194 223.139 230.337 217.606 230.337 217.606C230.337 217.606 230.717 214.7 232.433 213.482C234.149 212.265 233.764 203.445 233.764 203.445C233.764 203.445 234.241 198.85 235.383 196.973C236.525 195.097 234.342 192.566 234.342 192.566ZM148.667 188.655L148.754 190.781C148.246 189.964 147.88 189.376 147.88 189.376L148.667 188.655Z" fill="url(#paint0_linear_8_24)"/>
<path d="M223.153 230.828L222.057 235.495C222.057 235.495 213.274 231.016 211.69 225.325C210.106 219.635 214.34 217.474 214.34 217.474L222.524 220.938L223.153 230.828Z" fill="white"/>
<path opacity="0.1" d="M223.153 230.828L222.057 235.495C222.057 235.495 213.274 231.016 211.69 225.325C210.106 219.635 214.34 217.474 214.34 217.474L222.524 220.938L223.153 230.828Z" fill="black"/>
<path d="M173.863 389.636C173.863 389.636 165.74 392.618 160.156 392.993C157.191 393.191 155.633 391.375 154.83 389.625C154.392 388.653 154.11 387.617 153.993 386.557L154.719 378.518L155.105 374.237L166.969 371.159L168.649 376.291L168.807 376.682C169.482 378.396 172.188 385.37 172.107 386.826C172.103 387.198 172.175 387.568 172.318 387.912C172.461 388.256 172.673 388.568 172.939 388.829C173.212 389.136 173.522 389.407 173.863 389.636Z" fill="white"/>
<path d="M229.347 385.548C229.367 385.792 229.343 386.037 229.276 386.273C229.276 386.273 211.903 389.169 208.349 386.273C207.347 385.427 206.18 384.799 204.921 384.431C203.662 384.062 202.339 383.961 201.039 384.133C201.039 384.133 194.317 384.315 193.195 382.104C192.728 381.176 192.85 379.375 193.139 377.6C193.435 375.937 193.828 374.292 194.317 372.675L194.586 372.462L196.186 371.179L214.909 370.626H215.051C214.959 374.45 221.407 378.837 221.407 378.837C228.255 381.373 229.266 384.239 229.347 385.548Z" fill="white"/>
<path opacity="0.1" d="M229.347 385.548C229.365 385.792 229.339 386.038 229.271 386.273C229.271 386.273 211.903 389.169 208.349 386.273C207.348 385.427 206.181 384.8 204.923 384.432C203.665 384.063 202.344 383.961 201.044 384.133C201.044 384.133 194.317 384.315 193.2 382.104C192.733 381.171 192.85 379.375 193.139 377.6C195.729 377.859 199.815 378.503 201.42 380.039C203.846 382.378 207.958 384.711 210.482 384.893C212.456 385.02 224.27 385.395 229.347 385.548Z" fill="black"/>
<path opacity="0.1" d="M173.863 389.636C173.863 389.636 165.74 392.618 160.156 392.993C157.191 393.191 155.633 391.375 154.835 389.62C156.902 390.315 159.77 391.046 161.278 390.376C163.065 389.585 169.401 389.073 172.954 388.854C173.225 389.15 173.53 389.413 173.863 389.636Z" fill="black"/>
<path d="M185.915 149.302C179.214 146.7 170.594 138.103 172.746 134.087C173.224 133.073 173.508 131.979 173.584 130.861C173.722 129.343 173.743 127.817 173.645 126.296C173.494 123.805 173.194 121.326 172.746 118.871C172.746 118.871 193.667 119.342 192.449 122.421C192.094 123.324 192.038 124.891 192.134 126.646C192.231 128.401 192.485 130.384 192.749 132.063C193.114 134.365 193.48 136.12 193.48 136.12C193.48 136.12 192.2 137.911 191.449 138.007C190.698 138.103 195.531 153.01 185.915 149.302Z" fill="#CF6F80"/>
<path opacity="0.1" d="M168.791 376.682L168.634 376.854C162.38 369.297 154.815 378.716 154.815 378.716L154.703 378.518L155.089 374.237L166.954 371.159L168.634 376.291L168.791 376.682Z" fill="black"/>
<path opacity="0.1" d="M215.056 371.159C215.056 371.159 210.487 371.062 208.05 373.213C205.613 375.363 193.835 373.679 194.343 373.213C194.493 372.981 194.584 372.717 194.607 372.442L196.206 371.159L214.929 370.606C215 370.946 215.056 371.159 215.056 371.159Z" fill="black"/>
<path d="M176.574 311.812C176.234 312.652 175.975 313.524 175.802 314.414C175.379 316.851 175.261 319.332 175.452 321.799C175.64 325.349 175.452 349.141 175.452 349.141C175.452 349.141 171.436 355.486 169.198 357.723C166.959 359.96 173.767 363.977 173.767 363.977C174.782 369.759 168.629 376.291 168.629 376.291C162.374 368.734 154.81 378.158 154.81 378.158C154.81 378.158 150.698 371.057 149.672 368.521C148.647 365.985 153.688 364.23 155.46 363.201C157.232 362.171 155.374 356.1 155.374 356.1C155.374 356.1 153.876 350.78 152.099 345.926C150.322 341.072 154.059 316.909 154.059 316.909C154.059 316.909 154.252 312.618 154.714 311.122C154.947 310.042 154.993 308.931 154.851 307.836C154.82 307.465 154.785 307.156 154.759 306.948C154.734 306.74 154.714 306.644 154.714 306.644L154.785 306.522L157.323 301.795C157.323 301.795 177.792 308.835 176.574 311.812Z" fill="#4397D2"/>
<path d="M215.056 370.601C215.056 370.601 210.487 370.504 208.05 372.629C205.613 374.755 193.835 373.096 194.343 372.629C194.85 372.163 194.81 368.709 194.81 368.709C187.9 359.285 193.794 355.461 193.794 355.461C193.794 355.461 190.708 340.626 190.149 335.122C189.758 331.278 189.276 320.946 189.017 315.048C188.905 312.512 188.839 310.767 188.839 310.767L194.485 309.631L195.211 309.484L208.827 306.755C208.827 306.755 209.202 309.291 209.456 311.366C209.583 312.251 209.654 313.144 209.669 314.038C209.578 315.053 209.669 318.228 209.669 318.228L210.131 327.748C209.829 328.746 209.674 329.783 209.669 330.827C209.761 332.039 211.532 349.395 211.532 349.395C211.532 349.395 214.614 359.752 213.563 360.497C212.512 361.243 215.056 370.601 215.056 370.601Z" fill="#4397D2"/>
<path opacity="0.1" d="M192.449 122.421C192.094 123.324 192.038 124.891 192.134 126.646C189.332 128.332 186.11 129.194 182.84 129.133C179.569 129.072 176.382 128.09 173.645 126.301C173.494 123.809 173.194 121.327 172.746 118.871C172.746 118.871 193.667 119.332 192.449 122.421Z" fill="black"/>
<path d="M200.536 111.212C200.54 113.04 200.252 114.856 199.683 116.593C198.411 120.485 195.803 123.803 192.32 125.96C188.836 128.116 184.702 128.973 180.647 128.379C176.593 127.785 172.879 125.778 170.162 122.712C167.445 119.647 165.901 115.721 165.801 111.628C165.801 111.486 165.801 111.354 165.801 111.212C165.762 108.908 166.182 106.62 167.037 104.48C167.892 102.34 169.166 100.391 170.782 98.7482C172.399 97.105 174.328 95.7999 176.455 94.909C178.582 94.0181 180.865 93.5593 183.171 93.5593C185.478 93.5593 187.761 94.0181 189.888 94.909C192.015 95.7999 193.943 97.105 195.56 98.7482C197.177 100.391 198.45 102.34 199.305 104.48C200.161 106.62 200.581 108.908 200.541 111.212H200.536Z" fill="#CF6F80"/>
<path opacity="0.1" d="M185.915 149.302C179.214 146.7 170.594 138.103 172.746 134.087C173.224 133.073 173.508 131.979 173.584 130.861L182.758 138.393L188.433 143.044L192.749 132.068C193.114 134.371 193.48 136.125 193.48 136.125C193.48 136.125 192.2 137.916 191.449 138.012C190.698 138.109 195.531 153.01 185.915 149.302Z" fill="black"/>
<path d="M209.639 182.589L201.978 311.163L191.987 311.817L166.116 237.265L170.36 148.755L171.254 130.054L182.758 139.493L188.438 144.144L192.881 132.849L201.14 140.041L209.639 182.589Z" fill="#4397D2"/>
<path opacity="0.1" d="M176.574 311.812C176.234 312.652 175.975 313.524 175.802 314.414C168.532 313.292 161.472 311.089 154.856 307.876L154.719 307.805L154.764 306.989L154.79 306.562L157.328 301.835C157.328 301.835 177.792 308.835 176.574 311.812Z" fill="black"/>
<path opacity="0.1" d="M194.602 314.434C192.743 314.75 190.869 314.963 188.987 315.073C188.875 312.537 188.809 310.792 188.809 310.792L194.454 309.656L194.602 314.434Z" fill="black"/>
<path opacity="0.1" d="M209.426 311.391C205.816 312.329 200.242 313.384 195.251 312.725L195.18 309.509L208.796 306.781C208.796 306.781 209.172 309.291 209.426 311.391Z" fill="black"/>
<path opacity="0.1" d="M195.16 313.313C174.345 316.864 155.282 306.684 155.282 306.684L155.465 303.235C155.465 303.235 155.937 264.136 154.627 261.138C153.318 258.141 152.297 242.94 153.038 240.607C153.779 238.274 150.332 203.288 150.332 203.288L149.774 189.087L129.335 180.814L138.473 161.784C139.707 159.116 140.769 156.372 141.651 153.568C143.24 148.628 150.617 143.774 150.617 143.774C150.617 143.774 158.181 138.925 161.171 139.108C164.161 139.29 168.081 134.817 168.081 134.817C170.974 127.447 173.594 130.785 173.594 130.785C173.594 131.135 173.594 130.785 173.452 131.875C172.437 139.965 189.87 165.527 190.119 165.979L191.779 206.382L193.459 257.512L195.16 313.313Z" fill="black"/>
<path d="M194.602 313.313C173.787 316.864 154.719 306.684 154.719 306.684L154.907 303.235C154.907 303.235 155.379 264.136 154.064 261.138C152.749 258.141 151.734 242.94 152.48 240.607C153.226 238.274 149.774 203.288 149.774 203.288L149.21 189.087L128.761 180.784L137.899 161.754C139.131 159.085 140.193 156.34 141.077 153.537C142.661 148.597 150.043 143.743 150.043 143.743C150.043 143.743 157.607 138.895 160.592 139.077C163.578 139.26 167.502 134.786 167.502 134.786C170.401 127.417 173.594 130.754 173.594 130.754C173.594 131.104 173.289 131.261 173.452 131.845C175.686 139.691 189.312 165.497 189.56 165.948L191.241 206.351L192.921 257.481L194.602 313.313Z" fill="white"/>
<path opacity="0.1" d="M188.992 167.1C186.753 166.166 174.894 152.64 174.894 152.64V149.561C174.462 148.547 171.898 149.165 169.817 149.875L170.71 131.175L171.726 132.017C173.949 139.858 188.733 166.648 188.992 167.1Z" fill="black"/>
<path d="M189.555 165.979C187.311 165.046 175.452 151.519 175.452 151.519V148.44C175.021 147.426 172.457 148.044 170.375 148.755L171.274 130.054L172.289 130.896C174.518 138.737 189.307 165.532 189.555 165.979Z" fill="white"/>
<path opacity="0.1" d="M155.282 233.441C155.561 233.441 169.756 231.949 169.756 231.949C169.756 231.949 178.351 248.834 177.787 252.942C177.224 257.05 176.203 260.687 172.746 260.043C169.289 259.399 154.14 260.55 154.14 260.55L155.282 233.441Z" fill="black"/>
<path d="M154.719 232.32C154.998 232.32 169.193 230.828 169.193 230.828C169.193 230.828 177.782 247.718 177.224 251.821C176.665 255.924 175.635 259.566 172.183 258.922C168.731 258.278 153.576 259.429 153.576 259.429L154.719 232.32Z" fill="white"/>
<path d="M165.415 224.392C165.415 224.392 178.442 231.386 178.722 233.522C179.001 235.657 172.091 232.588 170.599 232.218C169.616 231.982 168.616 231.826 167.609 231.752L157.653 232.02L165.415 224.392Z" fill="#CF6F80"/>
<path opacity="0.1" d="M185.357 167.972C186.114 167.972 186.728 167.359 186.728 166.603C186.728 165.846 186.114 165.233 185.357 165.233C184.6 165.233 183.986 165.846 183.986 166.603C183.986 167.359 184.6 167.972 185.357 167.972Z" fill="black"/>
<path d="M185.357 167.414C186.114 167.414 186.728 166.801 186.728 166.045C186.728 165.288 186.114 164.675 185.357 164.675C184.6 164.675 183.986 165.288 183.986 166.045C183.986 166.801 184.6 167.414 185.357 167.414Z" fill="#3F3D56"/>
<path opacity="0.1" d="M187.88 227.253C188.637 227.253 189.251 226.64 189.251 225.883C189.251 225.127 188.637 224.514 187.88 224.514C187.123 224.514 186.509 225.127 186.509 225.883C186.509 226.64 187.123 227.253 187.88 227.253Z" fill="black"/>
<path d="M187.88 226.69C188.637 226.69 189.251 226.077 189.251 225.32C189.251 224.564 188.637 223.951 187.88 223.951C187.123 223.951 186.509 224.564 186.509 225.32C186.509 226.077 187.123 226.69 187.88 226.69Z" fill="#3F3D56"/>
<path opacity="0.1" d="M186.722 197.612C187.479 197.612 188.093 196.999 188.093 196.243C188.093 195.487 187.479 194.874 186.722 194.874C185.965 194.874 185.352 195.487 185.352 196.243C185.352 196.999 185.965 197.612 186.722 197.612Z" fill="black"/>
<path d="M186.722 197.054C187.479 197.054 188.093 196.441 188.093 195.685C188.093 194.929 187.479 194.316 186.722 194.316C185.965 194.316 185.352 194.929 185.352 195.685C185.352 196.441 185.965 197.054 186.722 197.054Z" fill="#3F3D56"/>
<path d="M218.32 231.468C218.32 231.468 219.254 232.867 218.32 233.522C217.386 234.176 218.411 235.758 218.411 235.758C218.411 235.758 216.081 237.123 217.107 238.35C218.132 239.578 217.482 245.121 217.482 245.121L214.68 249.757C214.68 249.757 214.848 252.744 214.858 256.781C214.858 263.081 214.487 271.936 212.436 275.974L212.72 309.098C212.72 309.098 202.907 312.679 194.693 311.589L193.475 258.435C193.475 258.435 195.251 228.292 195.906 222.51C196.29 219.509 196.446 216.482 196.373 213.457C196.373 213.457 196.094 204.409 195.155 200.209C195.155 200.209 194.14 182.016 194.038 176.98C193.992 174.571 194.119 167.541 194.261 160.856C194.419 153.548 194.596 146.655 194.596 146.655L192.743 132.007C192.743 132.007 194.596 131.819 195.155 132.565C195.405 132.798 195.677 133.007 195.967 133.189C199.166 135.349 210.466 141.994 210.466 141.994C210.466 141.994 216.721 144.479 218.219 148.039C219.716 151.6 220.757 154.126 221.483 155.14C222.209 156.154 222.605 160.922 222.605 160.922C222.605 160.922 224.757 169.697 226.438 171.183C228.118 172.669 229.347 182.123 229.347 182.123L214.497 193.788C214.497 193.788 213.193 213.193 212.913 213.944C212.634 214.695 218.32 231.468 218.32 231.468Z" fill="white"/>
<path d="M218.884 231.468C218.884 231.468 219.813 232.867 218.884 233.522C217.955 234.176 218.97 235.758 218.97 235.758C218.97 235.758 216.655 237.138 217.67 238.365C218.686 239.593 218.046 245.136 218.046 245.136L215.244 249.772C215.244 249.772 215.411 252.759 215.426 256.797C215.426 263.096 215.056 271.952 213.005 275.989L213.284 309.114C213.284 309.114 203.455 312.694 195.251 311.604L194.038 258.45C194.038 258.45 195.815 228.308 196.47 222.526C196.853 219.524 197.008 216.497 196.932 213.472C196.932 213.472 196.653 204.424 195.718 200.224C195.718 200.224 194.703 182.031 194.596 176.995C194.551 174.586 194.683 167.556 194.82 160.871C194.977 153.563 195.155 146.67 195.155 146.67L192.708 131.824C192.708 131.824 195.155 131.824 195.718 132.58C195.966 132.816 196.239 133.025 196.531 133.204C199.729 135.365 211.035 142.009 211.035 142.009C211.035 142.009 217.284 144.494 218.782 148.055C220.28 151.615 221.32 154.141 222.051 155.155C222.783 156.17 223.168 160.937 223.168 160.937C223.168 160.937 225.321 169.712 227.001 171.198C228.682 172.684 229.895 182.118 229.895 182.118L215.046 193.783C215.046 193.783 213.741 213.188 213.457 213.939C213.172 214.69 218.884 231.468 218.884 231.468Z" fill="white"/>
<path opacity="0.1" d="M201.1 150.976L202.44 154.881L195.383 161.982C195.541 154.679 195.718 147.781 195.718 147.781L193.271 132.935C193.271 132.935 195.718 132.935 196.282 133.691C196.529 133.926 196.801 134.134 197.094 134.31L203.095 151.605L201.1 150.976Z" fill="black"/>
<path d="M200.536 149.855L201.882 153.761L194.825 160.861C194.982 153.553 195.16 146.66 195.16 146.66L192.708 131.814C192.708 131.814 195.16 131.814 195.718 132.57C195.967 132.805 196.24 133.014 196.531 133.194L202.537 150.484L200.536 149.855Z" fill="white"/>
<path opacity="0.1" d="M200.536 111.212C200.54 113.04 200.252 114.856 199.683 116.593C199.587 116.608 199.49 116.604 199.395 116.58C199.301 116.557 199.213 116.515 199.135 116.457C199.003 111.892 196.754 107.606 193.987 103.959C193.21 102.858 192.269 101.883 191.195 101.068C190.11 100.254 188.76 99.8723 187.408 99.9981C185.885 100.206 184.539 101.241 183.001 101.373C180.971 101.54 179.153 100.135 177.138 100.064C176.318 100.072 175.51 100.254 174.767 100.599C174.023 100.943 173.362 101.442 172.827 102.062C171.769 103.314 170.982 104.772 170.518 106.343C169.719 108.726 169.285 111.216 169.228 113.728C169.203 115.148 169.066 116.928 167.746 117.446C167.845 116.401 167.726 115.347 167.397 114.351C167.067 113.355 166.534 112.438 165.832 111.658L165.801 111.628C165.801 111.486 165.801 111.354 165.801 111.212C165.762 108.908 166.182 106.62 167.037 104.48C167.892 102.34 169.166 100.391 170.782 98.7482C172.399 97.105 174.328 95.7999 176.455 94.909C178.582 94.0181 180.865 93.5593 183.171 93.5593C185.478 93.5593 187.761 94.0181 189.888 94.909C192.015 95.7999 193.943 97.105 195.56 98.7482C197.177 100.391 198.45 102.34 199.305 104.48C200.161 106.62 200.581 108.908 200.541 111.212H200.536Z" fill="black"/>
<path d="M190.362 83.6564C187.724 82.4166 184.724 82.1821 181.925 82.997C180.519 83.4129 179.194 84.0875 177.767 84.4273C174.721 85.1627 171.167 84.3664 168.553 86.1467C167.101 87.1611 166.228 88.7638 165.415 90.3209L163.385 94.1857C162.278 96.3007 161.161 98.4512 160.699 100.779C160.237 103.107 160.516 105.714 161.994 107.586C163.07 108.95 164.659 109.807 165.827 111.09C166.526 111.871 167.057 112.787 167.385 113.782C167.714 114.777 167.833 115.829 167.735 116.872C169.06 116.365 169.187 114.58 169.218 113.16C169.274 110.647 169.709 108.158 170.507 105.775C170.971 104.203 171.757 102.745 172.817 101.494C173.353 100.875 174.014 100.376 174.757 100.032C175.5 99.687 176.308 99.5044 177.127 99.496C179.158 99.567 180.981 100.967 182.991 100.799C184.514 100.673 185.864 99.6329 187.398 99.43C188.75 99.3023 190.1 99.684 191.185 100.5C192.258 101.314 193.198 102.289 193.972 103.391C196.744 107.038 198.993 111.314 199.125 115.888C199.699 116.309 200.526 115.762 200.81 115.112C201.095 114.463 201.105 113.702 201.465 113.084C201.882 112.369 202.679 111.988 203.303 111.451C204.887 110.086 205.283 107.789 205.222 105.704C205.161 103.619 204.755 101.504 205.151 99.4554C205.39 98.1976 205.928 97.0209 206.222 95.7783C206.517 94.5356 206.552 93.1409 205.857 92.0707C204.841 90.4984 202.704 90.189 200.841 90.0419C198.724 89.8593 196.83 90.0926 195.48 88.3124C194.846 87.3834 194.133 86.5111 193.348 85.7054C193.079 85.4417 190.362 83.7679 190.362 83.6564Z" fill="#512E4E"/>
<path opacity="0.1" d="M135.183 190.613L129.878 180.814L128.198 195.934C128.198 195.934 129.132 202.649 128.944 203.678C128.756 204.708 132.772 213.939 132.772 213.939C132.772 213.939 146.037 237.544 151.454 238.761L169.756 225.696L164.903 219.538C164.903 219.538 163.222 218.884 162.801 219.538C162.801 219.538 153.79 204.049 152.856 202.928C151.921 201.807 152.104 199.57 152.104 199.57C152.104 199.57 150.703 198.079 151.17 196.679C151.637 195.279 148.464 190.425 148.464 190.425L151.358 187.722L135.183 190.613Z" fill="black"/>
<path d="M130.157 179.698L128.756 180.814L127.076 195.934C127.076 195.934 128.01 202.649 127.822 203.678C127.634 204.708 131.655 213.939 131.655 213.939C131.655 213.939 144.916 237.544 150.332 238.761L168.639 225.696L163.781 219.538C163.781 219.538 162.1 218.884 161.679 219.538C161.679 219.538 152.668 204.049 151.734 202.928C150.799 201.807 150.987 199.57 150.987 199.57C150.987 199.57 149.586 198.079 150.053 196.679C150.52 195.279 147.342 190.426 147.342 190.426L150.236 187.722L130.157 179.698Z" fill="white"/>
<path opacity="0.1" d="M217.107 238.928C218.122 240.161 217.482 245.694 217.482 245.694L214.68 250.33C214.68 250.33 214.848 253.322 214.858 257.355L210.147 258.825C209.721 258.958 209.269 258.988 208.83 258.911C208.391 258.834 207.976 258.653 207.621 258.384C207.266 258.114 206.98 257.764 206.788 257.361C206.596 256.959 206.503 256.517 206.517 256.071L207.329 229.895L218.32 234.095C217.386 234.744 218.411 236.337 218.411 236.337C218.411 236.337 216.081 237.696 217.107 238.928Z" fill="black"/>
<path d="M217.67 238.365C218.686 239.598 218.046 245.136 218.046 245.136L215.244 249.772C215.244 249.772 215.411 252.759 215.426 256.797L210.629 258.293C210.212 258.422 209.77 258.451 209.34 258.375C208.91 258.299 208.504 258.122 208.156 257.858C207.809 257.594 207.529 257.251 207.341 256.857C207.153 256.464 207.062 256.031 207.075 255.595L207.892 229.337L218.889 233.537C217.949 234.186 218.975 235.774 218.975 235.774C218.975 235.774 216.655 237.138 217.67 238.365Z" fill="white"/>
<path d="M221.31 225.888C221.31 225.888 220.564 230.651 218.696 230.93C216.828 231.209 215.99 238.634 214.127 238.37C212.264 238.107 213.497 231.468 213.563 230.179C213.629 228.891 211.532 223.555 213.101 222.343C214.67 221.131 219.635 222.343 219.635 222.343L221.31 225.888Z" fill="#CF6F80"/>
<path opacity="0.1" d="M225.285 189.213L228.809 182.113C228.809 182.113 230.21 187.524 230.21 190.415C230.21 193.306 232.169 193.59 232.169 193.59C232.169 193.59 234.317 196.126 233.185 197.973C232.053 199.819 231.596 204.414 231.596 204.414C231.596 204.414 231.966 213.183 230.286 214.395C228.606 215.608 228.255 218.504 228.255 218.504C228.255 218.504 225.169 224.007 225.265 225.315C225.362 226.624 220.97 235.484 220.97 235.484C220.97 235.484 223.118 224.473 210.603 219.716C210.603 219.716 210.507 215.978 211.441 214.953C212.375 213.929 213.832 213.462 212.918 208.284C212.005 203.105 212.654 196.918 212.654 195.675C212.654 194.432 215.457 186.682 215.457 186.682L225.285 189.213Z" fill="black"/>
<path d="M226.808 181.098L229.885 182.113C229.885 182.113 231.291 187.524 231.291 190.415C231.291 193.306 233.251 193.59 233.251 193.59C233.251 193.59 235.398 196.126 234.266 197.973C233.134 199.819 232.682 204.414 232.682 204.414C232.682 204.414 233.053 213.183 231.372 214.395C229.692 215.608 229.316 218.504 229.316 218.504C229.316 218.504 226.235 224.007 226.331 225.315C226.428 226.624 222.031 235.484 222.031 235.484C222.031 235.484 224.184 224.473 211.664 219.716C211.664 219.716 211.573 215.978 212.507 214.953C213.441 213.929 214.898 213.462 213.985 208.284C213.071 203.105 213.721 196.918 213.721 195.675C213.721 194.432 216.523 186.682 216.523 186.682L226.808 181.098Z" fill="white"/>
<path opacity="0.1" d="M158.856 365.143C158.856 365.143 163.76 362.065 166.979 364.301C170.198 366.538 158.856 365.143 158.856 365.143Z" fill="black"/>
<path opacity="0.1" d="M196.962 355.623C196.962 355.623 201.303 355.065 204.948 358.986C208.593 362.906 196.962 355.623 196.962 355.623Z" fill="black"/>
<g opacity="0.1">
<path d="M203.313 110.34C202.689 110.877 201.887 111.263 201.47 111.978C201.115 112.592 201.105 113.347 200.821 114.007C200.536 114.666 199.709 115.204 199.135 114.788C199.003 110.223 196.749 105.937 193.982 102.286C193.209 101.183 192.268 100.208 191.195 99.3945C190.108 98.5784 188.756 98.1968 187.403 98.3244C185.88 98.5323 184.539 99.567 183.001 99.6938C180.971 99.8662 179.148 98.4613 177.133 98.3903C176.313 98.3984 175.506 98.5814 174.763 98.9269C174.021 99.2725 173.361 99.7726 172.827 100.394C171.768 101.643 170.981 103.099 170.518 104.669C169.72 107.052 169.285 109.542 169.228 112.054C169.198 113.469 169.066 115.234 167.756 115.762C167.786 116.136 167.786 116.513 167.756 116.888C169.076 116.38 169.208 114.595 169.238 113.175C169.295 110.663 169.729 108.173 170.528 105.79C170.991 104.218 171.778 102.76 172.838 101.51C173.372 100.89 174.032 100.391 174.775 100.047C175.517 99.7023 176.324 99.5197 177.143 99.5112C179.173 99.5822 181.001 100.982 183.011 100.815C184.534 100.688 185.885 99.6481 187.413 99.4453C188.766 99.3177 190.119 99.6993 191.205 100.515C192.279 101.329 193.219 102.304 193.992 103.406C196.759 107.053 199.013 111.329 199.145 115.904C199.719 116.325 200.546 115.777 200.831 115.128C201.115 114.478 201.125 113.718 201.481 113.099C201.897 112.384 202.699 112.003 203.323 111.466C204.907 110.101 205.303 107.804 205.242 105.719C205.242 105.653 205.242 105.587 205.242 105.526C205.146 107.332 204.664 109.173 203.313 110.34Z" fill="black"/>
<path d="M165.837 109.98C164.669 108.696 163.075 107.839 162.004 106.48C161.102 105.277 160.587 103.828 160.527 102.326C160.367 104.203 160.891 106.075 162.004 107.596C163.075 108.96 164.669 109.817 165.837 111.101C166.958 112.356 167.631 113.947 167.751 115.625C167.828 114.604 167.699 113.577 167.37 112.607C167.041 111.637 166.52 110.743 165.837 109.98Z" fill="black"/>
<path d="M206.232 94.6675C205.933 95.9101 205.4 97.0919 205.156 98.3447C205.012 99.1818 204.959 100.032 204.999 100.881C205.016 100.397 205.068 99.9158 205.156 99.4402C205.4 98.1824 205.933 97.0057 206.232 95.763C206.407 95.0777 206.464 94.3676 206.4 93.6633C206.368 94.0016 206.312 94.3372 206.232 94.6675Z" fill="black"/>
</g>
<path opacity="0.1" d="M67.3836 385.766C94.7038 385.766 116.851 382.212 116.851 377.828C116.851 373.444 94.7038 369.891 67.3836 369.891C40.0633 369.891 17.9158 373.444 17.9158 377.828C17.9158 382.212 40.0633 385.766 67.3836 385.766Z" fill="#4397D2"/>
<path d="M68.9777 225.772H65.7945V297.372H68.9777V225.772Z" fill="#535461"/>
<path d="M88.98 297.154L88.782 300.38L88.4977 304.944L88.381 306.841L88.1017 311.406L87.9799 313.303L87.6956 317.868L84.4871 369.637C84.3476 371.864 83.3639 373.955 81.736 375.483C80.1081 377.012 77.9585 377.863 75.7246 377.864H59.0425C56.8091 377.863 54.6601 377.011 53.033 375.483C51.406 373.954 50.4233 371.864 50.2851 369.637L47.0918 317.832L46.8075 313.268L46.6908 311.371L46.4065 306.806L46.2897 304.909L46.0054 300.344L45.8023 297.119C45.7671 296.498 45.8591 295.876 46.0729 295.292C46.2867 294.708 46.6176 294.174 47.0455 293.722C47.4733 293.271 47.989 292.911 48.561 292.666C49.1329 292.42 49.749 292.294 50.3714 292.295H84.4922C85.1123 292.3 85.7247 292.433 86.2916 292.684C86.8586 292.935 87.368 293.299 87.7886 293.754C88.2091 294.21 88.5318 294.746 88.7367 295.331C88.9416 295.916 89.0244 296.536 88.98 297.154Z" fill="#3F3D56"/>
<path d="M88.782 300.38L88.4977 304.929H46.2694L45.9851 300.38H88.782Z" fill="#9D9CB5"/>
<path d="M88.381 306.826L88.1017 311.381H46.6705L46.3862 306.826H88.381Z" fill="#9D9CB5"/>
<path d="M87.9799 313.283L87.7007 317.832H47.0715L46.7872 313.283H87.9799Z" fill="#9D9CB5"/>
<path d="M41.1267 252.607C59.6618 266.007 67.3988 286.965 67.3988 286.965C67.3988 286.965 45.0611 286.199 26.5209 272.799C7.98063 259.399 0.258911 238.447 0.258911 238.447C0.258911 238.447 22.5864 239.207 41.1267 252.607Z" fill="#4397D2"/>
<path d="M0.243683 238.447C0.243683 238.447 23.4342 251.304 30.8717 261.95C38.3091 272.596 67.3988 286.965 67.3988 286.965" stroke="#535461" stroke-width="2" stroke-miterlimit="10"/>
<path d="M53.0925 225.615C63.18 232.903 67.3988 244.31 67.3988 244.31C67.3988 244.31 55.24 243.894 45.1474 236.605C35.0549 229.317 30.8463 217.905 30.8463 217.905C30.8463 217.905 43 218.321 53.0925 225.615Z" fill="#4397D2"/>
<path d="M30.8463 217.905C30.8463 217.905 43.467 224.904 47.5132 230.697C51.5594 236.489 67.3988 244.31 67.3988 244.31" stroke="#535461" stroke-width="2" stroke-miterlimit="10"/>
<path d="M82.0452 243.731C70.455 256.457 68.0029 273.088 68.0029 273.088C68.0029 273.088 84.345 269.081 95.925 256.35C107.505 243.62 109.967 226.994 109.967 226.994C109.967 226.994 93.6354 231.006 82.0452 243.731Z" fill="#4397D2"/>
<path d="M109.977 226.999C109.977 226.999 94.8792 240.044 91.0412 249.032C87.2032 258.019 68.0029 273.088 68.0029 273.088" stroke="#535461" stroke-width="2" stroke-miterlimit="10"/>
<path d="M507.506 239.253C507.506 239.253 499.125 197.592 502.333 192.409C502.333 192.409 502.45 187.59 502.257 181.448C502.257 181.215 502.257 180.982 502.257 180.743C502.822 181.119 503.41 181.458 504.019 181.758C506.975 183.275 510.369 183.713 513.614 182.995L511.075 180.17C510.466 179.495 509.832 178.765 509.7 177.872C509.568 176.98 509.933 176.184 510.248 175.387C512.659 169.301 512.786 161.647 508.141 157.001C504.217 153.096 503.262 148.055 499.003 144.489C495.891 141.877 494.18 138.048 492.566 134.345C491.2 131.216 489.824 128.061 489.042 124.744C488.433 122.152 488.189 119.469 487.352 116.938C486.514 114.407 484.945 111.948 482.493 110.817C481.62 110.416 480.65 110.188 479.853 109.655C478.808 108.95 478.178 107.804 477.422 106.8C473.579 101.728 460.709 104.715 454.617 106.774C452.961 107.293 451.427 108.142 450.109 109.27L450.165 109.178C450.21 109.102 450.266 109.026 450.317 108.95C449.65 109.489 449.074 110.131 448.611 110.852C447.723 112.257 447.352 113.895 446.611 115.417C445.717 117.217 440.747 122.244 442.885 124.267C443.034 124.403 443.206 124.513 443.392 124.592C444.195 124.925 445.078 125.014 445.931 124.845L445.839 125.064C445.109 126.849 444.735 128.76 444.738 130.688C444.738 139.022 451.617 145.777 460.11 145.777C461.707 145.779 463.294 145.534 464.816 145.052C464.852 145.245 464.882 145.438 464.918 145.63C464.918 145.706 464.943 145.782 464.953 145.858L464.684 146.234C464.671 146.211 464.655 146.189 464.638 146.168L456.668 157.296C455.45 158.153 448.433 163.225 448.037 167.029C447.621 171.193 447.205 176.067 447.205 176.067L447.149 177.112C446.801 177.402 446.393 177.614 445.955 177.733C445.517 177.851 445.058 177.873 444.611 177.796C442.123 177.391 442.123 186.926 442.123 186.926C442.123 186.926 440.468 188.447 439.331 187.129C438.194 185.81 435.188 190.278 435.188 190.278L416.354 191.09L415.922 191.115L414.907 187.976C414.797 187.645 414.562 187.37 414.251 187.211C413.94 187.053 413.579 187.023 413.247 187.129C413.168 187.155 413.092 187.187 413.018 187.225L412.947 187.266L412.815 187.357L412.749 187.418C412.713 187.451 412.679 187.486 412.648 187.524L412.587 187.595L412.556 187.626C412.439 187.788 412.361 187.975 412.33 188.172C412.298 188.369 412.313 188.571 412.373 188.762L413.247 191.455C409.612 192.185 405.895 194.245 408.926 199.915L393.564 197.08L398.534 201.249L424.192 206.539C423.852 207.148 424.075 208.03 425.136 209.273C429.705 214.634 438.031 216.089 441.382 216.465C442.267 218.442 443.372 220.314 444.677 222.044L444.387 227.385C444.387 227.385 435.904 268.092 434.351 270.156C435.135 269.268 435.853 268.324 436.498 267.331C434.036 275.695 430.594 287.142 429.69 288.856C428.238 291.595 426.893 302.677 428.548 303.387C429.056 303.606 430.508 303.499 432.579 303.342V304.26L432.487 339.048C432.487 339.048 432.904 360.386 431.761 362.42C430.619 364.453 430.315 368.719 430.315 368.719C430.315 368.719 425.746 377.133 422.126 380.516C422.101 380.543 422.074 380.566 422.045 380.587L421.933 379.796C421.933 379.796 417.582 385.284 407.957 384.974C407.957 384.974 402.164 388.738 410.754 388.941C419.344 389.144 430.315 388.636 430.315 388.636C430.315 388.636 437.975 376.971 444.392 378.493V387.333H446.357V378.35C447.268 377.751 448.048 376.973 448.649 376.064C449.251 375.155 449.661 374.133 449.855 373.06C450.023 371.955 449.9 370.825 449.498 369.782C449.095 368.738 448.427 367.818 447.56 367.111C447.171 366.759 446.858 366.331 446.642 365.852C446.427 365.374 446.312 364.856 446.306 364.332L446.235 364.393C446.235 364.215 446.19 364.032 446.169 363.845C445.606 359.28 444.9 349.862 447.393 342.893C450.809 333.337 451.845 320.028 449.357 312.106C448.555 309.574 447.895 306.998 447.383 304.392C447.322 304.062 447.266 303.748 447.215 303.453C448.915 303.683 450.599 304.022 452.256 304.468C458.018 306.055 470.624 306.349 481.387 306.263C481.412 306.557 481.442 306.867 481.478 307.176C481.67 309.327 482.071 311.453 482.676 313.526C484.026 317.584 484.646 335.472 484.646 335.472C484.646 335.472 486.387 350.181 485.438 356.166C484.93 359.493 484.422 362.836 484.133 366.193V366.259C484.133 366.259 481.28 374.374 479.193 378.782C479.143 378.893 479.087 379.005 479.036 379.111C478.48 379.162 477.932 379.283 477.406 379.471C477.406 379.471 474.609 385.051 471.822 385.974C469.035 386.897 469.959 389.935 476.269 388.819C482.58 387.703 492.109 386.79 492.109 386.79L492.52 381.1L494.459 378.675L493.952 384.351L496.018 383.945L495.744 377.042L498.917 373.076C498.917 373.076 502.749 369.667 497.053 362.962V363.109C496.992 363.013 496.937 362.912 496.871 362.815V362.785C495.926 361.324 495.175 358.6 496.551 353.767C499.038 345.033 500.485 337.106 500.485 337.106C500.485 337.106 506.039 315.869 499.363 305.822H499.658C498.974 304.408 498.49 302.906 498.221 301.359C498.187 301.176 498.157 300.988 498.13 300.796C503.069 300.512 507.918 299.619 511.872 297.692C511.857 297.671 509.476 247.277 507.506 239.253ZM444.793 204.104V204.206L443.778 204.257L444.793 204.104ZM441.311 204.586C441.144 204.623 440.988 204.698 440.854 204.804C440.417 205.421 440.143 206.138 440.057 206.889L438.473 206.534C438.473 206.534 437.361 206.296 435.762 206.027L435.005 205.266C437.087 205.093 439.25 204.84 441.311 204.586Z" fill="url(#paint1_linear_8_24)"/>
<path d="M493.718 377.113L493.114 384.3L495.139 383.894L494.835 376.099L493.718 377.113Z" fill="#1D2366"/>
<path d="M447.504 342.989C445.062 349.938 445.753 359.316 446.301 363.87C446.504 365.554 446.692 366.579 446.692 366.579C446.692 366.579 443.042 374.886 442.737 375.201C442.433 375.515 431.995 381.881 431.995 381.881L424.7 386.136C424.7 386.136 417.298 382.895 420.846 381.779C421.572 381.488 422.225 381.044 422.76 380.476C426.314 377.103 430.777 368.719 430.777 368.719C430.777 368.719 431.081 364.464 432.198 362.44C433.315 360.416 432.909 339.15 432.909 339.15L432.995 304.483V299.964L446.88 300.065C446.968 301.6 447.168 303.125 447.479 304.63C447.977 307.228 448.623 309.795 449.413 312.319C451.86 320.226 450.845 333.469 447.504 342.989Z" fill="#FFB0B1"/>
<path opacity="0.1" d="M446.692 366.579C446.692 366.579 443.042 374.886 442.737 375.201C442.433 375.515 431.995 381.881 431.995 381.881L424.7 386.136C424.7 386.136 417.298 382.895 420.846 381.779C421.572 381.488 422.225 381.044 422.76 380.476L423.075 382.692L425.507 382.591L446.322 363.88C446.504 365.554 446.692 366.579 446.692 366.579Z" fill="black"/>
<path d="M446.438 364.352L425.507 383.189L423.075 383.291L422.567 379.74C422.567 379.74 418.313 385.208 408.86 384.903C408.86 384.903 403.184 388.652 411.597 388.854C420.009 389.057 430.751 388.55 430.751 388.55C430.751 388.55 438.255 376.885 444.535 378.406V387.216H446.464V378.325C447.361 377.722 448.126 376.944 448.714 376.037C449.302 375.131 449.701 374.115 449.885 373.05C450.052 371.954 449.934 370.833 449.542 369.796C449.15 368.758 448.497 367.839 447.647 367.126C447.267 366.771 446.963 366.341 446.756 365.864C446.548 365.387 446.44 364.872 446.438 364.352Z" fill="#1D2366"/>
<path d="M495.647 353.823C494.297 358.641 495.033 361.355 495.957 362.81V362.841C497.142 364.638 497.966 366.648 498.383 368.76L498.465 369.216L488.941 383.088L483.773 385.116C483.773 385.116 475.462 382.281 476.98 381.47C477.361 381.272 477.955 380.217 478.635 378.761C480.666 374.374 483.468 366.279 483.468 366.279V366.213C483.762 362.871 484.23 359.539 484.747 356.222C485.676 350.252 483.971 335.599 483.971 335.599C483.971 335.599 483.361 317.782 482.041 313.729C481.446 311.669 481.049 309.556 480.859 307.42C480.584 304.884 480.523 302.794 480.523 302.794C480.523 302.794 485.996 295.186 496.028 303.403C496.83 304.058 497.536 304.823 498.125 305.675C505.054 315.525 499.475 337.222 499.475 337.222C499.475 337.222 498.079 345.114 495.647 353.823Z" fill="#FFB0B1"/>
<path opacity="0.1" d="M498.48 369.216L488.956 383.088L483.788 385.116C483.788 385.116 475.477 382.281 476.995 381.47C477.376 381.272 477.97 380.217 478.65 378.761C482.168 378.731 483.991 382.078 483.991 382.078L488.448 381.368C488.448 381.368 494.327 369.825 495.647 369.12C496.967 368.415 495.85 363.85 495.85 363.85V362.688C495.886 362.729 495.916 362.775 495.957 362.815V362.846C497.142 364.643 497.966 366.653 498.383 368.765L498.48 369.216Z" fill="black"/>
<path d="M484.296 382.378C484.296 382.378 481.757 377.722 476.894 379.441C476.894 379.441 474.157 385.02 471.421 385.923C468.685 386.826 469.598 389.869 475.782 388.758C481.965 387.647 491.286 386.729 491.286 386.729L491.692 381.054L497.977 373.055C497.977 373.055 501.724 369.662 496.15 362.983V364.144C496.15 364.144 497.267 368.709 495.947 369.414C494.627 370.119 488.768 381.668 488.768 381.668L484.296 382.378Z" fill="#1D2366"/>
<path opacity="0.1" d="M446.895 300.055C446.983 301.589 447.183 303.115 447.494 304.62C441.778 303.783 436.473 304.199 432.995 304.473V299.954L446.895 300.055Z" fill="black"/>
<path opacity="0.1" d="M498.688 306.938C498.688 306.938 490.565 307.333 480.879 307.415C480.605 304.879 480.544 302.789 480.544 302.789C480.544 302.789 486.017 295.181 496.048 303.398C496.85 304.053 497.556 304.818 498.145 305.67C498.302 306.102 498.484 306.526 498.688 306.938Z" fill="black"/>
<path d="M498.688 306.025C498.688 306.025 463.11 307.744 452.266 304.706C441.422 301.668 430.675 304.3 429.056 303.595C427.436 302.89 428.751 291.849 430.172 289.115C431.594 286.381 439.392 258.734 439.392 258.734L446.895 219.65L454.8 217.474L455.358 217.317L469.131 213.523L479.224 210.739C479.224 210.739 499.292 289.014 497.571 294.785C496.946 296.996 496.845 299.321 497.277 301.577C497.54 303.117 498.015 304.614 498.688 306.025Z" fill="#1D2366"/>
<path d="M420.74 192.921C420.74 192.921 413.632 200.529 419.014 204.769C424.395 209.009 427.934 205.175 427.934 205.175L420.74 192.921Z" fill="#C7DAF5"/>
<path opacity="0.1" d="M420.74 192.921C420.74 192.921 413.632 200.529 419.014 204.769C424.395 209.009 427.934 205.175 427.934 205.175L420.74 192.921Z" fill="black"/>
<path d="M478.163 142.902C478.163 142.902 477.33 143.693 476.076 144.859C474.289 146.528 471.644 148.968 469.299 151.012C466.05 153.837 463.369 155.911 464.329 154.141C465.288 152.371 465.105 149.287 464.628 146.401C464.593 146.208 464.562 146.016 464.527 145.828C464.132 143.709 463.608 141.615 462.958 139.559C462.958 139.559 468.207 132.783 471.111 130.11C472.193 129.096 472.949 128.68 472.995 129.385C473.045 130.333 473.756 132.428 474.64 134.65C474.665 134.721 474.69 134.786 474.721 134.857C475.31 136.379 475.975 137.941 476.559 139.29C477.452 141.36 478.163 142.902 478.163 142.902Z" fill="#FFB0B1"/>
<path opacity="0.1" d="M474.721 134.857C474.228 137.508 473.031 139.978 471.255 142.009C469.48 144.039 467.191 145.556 464.628 146.401C464.225 144.086 463.667 141.8 462.958 139.559C462.958 139.559 472.842 126.803 472.995 129.385C473.03 130.364 473.802 132.535 474.721 134.857Z" fill="black"/>
<path opacity="0.1" d="M463.643 149.809L464.923 148.009C464.923 148.009 465.771 153.172 468.888 150.895C472.005 148.618 472.157 168.033 472.157 168.033L468.811 218.007L444.636 216.561L445.321 192.414L448.058 180.241L454.825 162.545L458.851 156.697L463.643 149.809Z" fill="black"/>
<path d="M472.157 168.342L469.111 213.528L468.791 218.316L455.312 217.51L454.805 217.479L444.651 216.871L445.337 192.718L448.073 180.545L454.84 162.849L458.866 157.001L463.659 150.088L464.938 148.293C464.938 148.293 465.786 153.456 468.903 151.179L468.969 151.133C472.015 149.206 472.157 168.342 472.157 168.342Z" fill="#1D2366"/>
<path d="M448.413 176.315C448.413 176.315 447.2 178.851 444.763 178.441C442.326 178.03 442.331 187.57 442.331 187.57C442.331 187.57 440.712 189.092 439.595 187.773C438.478 186.454 435.533 190.912 435.533 190.912L417.085 191.724C417.085 191.724 425.294 195.472 423.684 206.813C423.684 206.813 451.556 205.088 452.469 202.456C453.383 199.824 448.413 176.315 448.413 176.315Z" fill="white"/>
<path opacity="0.03" d="M448.413 176.315C448.413 176.315 447.2 178.851 444.763 178.441C442.326 178.03 442.331 187.57 442.331 187.57C442.331 187.57 440.712 189.092 439.595 187.773C438.478 186.454 435.533 190.912 435.533 190.912L417.085 191.724C417.085 191.724 425.294 195.472 423.684 206.813C423.684 206.813 451.556 205.088 452.469 202.456C453.383 199.824 448.413 176.315 448.413 176.315Z" fill="black"/>
<path d="M394.798 197.683L399.661 201.832L439.696 210.236L434.731 205.175L394.798 197.683Z" fill="white"/>
<path d="M463.719 151.407C463.054 152.422 461.151 157.615 459.562 162.149C458.237 165.928 457.13 169.25 457.13 169.25C457.13 169.25 454.546 186.059 453.226 189.097C451.906 192.135 452.622 203.983 452.622 203.983L447.702 233.243C447.702 233.243 445.474 248.332 442.032 257.345C438.635 266.215 434.853 270.374 434.736 270.506C436.259 268.447 444.56 227.902 444.56 227.902L447.301 176.767C447.301 176.767 447.702 171.908 448.109 167.754C448.515 163.6 456.739 157.93 456.739 157.93L464.669 146.665C465.466 147.73 464.933 149.586 463.719 151.407Z" fill="white"/>
<path d="M443.042 217.124C443.042 217.124 431.365 216.617 425.71 209.831C420.054 203.044 438.783 207.122 438.783 207.122L443.651 208.238L443.042 217.124Z" fill="#FFB0B1"/>
<path opacity="0.1" d="M497.571 294.791C496.946 297.001 496.845 299.326 497.277 301.582C484.539 302.485 470.913 299.046 470.913 299.046C468.375 301.379 461.689 304.818 461.689 304.818L458.044 259.678C455.713 253.591 454.8 221.704 454.8 221.704C454.8 221.704 455.008 220.035 455.307 217.535C455.307 217.474 455.307 217.408 455.333 217.347C456.241 210.363 458.044 197.252 458.927 195.482C460.145 193.048 455.18 186.571 455.18 186.571L457.44 167.323L457.714 165C462.476 162.875 466.126 156.089 466.126 156.089L468.928 151.184C471.974 149.231 472.132 168.368 472.132 168.368L469.086 213.553L479.178 210.769C479.178 210.769 499.292 289.019 497.571 294.791Z" fill="black"/>
<path d="M510.644 297.91C496.759 304.797 471.522 298.417 471.522 298.417C468.984 300.75 462.298 304.189 462.298 304.189L458.648 259.049C456.323 252.962 455.409 221.075 455.409 221.075C455.409 221.075 458.343 197.283 459.562 194.853C459.917 194.143 459.744 193.088 459.323 191.952C457.251 186.545 456.489 180.724 457.099 174.966L458.074 166.694L458.343 164.376C463.11 162.246 466.76 155.46 466.76 155.46L469.299 151.017L473.969 142.831L476.183 138.956L476.559 139.295L479.427 141.892C479.427 141.892 480.645 142.907 482.473 144.428C486.448 147.776 493.317 153.669 496.86 157.275C499.978 160.45 500.962 172.801 501.247 182.097C501.435 188.219 501.323 193.017 501.323 193.017C498.18 198.186 506.4 239.679 506.4 239.679C508.314 247.698 510.644 297.91 510.644 297.91Z" fill="white"/>
<path opacity="0.03" d="M483.991 155.358C483.991 155.358 474.462 173.48 475.569 180.368C476.675 187.256 479.823 195.051 478.305 196.872C477.783 197.562 477.109 198.122 476.335 198.508C475.561 198.894 474.708 199.096 473.843 199.098C472.32 199.2 468.258 202.035 468.258 202.339C468.258 202.644 464.506 202.644 461.151 204.064C457.795 205.484 452.84 206.29 452.84 206.29C452.84 206.29 443.194 205.986 442.296 206.899C441.397 207.812 440.473 213.275 442.397 217.631C444.321 221.988 446.459 225.239 448.073 225.833C449.687 226.426 459.932 222.997 468.243 222.186C476.554 221.374 485.575 214.796 485.575 214.796C485.575 214.796 495.51 211.246 497.251 205.276C498.993 199.306 495.124 166.496 495.124 166.496C495.124 166.496 492.2 151.204 483.991 155.358Z" fill="black"/>
<path opacity="0.03" d="M482.773 153.837C482.773 153.837 473.243 171.964 474.36 178.846C475.477 185.729 478.615 193.529 477.092 195.355C476.572 196.046 475.899 196.607 475.125 196.993C474.352 197.379 473.499 197.581 472.634 197.582C471.111 197.683 467.05 200.519 467.05 200.823C467.05 201.127 463.298 201.127 459.942 202.542C456.587 203.957 451.632 204.769 451.632 204.769C451.632 204.769 441.986 204.465 441.092 205.378C440.199 206.29 439.265 211.758 441.194 216.11C443.123 220.461 445.255 223.718 446.87 224.311C448.484 224.904 458.729 221.476 467.04 220.669C475.35 219.863 484.372 213.275 484.372 213.275C484.372 213.275 494.302 209.724 496.023 203.76C497.744 197.795 493.896 164.975 493.896 164.975C493.896 164.975 490.982 149.688 482.773 153.837Z" fill="black"/>
<path d="M483.691 154.445C483.691 154.445 474.162 172.572 475.279 179.455C476.396 186.338 479.534 194.138 478.016 195.959C477.496 196.651 476.822 197.213 476.048 197.6C475.273 197.988 474.419 198.19 473.553 198.191C472.03 198.292 467.969 201.127 467.969 201.426C467.969 201.726 464.222 201.731 460.861 203.151C457.501 204.571 452.551 205.378 452.551 205.378C452.551 205.378 442.905 205.073 442.006 205.986C441.108 206.899 440.184 212.367 442.108 216.718C444.032 221.07 446.169 224.326 447.784 224.92C449.398 225.513 459.643 222.084 467.954 221.273C476.264 220.461 485.286 213.883 485.286 213.883C485.286 213.883 495.221 210.333 496.962 204.363C498.703 198.393 494.86 165.583 494.86 165.583C494.86 165.583 491.895 150.317 483.691 154.445Z" fill="white"/>
<path opacity="0.1" d="M483.483 203.065C483.483 203.065 475.868 201.543 478.518 204.079C481.168 206.615 481.153 208.837 484.397 208.735C487.641 208.634 483.483 203.065 483.483 203.065Z" fill="black"/>
<path opacity="0.1" d="M496.353 257.629C496.353 257.629 492.911 259.957 499.495 265.323C506.08 270.689 496.353 257.629 496.353 257.629Z" fill="black"/>
<path opacity="0.1" d="M489.783 276.765C489.783 277.069 488.565 287.923 493.124 290.637C497.683 293.35 489.783 276.765 489.783 276.765Z" fill="black"/>
<path d="M417.399 191.699C413.724 191.825 405.784 192.946 409.901 200.62C413.541 207.411 419.659 202.872 423.101 199.428C422.261 196.217 420.22 193.451 417.399 191.699Z" fill="#FFB0B1"/>
<path d="M423.146 199.367L423.299 199.21L423.146 199.367Z" fill="#FFB0B1"/>
<path opacity="0.1" d="M482.473 144.738C478.574 147.4 475.305 149.647 474.665 150.114C472.919 151.407 469.588 159 467.441 162.875C465.73 165.994 460.171 166.795 458.074 166.993L458.343 164.675C463.11 162.545 466.76 155.759 466.76 155.759L476.183 139.255L479.427 142.202C479.427 142.202 480.645 143.216 482.473 144.738Z" fill="black"/>
<path d="M482.473 144.433C478.574 147.096 475.305 149.343 474.665 149.815C472.919 151.103 469.588 158.696 467.441 162.57C465.73 165.69 460.171 166.491 458.074 166.689L458.343 164.371C463.11 162.241 466.76 155.455 466.76 155.455L476.183 138.951L479.427 141.887C479.427 141.887 480.645 142.891 482.473 144.433Z" fill="#DCE7FF"/>
<path d="M474.97 131.51C474.972 134.555 474.047 137.528 472.319 140.036C470.279 143.001 467.242 145.137 463.759 146.057C460.277 146.976 456.58 146.618 453.339 145.047C450.098 143.476 447.529 140.797 446.096 137.495C444.664 134.193 444.464 130.488 445.532 127.051C446.6 123.615 448.866 120.674 451.918 118.764C454.971 116.854 458.608 116.1 462.169 116.639C465.73 117.179 468.98 118.976 471.329 121.704C473.677 124.432 474.969 127.911 474.97 131.51Z" fill="#FFB0B1"/>
<path opacity="0.1" d="M501.247 182.102C499.185 180.835 497.506 179.033 496.388 176.889C495.541 175.215 494.977 173.282 493.53 172.096C492.225 171.03 490.484 170.772 488.86 170.295C483.519 168.718 479.041 163.849 478.874 158.29C478.792 155.673 479.61 153.061 479.239 150.469C479.028 149.002 478.445 147.614 477.543 146.437C477.096 145.874 476.605 145.346 476.076 144.859C475.366 144.19 474.619 143.541 473.969 142.831C473.56 142.391 473.202 141.906 472.903 141.385C472.662 140.959 472.466 140.508 472.319 140.041C471.304 136.937 472.228 133.255 471.111 130.115L471.05 129.943C470.629 128.827 469.771 127.711 468.578 127.625C467.385 127.539 466.364 128.528 465.227 128.969C462.846 129.892 460.277 128.32 458.292 126.717C456.307 125.114 454.069 123.283 451.545 123.638C449.875 123.877 448.555 125.013 447.017 125.601C446.67 125.736 446.311 125.839 445.946 125.911C447.248 122.667 449.639 119.978 452.71 118.305C455.781 116.632 459.339 116.079 462.774 116.742C466.208 117.406 469.304 119.243 471.529 121.939C473.755 124.635 474.971 128.021 474.97 131.515C474.971 132.57 474.861 133.623 474.64 134.655C474.665 134.726 474.69 134.792 474.721 134.863C475.31 136.384 475.975 137.946 476.559 139.295L479.427 141.892C479.427 141.892 480.645 142.907 482.473 144.428C486.448 147.776 493.317 153.669 496.86 157.275C499.978 160.461 500.952 172.806 501.247 182.102Z" fill="black"/>
<path d="M446.839 116.335C447.565 114.859 447.926 113.205 448.794 111.806C450.068 109.777 452.292 108.478 454.576 107.692C460.541 105.638 473.147 102.656 476.914 107.692C477.655 108.707 478.269 109.833 479.295 110.533C480.077 111.065 481.021 111.293 481.879 111.694C484.28 112.82 485.813 115.275 486.631 117.78C487.448 120.286 487.692 122.974 488.291 125.556C489.058 128.868 490.403 132.007 491.743 135.126C493.322 138.808 494.997 142.628 498.043 145.23C502.201 148.78 503.12 153.806 506.978 157.701C511.547 162.327 511.4 169.96 509.045 176.021C508.735 176.818 508.385 177.649 508.507 178.496C508.628 179.343 509.258 180.114 509.852 180.789L512.35 183.604C506.44 185.029 499.754 181.945 497.003 176.533C496.155 174.86 495.591 172.932 494.139 171.741C492.84 170.675 491.093 170.422 489.474 169.945C484.133 168.363 479.655 163.488 479.488 157.93C479.407 155.318 480.224 152.706 479.853 150.119C479.647 148.642 479.061 147.244 478.153 146.061C476.757 144.241 474.65 143.018 473.513 140.989C471.588 137.596 473.051 133.189 471.665 129.547C471.238 128.431 470.385 127.316 469.192 127.229C467.999 127.143 466.979 128.132 465.837 128.573C463.461 129.496 460.892 127.929 458.907 126.321C456.922 124.714 454.683 122.888 452.155 123.248C450.484 123.481 449.17 124.617 447.631 125.211C446.494 125.647 444.189 126.037 443.194 125.079C441.092 123.146 445.961 118.14 446.839 116.335Z" fill="#591D4B"/>
<path opacity="0.1" d="M498.414 174.86C497.561 173.186 497.003 171.259 495.551 170.072C494.251 169.007 492.505 168.748 490.88 168.271C485.544 166.694 481.067 161.82 480.894 156.261C480.813 153.649 481.63 151.032 481.265 148.445C481.052 146.978 480.467 145.59 479.564 144.413C478.163 142.592 476.056 141.37 474.924 139.341C473 135.953 474.462 131.545 473.071 127.899C472.649 126.788 471.792 125.672 470.604 125.581C469.416 125.49 468.385 126.489 467.248 126.93C464.872 127.853 462.298 126.281 460.318 124.678C458.338 123.075 456.089 121.244 453.566 121.599C451.896 121.838 450.576 122.974 449.043 123.562C447.905 123.998 445.596 124.394 444.601 123.435C442.509 121.407 447.377 116.411 448.251 114.615C448.977 113.134 449.337 111.486 450.21 110.086C450.256 110.01 450.307 109.934 450.358 109.858C449.704 110.399 449.141 111.039 448.687 111.755C447.819 113.155 447.459 114.798 446.733 116.284C445.854 118.08 440.986 123.091 443.083 125.104C444.098 126.068 446.382 125.672 447.52 125.236C449.043 124.643 450.373 123.506 452.043 123.273C454.581 122.913 456.815 124.744 458.795 126.347C460.775 127.949 463.364 129.522 465.73 128.599C466.867 128.157 467.862 127.163 469.081 127.255C470.299 127.346 471.111 128.457 471.553 129.573C472.939 133.214 471.477 137.622 473.401 141.015C474.538 143.008 476.645 144.256 478.041 146.087C478.95 147.27 479.535 148.668 479.742 150.144C480.112 152.731 479.295 155.343 479.376 157.955C479.544 163.534 484.021 168.388 489.362 169.97C490.971 170.447 492.728 170.701 494.028 171.766C495.485 172.958 496.058 174.885 496.891 176.559C499.643 181.971 506.329 185.054 512.238 183.629L511.06 182.3C505.938 182.376 500.754 179.465 498.414 174.86Z" fill="black"/>
<path opacity="0.1" d="M463.415 151.711C462.75 152.726 460.846 157.92 459.257 162.454C457.77 161.876 456.419 158.188 456.419 158.188L464.349 146.919C465.161 148.034 464.628 149.886 463.415 151.711Z" fill="black"/>
<path d="M463.719 151.407C463.054 152.422 461.151 157.615 459.562 162.149C458.074 161.576 456.724 157.884 456.724 157.884L464.654 146.619C465.466 147.73 464.933 149.586 463.719 151.407Z" fill="#DCE7FF"/>
<path d="M417.613 203.222L413.216 189.371C413.164 189.208 413.145 189.038 413.159 188.868C413.173 188.698 413.221 188.533 413.299 188.382C413.377 188.23 413.485 188.096 413.615 187.986C413.746 187.877 413.896 187.794 414.059 187.742C414.386 187.64 414.74 187.672 415.045 187.829C415.349 187.987 415.578 188.258 415.683 188.584L420.08 202.421L419.643 205.317L417.613 203.222Z" fill="#BE8B87"/>
<path opacity="0.1" d="M413.632 188.153C413.96 188.05 414.316 188.08 414.621 188.238C414.927 188.396 415.157 188.668 415.262 188.995L419.658 202.831L419.328 205.002L419.648 205.337L420.085 202.441L415.663 188.605C415.558 188.279 415.329 188.007 415.024 187.85C414.72 187.692 414.366 187.661 414.039 187.763C413.763 187.852 413.526 188.03 413.363 188.27C413.45 188.224 413.54 188.185 413.632 188.153Z" fill="white"/>
<path d="M417.613 203.222L420.08 202.441L419.719 204.815L419.643 205.337L418.922 204.586L417.613 203.222Z" fill="#EFC8C4"/>
<path d="M418.922 204.586C418.965 204.532 419.019 204.487 419.08 204.454C419.115 204.432 419.157 204.42 419.199 204.42C419.241 204.42 419.283 204.432 419.318 204.454C419.353 204.496 419.382 204.542 419.405 204.591C419.438 204.647 419.484 204.695 419.538 204.731C419.593 204.767 419.655 204.79 419.719 204.799L419.643 205.307L418.922 204.586Z" fill="#727A9C"/>
<path d="M413.191 194.29C413.191 194.29 422.009 194.24 419.933 197.988C417.856 201.736 414.612 202.187 414.612 202.187L413.191 194.29Z" fill="#FFB0B1"/>
<path d="M358.347 26.0798H357.966C342.817 26.0798 329.419 34.0884 321.713 45.906C314.006 34.0884 300.609 26.0798 285.46 26.0798H285.079C273.71 26.1881 262.844 30.7744 254.84 38.8422C246.837 46.91 242.344 57.8072 242.338 69.1659C242.338 83.2709 248.522 103.285 260.579 119.753C283.551 151.133 321.713 178.588 321.713 178.588C321.713 178.588 359.875 151.138 382.842 119.753C394.904 103.285 401.083 83.2709 401.083 69.1659C401.077 57.8081 396.584 46.9116 388.582 38.844C380.58 30.7763 369.715 26.1894 358.347 26.0798ZM352.899 122.168C351.174 122.161 349.491 121.633 348.071 120.654C346.652 119.675 345.562 118.289 344.944 116.68H335.887C335.291 116.676 334.71 116.486 334.227 116.137C333.744 115.788 333.382 115.297 333.191 114.732L330.409 106.358L321.606 137.089C321.435 137.681 321.076 138.201 320.584 138.571C320.091 138.942 319.491 139.142 318.875 139.143H318.697C318.054 139.112 317.441 138.862 316.961 138.433C316.48 138.005 316.161 137.425 316.057 136.79L306.985 82.2768L300.355 114.534C300.203 115.147 299.85 115.691 299.352 116.08C298.854 116.469 298.241 116.68 297.609 116.68H284.851C284.468 116.696 284.087 116.635 283.728 116.499C283.37 116.364 283.043 116.158 282.767 115.894C282.491 115.629 282.271 115.311 282.12 114.96C281.97 114.608 281.893 114.229 281.893 113.847C281.893 113.465 281.97 113.086 282.12 112.734C282.271 112.383 282.491 112.065 282.767 111.8C283.043 111.536 283.37 111.33 283.728 111.195C284.087 111.059 284.468 110.998 284.851 111.014H295.375L304.767 67.6443C304.921 67.0031 305.293 66.4353 305.82 66.038C306.347 65.6406 306.996 65.4385 307.655 65.466C308.315 65.4936 308.944 65.7491 309.436 66.189C309.928 66.6289 310.251 67.2258 310.351 67.8776L319.616 123.486L327.505 95.9913C327.67 95.4122 328.017 94.9018 328.496 94.5361C328.974 94.1705 329.558 93.9693 330.161 93.9625H330.216C330.813 93.9627 331.394 94.1511 331.878 94.5008C332.361 94.8506 332.721 95.3438 332.907 95.9101L337.938 111.03H344.832C345.323 109.542 346.215 108.218 347.41 107.205C348.606 106.192 350.058 105.528 351.608 105.288C353.157 105.047 354.742 105.239 356.189 105.842C357.636 106.444 358.888 107.435 359.808 108.704C360.727 109.973 361.277 111.471 361.398 113.032C361.519 114.594 361.205 116.159 360.492 117.554C359.779 118.949 358.694 120.119 357.357 120.937C356.02 121.755 354.482 122.188 352.915 122.188L352.899 122.168Z" fill="#4397D2"/>
</g>
<defs>
<linearGradient id="paint0_linear_8_24" x1="180.899" y1="393.008" x2="180.899" y2="80.9124" gradientUnits="userSpaceOnUse">
<stop stop-color="#808080" stop-opacity="0.25"/>
<stop offset="0.54" stop-color="#808080" stop-opacity="0.12"/>
<stop offset="1" stop-color="#808080" stop-opacity="0.1"/>
</linearGradient>
<linearGradient id="paint1_linear_8_24" x1="453.571" y1="389.062" x2="453.571" y2="104.02" gradientUnits="userSpaceOnUse">
<stop stop-color="#808080" stop-opacity="0.25"/>
<stop offset="0.54" stop-color="#808080" stop-opacity="0.12"/>
<stop offset="1" stop-color="#808080" stop-opacity="0.1"/>
</linearGradient>
<clipPath id="clip0_8_24">
<rect width="561" height="397" fill="white"/>
</clipPath>
</defs>
</svg>
