<svg width="459" height="316" viewBox="0 0 459 316" fill="none" xmlns="http://www.w3.org/2000/svg">
<g clip-path="url(#clip0_19_298)">
<path d="M401.233 66.5017H401.169L364.048 82.3526L313.258 104.04C313.06 104.124 312.847 104.167 312.631 104.168C312.416 104.169 312.203 104.128 312.003 104.047L259.604 82.3073L221.57 66.5276L221.512 66.5017H221.448C220.848 66.5024 220.272 66.7411 219.848 67.1654C219.423 67.5897 219.185 68.1651 219.184 68.7652V167.065C219.185 167.665 219.423 168.241 219.848 168.665C220.272 169.09 220.848 169.328 221.448 169.329H401.233C401.834 169.328 402.409 169.09 402.833 168.665C403.258 168.241 403.496 167.665 403.497 167.065V68.7652C403.496 68.1651 403.258 67.5897 402.833 67.1654C402.409 66.7411 401.834 66.5024 401.233 66.5017Z" fill="white"/>
<path d="M401.395 67.1483C401.329 67.1483 401.264 67.1281 401.21 67.0904L311.783 4.81089C311.511 4.62224 311.188 4.52142 310.857 4.52198C310.525 4.52255 310.202 4.62447 309.931 4.81404L221.148 67.0897C221.078 67.1386 220.991 67.1577 220.907 67.1427C220.823 67.1278 220.748 67.08 220.699 67.01C220.65 66.9399 220.63 66.8532 220.645 66.7689C220.659 66.6846 220.707 66.6096 220.777 66.5602L309.56 4.2845C309.94 4.01914 310.392 3.8765 310.856 3.87574C311.319 3.87497 311.772 4.01613 312.153 4.28024L401.58 66.5595C401.636 66.5989 401.679 66.6553 401.701 66.7204C401.723 66.7856 401.724 66.8562 401.703 66.9219C401.683 66.9875 401.642 67.0449 401.586 67.0856C401.531 67.1264 401.464 67.1483 401.395 67.1483H401.395Z" fill="#3F3D56"/>
<path d="M226.221 69.3562L310.944 6.56592L396.31 73.8238L315.31 121.842L271.333 111.818L226.221 69.3562Z" fill="#E6E6E6"/>
<path d="M275.046 151.501H233.19C232.672 151.502 232.174 151.296 231.807 150.93C231.439 150.564 231.233 150.067 231.232 149.548C231.231 149.03 231.436 148.532 231.803 148.165C232.169 147.798 232.666 147.591 233.184 147.59H275.046C275.564 147.589 276.062 147.795 276.429 148.161C276.796 148.527 277.003 149.024 277.004 149.543C277.005 150.061 276.799 150.559 276.433 150.926C276.067 151.293 275.57 151.5 275.051 151.501H275.046Z" fill="#4397D2"/>
<path d="M248.207 143.094H233.19C232.672 143.094 232.175 142.889 231.808 142.523C231.441 142.156 231.234 141.66 231.233 141.141C231.233 140.623 231.438 140.125 231.803 139.758C232.169 139.391 232.666 139.184 233.184 139.183H248.207C248.464 139.182 248.718 139.232 248.956 139.33C249.194 139.428 249.409 139.572 249.591 139.753C249.773 139.934 249.918 140.15 250.017 140.387C250.115 140.624 250.166 140.879 250.167 141.135C250.167 141.392 250.117 141.647 250.019 141.884C249.921 142.122 249.777 142.338 249.596 142.519C249.414 142.701 249.199 142.846 248.961 142.944C248.724 143.043 248.47 143.094 248.213 143.094H248.207Z" fill="#4397D2"/>
<path d="M312.136 104.329C311.818 104.33 311.503 104.268 311.208 104.147L258.957 82.4668V14.6028C258.958 14.0027 259.196 13.4274 259.621 13.0031C260.045 12.5788 260.62 12.3401 261.22 12.3394H361.461C362.061 12.3401 362.636 12.5788 363.06 13.0031C363.485 13.4274 363.723 14.0027 363.724 14.6028V82.5142L363.626 82.5562L313.092 104.137C312.789 104.264 312.464 104.329 312.136 104.329Z" fill="white"/>
<path d="M312.136 104.491C311.797 104.491 311.461 104.425 311.147 104.297L258.795 82.5749V14.6029C258.796 13.9599 259.052 13.3435 259.506 12.8889C259.961 12.4342 260.577 12.1785 261.22 12.1777H361.461C362.104 12.1785 362.72 12.4342 363.175 12.8889C363.629 13.3435 363.885 13.9599 363.886 14.6029V82.621L313.155 104.286C312.833 104.421 312.486 104.491 312.136 104.491ZM259.442 82.1429L311.393 103.699C311.878 103.896 312.42 103.893 312.903 103.69L363.239 82.1941V14.6029C363.239 14.1314 363.051 13.6794 362.718 13.346C362.384 13.0126 361.932 12.825 361.461 12.8245H261.22C260.749 12.825 260.297 13.0126 259.963 13.346C259.63 13.6794 259.442 14.1314 259.442 14.6029L259.442 82.1429Z" fill="#3F3D56"/>
<path d="M400.748 66.5017H400.684L363.562 82.3526L312.773 104.04C312.575 104.124 312.362 104.167 312.146 104.168C311.931 104.169 311.718 104.128 311.518 104.047L259.119 82.3073L221.085 66.5276L221.027 66.5017H220.962C220.362 66.5024 219.787 66.7411 219.363 67.1654C218.938 67.5897 218.7 68.1651 218.699 68.7652V167.065C218.7 167.665 218.938 168.241 219.363 168.665C219.787 169.09 220.362 169.328 220.962 169.329H400.748C401.348 169.328 401.924 169.09 402.348 168.665C402.772 168.241 403.011 167.665 403.012 167.065V68.7652C403.011 68.1651 402.772 67.5897 402.348 67.1654C401.924 66.7411 401.348 66.5024 400.748 66.5017ZM402.365 167.065C402.365 167.494 402.195 167.905 401.891 168.208C401.588 168.512 401.177 168.682 400.748 168.682H220.962C220.534 168.682 220.123 168.512 219.819 168.208C219.516 167.905 219.346 167.494 219.346 167.065V68.7652C219.346 68.3471 219.508 67.9454 219.798 67.6441C220.088 67.3428 220.483 67.1652 220.901 67.1484L259.119 83.0058L311.269 104.645C311.834 104.874 312.466 104.871 313.028 104.635L363.562 83.0543L400.813 67.1484C401.23 67.1664 401.624 67.3445 401.913 67.6457C402.202 67.9468 402.364 68.3478 402.365 68.7652V167.065Z" fill="#3F3D56"/>
<path d="M304.001 37.7071H268.432C267.747 37.7062 267.09 37.4332 266.605 36.9482C266.121 36.4632 265.849 35.8057 265.849 35.1203C265.849 34.4349 266.121 33.7774 266.605 33.2924C267.09 32.8074 267.747 32.5344 268.432 32.5334H304.001C304.687 32.5344 305.344 32.8074 305.828 33.2924C306.312 33.7774 306.585 34.4349 306.585 35.1203C306.585 35.8057 306.312 36.4632 305.828 36.9482C305.344 37.4332 304.687 37.7062 304.001 37.7071Z" fill="#4397D2"/>
<path d="M285.57 26.713H268.432C267.746 26.713 267.088 26.4405 266.603 25.9553C266.118 25.4702 265.845 24.8122 265.845 24.1261C265.845 23.4401 266.118 22.7821 266.603 22.297C267.088 21.8118 267.746 21.5393 268.432 21.5393H285.57C286.256 21.5393 286.914 21.8118 287.399 22.297C287.884 22.7821 288.157 23.4401 288.157 24.1261C288.157 24.8122 287.884 25.4702 287.399 25.9553C286.914 26.4405 286.256 26.713 285.57 26.713Z" fill="#4397D2"/>
<path d="M337.943 63.5758H283.62C282.934 63.5748 282.277 63.3019 281.793 62.8168C281.309 62.3318 281.037 61.6744 281.037 60.9889C281.037 60.3035 281.309 59.6461 281.793 59.1611C282.277 58.676 282.934 58.4031 283.62 58.4021H337.943C338.629 58.4031 339.286 58.676 339.77 59.1611C340.255 59.6461 340.527 60.3035 340.527 60.9889C340.527 61.6744 340.255 62.3318 339.77 62.8168C339.286 63.3019 338.629 63.5748 337.943 63.5758Z" fill="#CCCCCC"/>
<path d="M337.944 75.5399H283.62C282.934 75.5399 282.276 75.2674 281.791 74.7822C281.305 74.2971 281.033 73.6391 281.033 72.9531C281.033 72.267 281.305 71.609 281.791 71.1239C282.276 70.6388 282.934 70.3662 283.62 70.3662H337.944C338.63 70.3662 339.288 70.6388 339.773 71.1239C340.258 71.609 340.53 72.267 340.53 72.9531C340.53 73.6391 340.258 74.2971 339.773 74.7822C339.288 75.2674 338.63 75.5399 337.944 75.5399Z" fill="#CCCCCC"/>
<path d="M399.746 92.0367C413.331 92.0367 424.343 81.024 424.343 67.4391C424.343 53.8543 413.331 42.8416 399.746 42.8416C386.161 42.8416 375.148 53.8543 375.148 67.4391C375.148 81.024 386.161 92.0367 399.746 92.0367Z" fill="#4397D2"/>
<path d="M397.402 77.8225L390.04 68.356L394.321 65.0261L397.807 69.5083L409.583 57.0769L413.521 60.8077L397.402 77.8225Z" fill="white"/>
<path d="M124.498 212.816C124.069 212.184 123.784 211.467 123.662 210.713C123.54 209.96 123.585 209.188 123.794 208.454C124.003 207.72 124.37 207.04 124.869 206.463C125.369 205.886 125.989 205.426 126.686 205.114L125.086 186.628L133.564 191.222L133.783 208.073C134.229 209.278 134.217 210.605 133.749 211.803C133.282 213 132.392 213.984 131.247 214.569C130.103 215.153 128.783 215.298 127.54 214.975C126.296 214.652 125.213 213.883 124.498 212.816H124.498Z" fill="#9F616A"/>
<path d="M126.104 201.121L126.035 200.947L116.683 177.319L115.199 132.532L115.448 132.515C117.274 132.384 119.108 132.62 120.842 133.208C122.576 133.796 124.175 134.725 125.545 135.94C126.915 137.155 128.028 138.631 128.82 140.282C129.611 141.933 130.065 143.726 130.154 145.555L131.525 169.634L135.414 200.604L126.104 201.121Z" fill="#E5E5E5"/>
<path d="M66.3601 299.869L71.7364 303.278L87.4421 284.162L79.507 279.131L66.3601 299.869Z" fill="#9F616A"/>
<path d="M66.1014 297.244L76.6897 303.957L76.6901 303.957C78.4795 305.092 79.745 306.891 80.2081 308.959C80.6712 311.026 80.2941 313.193 79.1596 314.983L79.0206 315.202L61.6846 304.211L66.1014 297.244Z" fill="#2F2E41"/>
<path d="M117.19 309.031L123.556 309.031L126.585 284.477L117.189 284.477L117.19 309.031Z" fill="#9F616A"/>
<path d="M115.567 306.953L128.103 306.952H128.104C130.223 306.953 132.255 307.794 133.753 309.293C135.251 310.791 136.093 312.823 136.093 314.942V315.201L115.567 315.202L115.567 306.953Z" fill="#2F2E41"/>
<path d="M99.1783 206.15L114.165 296.293C114.165 296.293 111.217 303.664 115.639 304.646C120.061 305.629 129.889 303.664 129.889 303.664C129.889 303.664 132.837 296.293 128.415 295.31L120.061 201.125L99.1783 206.15Z" fill="#2F2E41"/>
<path d="M108.023 207.758L97.6404 249.908L71.1703 288.342C71.1703 288.342 61.3429 289.325 66.748 294.73C72.153 300.135 74.6099 300.627 74.6099 300.627C74.6099 300.627 82.9631 299.644 82.4718 295.713L115.015 257.408L130.135 206.284L108.023 207.758Z" fill="#2F2E41"/>
<path d="M98.9624 211.47L96.455 197.161C92.6791 193.214 99.8137 183.457 100.609 182.397L100.142 176.329C99.7446 176.261 99.3807 176.063 99.1077 175.766C96.7654 173.377 96.9227 163.953 96.9306 163.553L94.3456 136.663L100.777 132.911L117.041 132.387L124.983 139.271L132.633 209.552L132.361 209.567L98.9624 211.47Z" fill="#E5E5E5"/>
<path d="M104.591 216.489C103.936 216.098 103.374 215.567 102.945 214.936C102.517 214.304 102.232 213.586 102.111 212.832C101.99 212.079 102.036 211.307 102.245 210.573C102.455 209.839 102.822 209.16 103.323 208.583L94.0667 192.501L103.691 193.087L111.005 208.269C111.918 209.173 112.468 210.381 112.549 211.664C112.631 212.946 112.24 214.214 111.449 215.228C110.659 216.241 109.524 216.929 108.26 217.161C106.996 217.394 105.69 217.154 104.591 216.489H104.591Z" fill="#9F616A"/>
<path d="M96.3943 201.451L88.4101 182.943L87.0757 145.135C87.03 143.893 87.3257 142.662 87.9305 141.576C88.5353 140.491 89.4262 139.591 90.5063 138.976L99.7172 133.347L101.704 173.093L107.648 196.847L96.3943 201.451Z" fill="#E5E5E5"/>
<path d="M110.724 128.801C117.035 128.801 122.152 123.685 122.152 117.373C122.152 111.062 117.035 105.946 110.724 105.946C104.412 105.946 99.296 111.062 99.296 117.373C99.296 123.685 104.412 128.801 110.724 128.801Z" fill="#9F616A"/>
<path d="M114.856 100.5C103.347 97.1807 100.08 106.72 100.08 106.72C94.5325 110.4 98.0057 115.015 98.0057 115.015C96.6059 115.326 99.4047 123.517 100.338 123.31C100.836 123.199 102.116 124.728 103.203 126.177C103.575 126.177 103.946 126.212 104.312 126.284L102.205 118.488C102.205 118.488 109.307 117.4 111.485 113.979C113.569 110.705 120.427 109.672 122.379 111.858C122.495 111.23 122.731 110.629 123.075 110.091C123.342 109.682 123.69 109.332 124.099 109.065C122.373 101.731 114.856 100.5 114.856 100.5Z" fill="#2F2E41"/>
<path opacity="0.2" d="M101.889 158.612L101.252 181.361L109.166 198.042L101.889 158.007" fill="black"/>
<path d="M198.353 315.425H0.519249C0.381536 315.425 0.249462 315.371 0.152084 315.273C0.0547061 315.176 0 315.044 0 314.906C0 314.768 0.0547061 314.636 0.152084 314.539C0.249462 314.441 0.381536 314.387 0.519249 314.387H198.353C198.491 314.387 198.623 314.441 198.72 314.539C198.818 314.636 198.873 314.768 198.873 314.906C198.873 315.044 198.818 315.176 198.72 315.273C198.623 315.371 198.491 315.425 198.353 315.425Z" fill="#3F3D56"/>
<path d="M171.008 24.5492C170.84 24.45 170.647 24.4 170.452 24.4051C170.257 24.4102 170.068 24.4702 169.905 24.5781C169.743 24.686 169.614 24.8375 169.534 25.0152C169.453 25.193 169.425 25.3897 169.451 25.583L170.253 31.4626C170.264 31.5493 170.258 31.6373 170.235 31.7217C170.21 31.8049 170.168 31.8819 170.112 31.9482L165.622 37.2672C165.472 37.4384 165.384 37.6551 165.372 37.8823C165.36 38.1096 165.425 38.3344 165.556 38.5204L165.561 38.5272C165.687 38.7152 165.872 38.8558 166.086 38.9266C166.301 38.9974 166.533 38.9942 166.746 38.9177L169.989 37.8171C170.096 37.7816 170.211 37.7759 170.322 37.8008C170.432 37.8256 170.534 37.8801 170.616 37.9582C170.677 38.0148 170.726 38.0834 170.759 38.1598C170.792 38.2361 170.809 38.3186 170.809 38.4018L170.936 49.9546C170.937 50.1218 170.979 50.2862 171.058 50.4336C171.137 50.5809 171.251 50.7068 171.39 50.8004C171.528 50.8937 171.686 50.9525 171.852 50.9718C172.018 50.9911 172.185 50.9703 172.341 50.9112L196.542 41.6558C196.724 41.5864 196.884 41.4669 197.001 41.311C197.119 41.1551 197.19 40.9692 197.207 40.7747C197.223 40.5802 197.185 40.3849 197.095 40.2113C197.006 40.0378 196.869 39.893 196.701 39.7936L196.372 39.5979L171.008 24.5492V24.5492ZM169.861 25.5265C169.845 25.4104 169.863 25.2924 169.911 25.1858C169.96 25.0792 170.037 24.9883 170.135 24.9237C170.232 24.8591 170.346 24.8233 170.463 24.8204C170.58 24.8174 170.696 24.8475 170.796 24.9072L196.152 39.9514L196.49 40.1515C196.59 40.2114 196.672 40.2983 196.725 40.4023C196.778 40.5063 196.801 40.6231 196.791 40.7395C196.781 40.856 196.739 40.9673 196.669 41.0608C196.599 41.1543 196.504 41.2262 196.395 41.2684L172.194 50.5238C172.101 50.5594 172 50.5719 171.9 50.5602C171.801 50.5485 171.706 50.5129 171.623 50.4566C171.54 50.4002 171.472 50.3247 171.425 50.2365C171.378 50.1482 171.352 50.0499 171.351 49.9497L171.224 38.3971C171.224 38.2828 171.205 38.1693 171.166 38.0616L195.805 40.8926C195.901 40.9046 195.998 40.8826 196.08 40.8305C196.161 40.7784 196.222 40.6994 196.252 40.6072C196.281 40.515 196.278 40.4154 196.242 40.3255C196.205 40.2357 196.139 40.1613 196.054 40.1153C196.033 40.1038 196.011 40.0943 195.989 40.087L170.67 31.6355C170.676 31.559 170.674 31.4821 170.662 31.4061L169.861 25.5265L169.861 25.5265Z" fill="#F1F1F1"/>
<path d="M171.008 24.5492C170.84 24.45 170.647 24.4 170.452 24.4051C170.257 24.4102 170.068 24.4702 169.905 24.5781C169.743 24.686 169.614 24.8375 169.534 25.0152C169.453 25.193 169.425 25.3897 169.451 25.583L170.253 31.4626C170.264 31.5493 170.258 31.6373 170.235 31.7217C170.21 31.8049 170.168 31.8819 170.112 31.9482L165.622 37.2672C165.472 37.4384 165.384 37.6551 165.372 37.8823C165.36 38.1096 165.425 38.3344 165.556 38.5204L165.561 38.5272C165.687 38.7152 165.872 38.8558 166.086 38.9266C166.301 38.9974 166.533 38.9942 166.746 38.9177L169.989 37.8171C170.096 37.7816 170.211 37.7759 170.322 37.8008C170.432 37.8256 170.534 37.8801 170.616 37.9582C170.677 38.0148 170.726 38.0834 170.759 38.1598C170.792 38.2361 170.809 38.3186 170.809 38.4018L170.936 49.9546C170.937 50.1218 170.979 50.2862 171.058 50.4336C171.137 50.5809 171.251 50.7068 171.39 50.8004C171.528 50.8937 171.686 50.9525 171.852 50.9718C172.018 50.9911 172.185 50.9703 172.341 50.9112L196.542 41.6558C196.724 41.5864 196.884 41.4669 197.001 41.311C197.119 41.1551 197.19 40.9692 197.207 40.7747C197.223 40.5802 197.185 40.3849 197.095 40.2113C197.006 40.0378 196.869 39.893 196.701 39.7936L196.372 39.5979L171.008 24.5492V24.5492ZM169.861 25.5265C169.845 25.4104 169.863 25.2924 169.911 25.1858C169.96 25.0792 170.037 24.9883 170.135 24.9237C170.232 24.8591 170.346 24.8233 170.463 24.8204C170.58 24.8174 170.696 24.8475 170.796 24.9072L196.152 39.9514L196.49 40.1515C196.59 40.2114 196.672 40.2983 196.725 40.4023C196.778 40.5063 196.801 40.6231 196.791 40.7395C196.781 40.856 196.739 40.9673 196.669 41.0608C196.599 41.1543 196.504 41.2262 196.395 41.2684L172.194 50.5238C172.101 50.5594 172 50.5718 171.9 50.5601C171.801 50.5484 171.706 50.5129 171.623 50.4566C171.54 50.4002 171.472 50.3247 171.425 50.2365C171.378 50.1482 171.352 50.0499 171.351 49.9497L171.224 38.3971C171.224 38.2827 171.205 38.1693 171.166 38.0616C171.112 37.9066 171.021 37.7672 170.9 37.6554C170.884 37.6391 170.866 37.6238 170.848 37.6086L170.847 37.6069C170.711 37.4947 170.548 37.419 170.375 37.3872C170.202 37.3553 170.023 37.3683 169.856 37.4249L166.612 38.5266C166.484 38.573 166.344 38.5748 166.215 38.5318C166.086 38.4888 165.975 38.4035 165.901 38.2897L165.899 38.2862C165.819 38.1751 165.78 38.0401 165.787 37.9036C165.794 37.767 165.848 37.637 165.939 37.5349L170.428 32.216C170.476 32.1603 170.518 32.0994 170.552 32.0344L170.554 32.0332C170.587 31.971 170.614 31.9054 170.633 31.8375C170.653 31.7717 170.665 31.704 170.67 31.6355C170.676 31.559 170.674 31.4821 170.662 31.4061L169.861 25.5265V25.5265Z" fill="#E5E5E5"/>
<path d="M170.67 31.6356L195.989 40.0871C196.011 40.0944 196.033 40.1039 196.054 40.1154C196.139 40.1614 196.205 40.2358 196.241 40.3256C196.278 40.4155 196.281 40.5151 196.252 40.6073C196.222 40.6995 196.161 40.7785 196.08 40.8306C195.998 40.8827 195.901 40.9047 195.805 40.8927L171.166 38.0617L170.731 38.0122L170.779 37.6007L170.847 37.607L170.848 37.6087L195.852 40.4795L170.554 32.0333L170.552 32.0344L170.443 31.9967L170.574 31.6033L170.67 31.6356Z" fill="#E5E5E5"/>
<path d="M453.363 0.144697L427.999 15.1934L427.67 15.3891C427.502 15.4884 427.365 15.6332 427.276 15.8068C427.186 15.9804 427.148 16.1756 427.164 16.3702C427.181 16.5647 427.252 16.7506 427.37 16.9065C427.487 17.0624 427.646 17.1819 427.829 17.2513L452.03 26.5067C452.185 26.5658 452.353 26.5866 452.519 26.5673C452.684 26.548 452.843 26.4892 452.981 26.3959C453.12 26.3023 453.233 26.1764 453.313 26.029C453.392 25.8817 453.434 25.7173 453.435 25.55L453.562 13.9973C453.562 13.914 453.579 13.8316 453.612 13.7553C453.645 13.6789 453.694 13.6103 453.755 13.5537C453.837 13.4755 453.939 13.4211 454.049 13.3962C454.16 13.3714 454.275 13.3771 454.382 13.4126L457.625 14.5132C457.837 14.5897 458.07 14.5928 458.284 14.5221C458.499 14.4513 458.684 14.3107 458.81 14.1227L458.815 14.1159C458.946 13.9298 459.011 13.7051 458.999 13.4778C458.987 13.2505 458.899 13.0338 458.749 12.8626L454.259 7.54365C454.203 7.4774 454.161 7.40033 454.136 7.31721C454.113 7.23278 454.107 7.14477 454.118 7.05808L454.92 1.17844C454.946 0.985188 454.917 0.78842 454.837 0.610688C454.757 0.432955 454.628 0.281457 454.465 0.173553C454.303 0.0656497 454.113 0.0057044 453.918 0.000599753C453.723 -0.0045049 453.531 0.0454353 453.363 0.14469V0.144697ZM454.51 1.12197L453.708 7.00159C453.697 7.07753 453.695 7.15448 453.701 7.23098L428.382 15.6825C428.359 15.6898 428.338 15.6992 428.317 15.7107C428.232 15.7568 428.165 15.8312 428.129 15.921C428.093 16.0108 428.09 16.1105 428.119 16.2027C428.149 16.2949 428.21 16.3739 428.291 16.426C428.373 16.4781 428.47 16.5 428.566 16.488L453.205 13.6571C453.166 13.7647 453.146 13.8782 453.147 13.9925L453.02 25.5452C453.019 25.6453 452.993 25.7437 452.946 25.8319C452.899 25.9202 452.831 25.9957 452.748 26.052C452.665 26.1084 452.57 26.1439 452.47 26.1556C452.371 26.1673 452.27 26.1548 452.177 26.1192L427.976 16.8638C427.867 16.8217 427.772 16.7497 427.702 16.6562C427.632 16.5627 427.59 16.4514 427.58 16.335C427.57 16.2186 427.593 16.1017 427.646 15.9978C427.699 15.8938 427.781 15.8069 427.881 15.7469L428.219 15.5468L453.574 0.50264C453.675 0.442972 453.791 0.412879 453.908 0.415803C454.025 0.418727 454.139 0.454552 454.236 0.519176C454.334 0.5838 454.411 0.674608 454.46 0.781209C454.508 0.88781 454.526 1.0059 454.51 1.12194V1.12197Z" fill="#F1F1F1"/>
<path d="M453.363 0.144697L427.999 15.1934L427.67 15.3891C427.502 15.4884 427.365 15.6332 427.276 15.8068C427.186 15.9804 427.148 16.1756 427.164 16.3702C427.181 16.5647 427.252 16.7506 427.37 16.9065C427.487 17.0624 427.646 17.1819 427.829 17.2513L452.03 26.5067C452.185 26.5658 452.353 26.5866 452.519 26.5673C452.684 26.548 452.843 26.4892 452.981 26.3959C453.12 26.3023 453.233 26.1764 453.313 26.029C453.392 25.8817 453.434 25.7173 453.435 25.55L453.562 13.9973C453.562 13.914 453.579 13.8316 453.612 13.7553C453.645 13.6789 453.694 13.6103 453.755 13.5537C453.837 13.4755 453.939 13.4211 454.049 13.3962C454.16 13.3714 454.275 13.3771 454.382 13.4126L457.625 14.5132C457.837 14.5897 458.07 14.5928 458.284 14.5221C458.499 14.4513 458.684 14.3107 458.81 14.1227L458.815 14.1159C458.946 13.9298 459.011 13.7051 458.999 13.4778C458.987 13.2505 458.899 13.0338 458.749 12.8626L454.259 7.54365C454.203 7.4774 454.161 7.40033 454.136 7.31721C454.113 7.23278 454.107 7.14477 454.118 7.05808L454.92 1.17844C454.946 0.985188 454.917 0.78842 454.837 0.610688C454.757 0.432955 454.628 0.281457 454.465 0.173553C454.303 0.0656497 454.113 0.0057044 453.918 0.000599753C453.723 -0.0045049 453.531 0.0454353 453.363 0.14469V0.144697ZM454.51 1.12197L453.708 7.0016C453.697 7.07754 453.695 7.15449 453.701 7.23098C453.706 7.29943 453.718 7.36715 453.738 7.43298C453.757 7.50082 453.783 7.56641 453.817 7.62865L453.818 7.62983C453.853 7.69482 453.894 7.75575 453.942 7.81145L458.432 13.1304C458.523 13.2325 458.577 13.3625 458.584 13.499C458.591 13.6356 458.552 13.7705 458.472 13.8817L458.47 13.8851C458.395 13.9989 458.285 14.0843 458.156 14.1273C458.027 14.1703 457.887 14.1684 457.759 14.122L454.515 13.0203C454.348 12.9637 454.169 12.9508 453.996 12.9826C453.822 13.0145 453.66 13.0901 453.524 13.2024L453.523 13.204C453.505 13.2193 453.487 13.2345 453.47 13.2509C453.35 13.3626 453.259 13.5021 453.205 13.6571C453.166 13.7647 453.146 13.8782 453.147 13.9925L453.02 25.5452C453.019 25.6453 452.993 25.7437 452.946 25.8319C452.899 25.9201 452.831 25.9956 452.748 26.052C452.665 26.1083 452.57 26.1439 452.47 26.1556C452.371 26.1673 452.27 26.1548 452.177 26.1192L427.976 16.8638C427.867 16.8217 427.772 16.7497 427.702 16.6562C427.632 16.5627 427.59 16.4514 427.58 16.335C427.57 16.2186 427.593 16.1017 427.646 15.9978C427.699 15.8938 427.781 15.8069 427.881 15.7469L428.219 15.5468L453.574 0.502648C453.675 0.442979 453.791 0.412887 453.908 0.415811C454.025 0.418735 454.139 0.45456 454.236 0.519184C454.334 0.583808 454.411 0.674616 454.46 0.781217C454.508 0.887818 454.526 1.00591 454.51 1.12195V1.12197Z" fill="#E5E5E5"/>
<path d="M453.796 7.19849L453.928 7.59191L453.818 7.62966L453.817 7.62849L428.519 16.0747L453.523 13.2039L453.524 13.2022L453.592 13.1959L453.64 13.6074L453.205 13.6569L428.566 16.4879C428.47 16.4999 428.373 16.4779 428.291 16.4258C428.21 16.3737 428.149 16.2947 428.119 16.2025C428.09 16.1103 428.093 16.0107 428.129 15.9209C428.166 15.831 428.232 15.7567 428.317 15.7106C428.338 15.6991 428.359 15.6896 428.382 15.6824L453.701 7.23084L453.796 7.19849Z" fill="#E5E5E5"/>
<path d="M236.324 210.411C236.15 210.5 236.005 210.636 235.905 210.803C235.806 210.971 235.755 211.163 235.759 211.358C235.764 211.553 235.823 211.743 235.93 211.906C236.037 212.069 236.188 212.198 236.366 212.279L241.764 214.744C241.843 214.781 241.914 214.833 241.974 214.897C242.03 214.963 242.073 215.039 242.099 215.122L244.195 221.76C244.26 221.978 244.396 222.168 244.582 222.3C244.767 222.431 244.992 222.497 245.219 222.485L245.228 222.485C245.454 222.479 245.671 222.398 245.846 222.254C246.021 222.11 246.142 221.912 246.191 221.692L246.994 218.363C247.021 218.253 247.078 218.153 247.158 218.073C247.238 217.993 247.338 217.936 247.448 217.908C247.529 217.887 247.613 217.882 247.695 217.895C247.777 217.908 247.856 217.937 247.926 217.982L257.759 224.049C257.901 224.137 258.062 224.19 258.229 224.201C258.396 224.213 258.563 224.184 258.716 224.117C258.869 224.05 259.003 223.948 259.108 223.818C259.213 223.689 259.285 223.536 259.318 223.372L264.429 197.971C264.468 197.78 264.452 197.581 264.383 197.399C264.314 197.216 264.195 197.056 264.039 196.938C263.884 196.82 263.698 196.749 263.504 196.732C263.309 196.714 263.114 196.752 262.94 196.841L262.599 197.015L236.324 210.411ZM236.537 211.903C236.431 211.854 236.34 211.776 236.276 211.678C236.212 211.58 236.176 211.466 236.174 211.349C236.172 211.232 236.202 211.117 236.262 211.016C236.322 210.916 236.409 210.834 236.514 210.781L262.78 197.39L263.13 197.211C263.234 197.159 263.351 197.136 263.467 197.147C263.583 197.157 263.695 197.2 263.788 197.271C263.881 197.341 263.952 197.437 263.994 197.546C264.035 197.655 264.045 197.774 264.023 197.888L258.912 223.289C258.892 223.388 258.849 223.479 258.786 223.557C258.723 223.635 258.642 223.697 258.55 223.736C258.458 223.776 258.358 223.793 258.258 223.786C258.158 223.779 258.062 223.748 257.976 223.695L248.144 217.629C248.048 217.567 247.941 217.523 247.83 217.498L263.39 198.186C263.451 198.112 263.485 198.018 263.484 197.921C263.484 197.824 263.45 197.73 263.387 197.656C263.325 197.582 263.239 197.532 263.144 197.514C263.049 197.497 262.95 197.513 262.866 197.56C262.845 197.572 262.826 197.585 262.807 197.6L242.133 214.484C242.072 214.437 242.005 214.398 241.935 214.367L236.537 211.903Z" fill="#F1F1F1"/>
<path d="M236.324 210.411C236.15 210.5 236.005 210.636 235.905 210.803C235.806 210.971 235.755 211.163 235.759 211.358C235.764 211.553 235.823 211.743 235.93 211.906C236.037 212.069 236.188 212.198 236.366 212.279L241.764 214.744C241.843 214.781 241.914 214.833 241.974 214.897C242.03 214.963 242.073 215.039 242.099 215.122L244.195 221.76C244.26 221.978 244.396 222.168 244.582 222.3C244.767 222.431 244.992 222.497 245.219 222.485L245.228 222.485C245.454 222.479 245.671 222.398 245.846 222.254C246.021 222.11 246.142 221.912 246.191 221.692L246.994 218.363C247.021 218.253 247.078 218.153 247.158 218.073C247.238 217.993 247.338 217.936 247.448 217.908C247.529 217.887 247.613 217.882 247.695 217.895C247.777 217.908 247.856 217.937 247.926 217.982L257.759 224.049C257.901 224.137 258.062 224.19 258.229 224.201C258.396 224.213 258.563 224.184 258.716 224.117C258.869 224.05 259.003 223.948 259.108 223.818C259.213 223.689 259.285 223.536 259.318 223.372L264.429 197.971C264.468 197.78 264.452 197.581 264.383 197.399C264.314 197.216 264.195 197.056 264.039 196.938C263.884 196.82 263.698 196.749 263.504 196.732C263.309 196.714 263.114 196.752 262.94 196.841L262.599 197.015L236.324 210.411ZM236.537 211.903C236.431 211.854 236.34 211.776 236.276 211.678C236.212 211.58 236.176 211.466 236.174 211.349C236.172 211.232 236.202 211.117 236.262 211.016C236.322 210.916 236.409 210.834 236.514 210.781L262.78 197.39L263.13 197.211C263.234 197.159 263.351 197.136 263.467 197.147C263.583 197.157 263.695 197.2 263.788 197.271C263.881 197.341 263.952 197.437 263.994 197.546C264.035 197.655 264.045 197.774 264.023 197.888L258.912 223.289C258.892 223.388 258.849 223.479 258.786 223.557C258.723 223.635 258.642 223.697 258.55 223.736C258.458 223.776 258.358 223.793 258.258 223.786C258.158 223.779 258.062 223.748 257.976 223.695L248.144 217.628C248.048 217.567 247.941 217.523 247.83 217.498C247.67 217.461 247.503 217.464 247.344 217.506C247.322 217.511 247.299 217.518 247.277 217.525L247.275 217.525C247.107 217.58 246.956 217.677 246.837 217.807C246.717 217.936 246.633 218.094 246.591 218.265L245.789 221.596C245.76 221.729 245.686 221.848 245.581 221.934C245.476 222.02 245.344 222.068 245.208 222.071L245.204 222.071C245.068 222.079 244.933 222.04 244.821 221.961C244.71 221.881 244.628 221.767 244.591 221.635L242.495 214.998C242.473 214.927 242.444 214.86 242.407 214.796L242.407 214.794C242.372 214.733 242.331 214.675 242.284 214.623C242.239 214.571 242.188 214.524 242.133 214.484C242.072 214.437 242.005 214.398 241.935 214.367L236.537 211.903Z" fill="#E5E5E5"/>
<path d="M242.133 214.484L262.807 197.6C262.826 197.585 262.845 197.572 262.866 197.561C262.95 197.513 263.049 197.497 263.144 197.514C263.239 197.532 263.325 197.582 263.387 197.656C263.45 197.731 263.484 197.824 263.484 197.921C263.485 198.018 263.451 198.112 263.39 198.187L247.83 217.499L247.555 217.84L247.233 217.579L247.275 217.526L247.277 217.526L263.066 197.926L242.407 214.794L242.407 214.796L242.317 214.868L242.055 214.547L242.133 214.484Z" fill="#E5E5E5"/>
</g>
<defs>
<clipPath id="clip0_19_298">
<rect width="459" height="315.425" fill="white"/>
</clipPath>
</defs>
</svg>
