<svg width="561" height="398" viewBox="0 0 561 398" fill="none" xmlns="http://www.w3.org/2000/svg">
<g clip-path="url(#clip0_16_176)">
<path opacity="0.1" d="M36.7174 156.104H85.4753V219.749H40.2824C40.1671 220.407 40.0518 221.06 39.9221 221.718H85.4753V273.037C85.3984 273.037 85.3216 272.981 85.2495 272.954C83.9683 272.466 82.687 271.949 81.4058 271.403C81.1319 271.284 80.8628 271.16 80.5841 271.044C79.3029 270.465 78.0216 269.851 76.7404 269.204C76.2936 268.979 75.8467 268.744 75.4095 268.505C68.2965 264.704 61.8317 259.885 56.2388 254.214C56.0706 254.062 55.9169 253.897 55.7583 253.754C54.98 252.944 54.216 252.125 53.4761 251.288C53.1974 250.98 52.9284 250.667 52.6545 250.368C51.7801 249.347 50.9344 248.288 50.1176 247.225C49.9927 247.064 49.8774 246.908 49.7573 246.765C46.4113 242.332 43.6365 237.527 41.4932 232.457C41.426 232.305 41.3635 232.139 41.301 231.996C40.638 230.386 40.0374 228.753 39.5185 227.087C39.2975 226.393 39.0813 225.707 38.8987 224.985C38.8314 224.778 38.7786 224.566 38.7209 224.359C36.0207 214.168 35.7084 203.577 35.7084 193.036C35.7084 191.809 35.7084 190.582 35.7084 189.355C35.7468 185.052 35.7997 180.753 35.8669 176.459C35.8926 175.354 35.9166 174.246 35.939 173.132C36.0063 170.313 36.1024 167.488 36.2273 164.657C36.2561 163.875 36.2945 163.088 36.3378 162.311C36.357 161.86 36.381 161.409 36.4099 160.958C36.4963 159.329 36.5988 157.711 36.7174 156.104Z" fill="#4397D2"/>
<path opacity="0.1" d="M85.4754 85.2407H58.7277C63.0776 78.7281 67.8282 72.469 72.9543 66.4965C76.9326 61.822 81.1223 57.2671 85.4754 52.8778V85.2407Z" fill="#4397D2"/>
<path opacity="0.1" d="M85.4754 87.2007V154.135H36.8712C36.8712 153.942 36.9 153.744 36.9193 153.551C36.9625 153.022 37.0057 152.497 37.0538 151.968C37.1018 151.351 37.1643 150.735 37.2268 150.128C37.2892 149.52 37.3517 148.784 37.4286 148.117C37.5054 147.45 37.5679 146.773 37.6448 146.106C37.7216 145.439 37.7985 144.772 37.885 144.11C37.9715 143.447 38.0484 142.775 38.1445 142.113C38.2165 141.565 38.2886 141.013 38.3703 140.461C38.4808 139.683 38.5961 138.906 38.7162 138.133C38.7162 138.013 38.7547 137.898 38.7739 137.783C39.652 132.125 40.8453 126.517 42.3486 120.981C43.9272 115.174 45.9425 109.485 48.3784 103.957C50.9669 98.1654 53.9989 92.5646 57.4497 87.2007H85.4754Z" fill="#4397D2"/>
<path opacity="0.1" d="M97.1219 156.104V219.749H201.268V156.104H97.1219ZM97.1219 221.718V276.377C97.7177 276.492 98.3039 276.607 98.8949 276.704C99.6877 276.851 100.485 276.984 101.297 277.099L101.778 277.164C102.095 277.214 102.417 277.256 102.739 277.292C103.541 277.403 104.343 277.486 105.141 277.559C105.516 277.596 105.905 277.624 106.284 277.656L107.212 277.72C107.716 277.757 108.216 277.785 108.716 277.803C109.023 277.803 109.331 277.826 109.643 277.835C109.955 277.845 110.123 277.835 110.373 277.835H111.281C111.695 277.835 112.108 277.835 112.516 277.835H113.045C113.458 277.835 113.871 277.835 114.279 277.799H114.304C114.592 277.799 114.875 277.799 115.164 277.766C115.245 277.771 115.327 277.771 115.409 277.766C115.649 277.766 115.889 277.766 116.12 277.739C116.174 277.735 116.229 277.735 116.283 277.739C116.816 277.707 117.354 277.665 117.897 277.619C118.44 277.573 118.954 277.518 119.497 277.463L120.588 277.334C125.045 276.736 129.452 275.839 133.777 274.647C143.497 272.052 152.996 268.422 162.711 265.767C175.261 262.339 189.137 260.651 201.264 264.824V221.718H97.1219ZM201.268 85.2407V0.51009C189.867 0.389973 178.497 1.66556 167.434 4.30585C141.061 10.6505 117.379 24.4119 97.1219 41.9874V85.2361H102.364V87.2007H97.1219V154.135H201.268V87.2007H123.807V85.2315L201.268 85.2407ZM335.069 56.6184C328.545 56.3975 322.058 54.4237 316.187 51.3641C304.973 45.5255 296.007 36.4985 285.994 28.8886C265.19 13.0292 239.389 3.45468 212.92 1.0806V85.2407H361.582L361.952 84.868L335.069 56.6184ZM348.614 54.3179L362.975 69.4135V50.3473C358.141 50.9316 353.932 52.2889 348.614 54.2995V54.3179ZM362.975 289.95V221.718H332.35C332.273 221.428 332.186 221.134 332.09 220.839C332.182 221.134 332.263 221.428 332.345 221.718H212.92V271.058C214.054 271.863 215.173 272.715 216.283 273.57C217.481 274.509 218.671 275.458 219.853 276.418L221.044 277.362C221.616 277.822 222.198 278.282 222.774 278.719C223.93 279.611 225.095 280.495 226.267 281.369C226.853 281.811 227.443 282.245 228.035 282.671C237.42 289.539 247.318 295.738 257.651 301.217C259.967 302.455 262.307 303.647 264.661 304.811C266.228 305.584 267.805 306.341 269.394 307.083C271.777 308.197 274.179 309.27 276.601 310.304C298.926 319.901 322.534 326.485 346.749 329.867C352.124 330.625 357.523 331.223 362.946 331.662V289.94H363.427L362.975 289.95ZM212.92 87.2007V154.135H362.975V87.2007H212.92ZM212.92 156.095V219.749H362.975V156.104L212.92 156.095ZM374.621 50.2553V71.5576L392.947 52.2935C386.873 51.3334 380.765 50.654 374.621 50.2553ZM374.621 156.104V219.749H520.564V156.104H374.621ZM520.05 294.997L520.564 221.718H374.621V332.402C384.022 332.777 393.437 332.668 402.825 332.076H402.988C407.473 331.8 411.936 331.407 416.379 330.898H416.48C440.189 328.255 463.37 322.325 485.297 313.295L520.05 294.997ZM548.719 166.557C548.165 165.331 547.597 164.104 547.014 162.877C545.928 160.576 544.784 158.34 543.602 156.109H532.215V219.749H561C560.976 201.722 556.21 183.319 548.719 166.557ZM532.215 221.718V284.751C540.321 277.311 547.177 268.795 552.107 259.059C558.04 247.331 560.755 234.642 560.981 221.713L532.215 221.718ZM532.215 137.558V154.121H542.536C539.407 148.427 535.962 142.898 532.215 137.558ZM433.239 62.7468C432.48 62.4661 431.716 62.1855 430.952 61.9186C422.897 59.068 414.665 56.6985 406.304 54.824L378.254 84.2975L377.706 84.8634L378.066 85.2361H477.898C463.993 76.0739 449.002 68.5246 433.239 62.7468ZM480.829 87.2007H376.668L374.621 88.9905V154.135H392.567H520.564V122.573C508.99 109.17 495.631 97.2779 480.829 87.2007Z" fill="#4397D2"/>
<path opacity="0.1" d="M85.4754 120.967V154.135H36.8712C36.8712 153.942 36.9 153.744 36.9193 153.551C36.9625 153.022 37.0057 152.497 37.0538 151.968C37.1018 151.351 37.1643 150.735 37.2268 150.128C37.2892 149.52 37.3517 148.784 37.4286 148.117C37.5054 147.45 37.5679 146.773 37.6448 146.106C37.7216 145.439 37.7985 144.772 37.885 144.11C37.9715 143.447 38.0484 142.775 38.1445 142.113C38.2165 141.565 38.2886 141.013 38.3703 140.461C38.4808 139.683 38.5961 138.906 38.7162 138.133C38.7162 138.013 38.7547 137.898 38.7739 137.783C39.652 132.125 40.8453 126.517 42.3486 120.981L85.4754 120.967Z" fill="#4397D2"/>
<path opacity="0.1" d="M36.7174 156.104H85.4753V219.749H40.2824C40.1671 220.407 40.0518 221.06 39.9221 221.718H85.4753V273.037C85.3984 273.037 85.3216 272.981 85.2495 272.954C83.9683 272.466 82.687 271.949 81.4058 271.403C81.1319 271.284 80.8628 271.16 80.5841 271.044C79.3029 270.465 78.0216 269.851 76.7404 269.204C76.2936 268.979 75.8467 268.744 75.4095 268.505C68.2965 264.704 61.8317 259.885 56.2388 254.214C56.0706 254.062 55.9169 253.897 55.7583 253.754C54.98 252.944 54.216 252.125 53.4761 251.288C53.1974 250.98 52.9284 250.667 52.6545 250.368C51.7801 249.347 50.9344 248.288 50.1176 247.225C49.9927 247.064 49.8774 246.908 49.7573 246.765C46.4113 242.332 43.6365 237.527 41.4932 232.457C41.426 232.305 41.3635 232.139 41.301 231.996C40.638 230.386 40.0374 228.753 39.5185 227.087C39.2975 226.393 39.0813 225.707 38.8987 224.985C38.8314 224.778 38.7786 224.566 38.7209 224.359C36.0207 214.168 35.7084 203.577 35.7084 193.036C35.7084 191.809 35.7084 190.582 35.7084 189.355C35.7468 185.052 35.7997 180.753 35.8669 176.459C35.8926 175.354 35.9166 174.246 35.939 173.132C36.0063 170.313 36.1024 167.488 36.2273 164.657C36.2561 163.875 36.2945 163.088 36.3378 162.311C36.357 161.86 36.381 161.409 36.4099 160.958C36.4963 159.329 36.5988 157.711 36.7174 156.104Z" fill="#4397D2"/>
<path opacity="0.1" d="M133.782 96.789V154.135H97.1172V96.789H102.345V77.3731H123.802V96.789H133.782Z" fill="#4397D2"/>
<path opacity="0.1" d="M133.777 156.1H97.1172V219.744H133.777V156.1Z" fill="#4397D2"/>
<path opacity="0.1" d="M97.1219 221.718H133.782V274.629C129.457 275.821 125.05 276.717 120.593 277.311C120.228 277.362 119.867 277.403 119.502 277.44C118.964 277.5 118.431 277.555 117.897 277.601L116.288 277.725H116.124L115.413 277.762H115.168C114.88 277.762 114.597 277.794 114.308 277.799H114.284C113.871 277.799 113.463 277.826 113.049 277.835H112.521C112.113 277.835 111.704 277.835 111.286 277.835H110.383H109.648C109.335 277.835 109.028 277.835 108.716 277.799C108.222 277.78 107.723 277.753 107.217 277.716L106.289 277.651C105.905 277.624 105.521 277.587 105.141 277.55C104.334 277.483 103.533 277.395 102.739 277.288L101.778 277.159L101.297 277.095C100.495 276.98 99.6973 276.851 98.8949 276.704C98.2991 276.602 97.7129 276.487 97.1219 276.368V221.718Z" fill="#4397D2"/>
<path opacity="0.1" d="M362.97 90.0165H332.739V154.13H362.97V90.0165Z" fill="#4397D2"/>
<path opacity="0.1" d="M362.975 156.1V219.749H212.92V192.295H292.846V208.49H332.739V156.1H362.975Z" fill="#4397D2"/>
<path opacity="0.1" d="M363.451 289.963C363.292 289.963 363.133 289.963 362.97 289.936V331.689C357.554 331.263 352.156 330.666 346.778 329.899C322.555 326.518 298.938 319.937 276.601 310.346C270.153 307.56 263.837 304.525 257.651 301.24C247.322 295.758 237.425 289.559 228.04 282.694C225.676 280.964 223.347 279.196 221.054 277.389C219.464 276.128 217.888 274.84 216.283 273.593C215.178 272.733 214.058 271.882 212.92 271.072V221.718H332.345C332.258 221.423 332.182 221.134 332.095 220.839C332.186 221.134 332.273 221.423 332.35 221.718H362.975V289.931C363.133 289.936 363.292 289.95 363.451 289.963Z" fill="#4397D2"/>
<path opacity="0.1" d="M441.82 85.2407H422.121V79.3791H430.947V61.9186C431.712 62.1886 432.475 62.4646 433.234 62.7468V79.3791H441.815L441.82 85.2407Z" fill="#4397D2"/>
<path opacity="0.1" d="M489.285 154.135H392.567C392.576 154.137 392.586 154.137 392.596 154.135H392.552H374.621V90.0211H379.705V137.411H402.931V109.345H422.125V87.2007H441.824V109.359H461.01V137.424H489.29L489.285 154.135Z" fill="#4397D2"/>
<path opacity="0.1" d="M374.621 156.104V219.749H489.29V156.104H374.621ZM520.4 294.661L520.564 244.281H489.29V221.736H374.621V332.402C384.022 332.777 393.437 332.668 402.825 332.076H402.988C407.473 331.8 411.936 331.407 416.379 330.898H416.48C440.189 328.255 463.37 322.325 485.297 313.295" fill="#4397D2"/>
<path opacity="0.1" d="M534.233 221.718H560.981C560.75 234.642 558.04 247.336 552.107 259.059C547.177 268.799 540.321 277.316 532.215 284.755V244.267H534.233V221.718Z" fill="#4397D2"/>
<path opacity="0.1" d="M561 219.749H534.233V166.557H548.719C556.21 183.319 560.976 201.722 561 219.749Z" fill="#4397D2"/>
<path opacity="0.1" d="M362.975 107.84H346.778V127.942H362.975V107.84Z" fill="#4397D2"/>
<path opacity="0.1" d="M362.975 149.506H346.778V154.135H362.975V149.506Z" fill="#4397D2"/>
<path opacity="0.1" d="M362.975 156.1H346.778V169.603H362.975V156.1Z" fill="#4397D2"/>
<path opacity="0.1" d="M362.975 191.172H346.778V211.274H362.975V191.172Z" fill="#4397D2"/>
<path opacity="0.1" d="M362.975 232.838H346.778V252.94H362.975V232.838Z" fill="#4397D2"/>
<path opacity="0.1" d="M362.975 289.931C363.133 289.931 363.292 289.931 363.455 289.963C363.297 289.963 363.138 289.963 362.975 289.936V294.606H346.778V274.504H362.975V289.931Z" fill="#4397D2"/>
<path opacity="0.1" d="M362.975 316.166V331.689C357.555 331.263 352.156 330.666 346.778 329.899V316.166H362.975Z" fill="#4397D2"/>
<path opacity="0.1" d="M282.333 218.272H212.92V219.749H282.333V218.272Z" fill="#4397D2"/>
<path opacity="0.1" d="M282.333 221.713H212.92V227.372H282.333V221.713Z" fill="#4397D2"/>
<path opacity="0.1" d="M282.333 245.923H212.92V255.024H282.333V245.923Z" fill="#4397D2"/>
<path opacity="0.1" d="M282.333 273.575V282.676H228.04C225.676 280.952 223.347 279.182 221.054 277.366C219.459 276.11 217.883 274.822 216.283 273.575H282.333Z" fill="#4397D2"/>
<path opacity="0.1" d="M282.333 301.222V310.346H276.601C270.153 307.56 263.837 304.525 257.651 301.24L282.333 301.222Z" fill="#4397D2"/>
<path opacity="0.1" d="M416.489 162.269H402.825V175.354H416.489V162.269Z" fill="#4397D2"/>
<path opacity="0.1" d="M120.626 101.303H106.962V114.388H120.626V101.303Z" fill="#4397D2"/>
<path opacity="0.1" d="M120.626 131.696H106.962V144.781H120.626V131.696Z" fill="#4397D2"/>
<path opacity="0.1" d="M120.626 162.09H106.962V175.175H120.626V162.09Z" fill="#4397D2"/>
<path opacity="0.1" d="M120.626 192.479H106.962V205.564H120.626V192.479Z" fill="#4397D2"/>
<path opacity="0.1" d="M120.626 222.873H106.962V235.958H120.626V222.873Z" fill="#4397D2"/>
<path opacity="0.1" d="M120.626 253.266H106.962V266.352H120.626V253.266Z" fill="#4397D2"/>
<path opacity="0.1" d="M468.654 162.269H454.989V175.354H468.654V162.269Z" fill="#4397D2"/>
<path opacity="0.1" d="M416.489 194.545H402.825V207.63H416.489V194.545Z" fill="#4397D2"/>
<path opacity="0.1" d="M468.654 194.545H454.989V207.63H468.654V194.545Z" fill="#4397D2"/>
<path opacity="0.1" d="M416.489 226.816H402.825V239.901H416.489V226.816Z" fill="#4397D2"/>
<path opacity="0.1" d="M468.654 226.816H454.989V239.901H468.654V226.816Z" fill="#4397D2"/>
<path opacity="0.1" d="M416.489 259.091H402.825V272.176H416.489V259.091Z" fill="#4397D2"/>
<path opacity="0.1" d="M468.654 259.091H454.989V272.176H468.654V259.091Z" fill="#4397D2"/>
<path opacity="0.1" d="M416.489 291.367H402.825V304.452H416.489V291.367Z" fill="#4397D2"/>
<path opacity="0.1" d="M468.654 291.367H454.989V304.452H468.654V291.367Z" fill="#4397D2"/>
<path opacity="0.1" d="M402.825 332.076V323.638H416.485V330.875L402.825 332.076Z" fill="#4397D2"/>
<path opacity="0.1" d="M38.7162 137.769V145.255H85.4754V137.769H38.7162ZM43.3719 144.786H39.5282V138.243H43.3719V144.786ZM48.0277 144.786H44.1839V138.243H48.0277V144.786ZM52.6738 144.786H48.8301V138.243H52.6738V144.786ZM57.3295 144.786H53.4858V138.243H57.3295V144.786ZM61.9805 144.786H58.1367V138.243H61.9805V144.786ZM66.6362 144.786H62.7925V138.243H66.6362V144.786ZM71.292 144.786H67.4482V138.243H71.292V144.786ZM75.9429 144.786H72.0991V138.243H75.9429V144.786ZM80.5938 144.786H76.7501V138.243H80.5938V144.786ZM85.2496 144.786H81.4058V138.243H85.2496V144.786Z" fill="#4397D2"/>
<path opacity="0.1" d="M38.7162 159.559V167.045H85.4754V159.559H38.7162ZM43.3719 166.576H39.5282V160.033H43.3719V166.576ZM48.0277 166.576H44.1839V160.033H48.0277V166.576ZM52.6738 166.576H48.8301V160.033H52.6738V166.576ZM57.3295 166.576H53.4858V160.033H57.3295V166.576ZM61.9805 166.576H58.1367V160.033H61.9805V166.576ZM66.6362 166.576H62.7925V160.033H66.6362V166.576ZM71.292 166.576H67.4482V160.033H71.292V166.576ZM75.9429 166.576H72.0991V160.033H75.9429V166.576ZM80.5938 166.576H76.7501V160.033H80.5938V166.576ZM85.2496 166.576H81.4058V160.033H85.2496V166.576Z" fill="#4397D2"/>
<path opacity="0.1" d="M38.7162 181.354V188.835H85.4754V181.354H38.7162ZM43.3719 188.361H39.5282V181.819H43.3719V188.361ZM48.0277 188.361H44.1839V181.819H48.0277V188.361ZM52.6738 188.361H48.8301V181.819H52.6738V188.361ZM57.3295 188.361H53.4858V181.819H57.3295V188.361ZM61.9805 188.361H58.1367V181.819H61.9805V188.361ZM66.6362 188.361H62.7925V181.819H66.6362V188.361ZM71.292 188.361H67.4482V181.819H71.292V188.361ZM75.9429 188.361H72.0991V181.819H75.9429V188.361ZM80.5938 188.361H76.7501V181.819H80.5938V188.361ZM85.2496 188.361H81.4058V181.819H85.2496V188.361Z" fill="#4397D2"/>
<path opacity="0.1" d="M38.7162 203.144V210.625H85.4754V203.144H38.7162ZM43.3719 210.156H39.5282V203.604H43.3719V210.156ZM48.0277 210.156H44.1839V203.604H48.0277V210.156ZM52.6738 210.156H48.8301V203.604H52.6738V210.156ZM57.3295 210.156H53.4858V203.604H57.3295V210.156ZM61.9805 210.156H58.1367V203.604H61.9805V210.156ZM66.6362 210.156H62.7925V203.604H66.6362V210.156ZM71.292 210.156H67.4482V203.604H71.292V210.156ZM75.9429 210.156H72.0991V203.604H75.9429V210.156ZM80.5938 210.156H76.7501V203.604H80.5938V210.156ZM85.2496 210.156H81.4058V203.604H85.2496V210.156Z" fill="#4397D2"/>
<path opacity="0.1" d="M38.942 224.925C39.1246 225.633 39.3408 226.333 39.5618 227.027V225.399H43.4056V231.937H41.3444C41.402 232.093 41.4645 232.254 41.5317 232.397H85.4946V224.925H38.942ZM48.0709 231.937H44.2272V225.399H48.0709V231.937ZM52.7171 231.937H48.8733V225.399H52.7171V231.937ZM57.3728 231.937H53.529V225.399H57.3728V231.937ZM62.0237 231.937H58.18V225.399H62.0237V231.937ZM66.6795 231.937H62.8357V225.399H66.6795V231.937ZM71.3352 231.937H67.4915V225.399H71.3352V231.937ZM75.9862 231.937H72.1424V225.399H75.9862V231.937ZM80.6371 231.937H76.7933V225.399H80.6371V231.937ZM85.2928 231.937H81.4491V225.399H85.2928V231.937Z" fill="#4397D2"/>
<path opacity="0.1" d="M49.7717 246.715C49.8967 246.862 50.012 247.028 50.1321 247.175H52.6738V250.317L53.4954 251.238V247.156H57.3391V253.754H55.7584C55.9121 253.906 56.0611 254.067 56.2388 254.214H85.4657V246.715H49.7717ZM62.0045 253.754H58.1607V247.184H62.0045V253.754ZM66.6602 253.754H62.8165V247.184H66.6602V253.754ZM71.3159 253.754H67.4722V247.184H71.3159V253.754ZM75.9669 253.754H72.1231V247.184H75.9669V253.754ZM80.6178 253.754H76.7741V247.184H80.6178V253.754ZM85.2736 253.754H81.4298V247.184H85.2736V253.754Z" fill="#4397D2"/>
<path opacity="0.1" d="M75.424 268.505C75.866 268.744 76.3128 268.965 76.7597 269.2V268.969H80.6034V271.044C80.8821 271.16 81.1463 271.284 81.4202 271.403V268.969H85.264V272.954C85.337 272.985 85.4125 273.012 85.4898 273.032V268.505H75.424Z" fill="#4397D2"/>
<path opacity="0.1" d="M362.97 289.931H363.451H362.97ZM332.09 220.839C332.182 221.134 332.263 221.428 332.345 221.718C332.273 221.428 332.186 221.134 332.09 220.839ZM102.364 85.2407V87.2007H123.826V85.2315L102.364 85.2407ZM362.975 289.931H363.455H362.975ZM332.09 220.839C332.182 221.134 332.263 221.428 332.345 221.718C332.273 221.428 332.186 221.134 332.09 220.839ZM362.97 289.931H363.451H362.97ZM332.09 220.839C332.182 221.134 332.263 221.428 332.345 221.718C332.273 221.428 332.186 221.134 332.09 220.839Z" fill="#4397D2"/>
<path opacity="0.1" d="M422.539 397.501C448.395 397.501 469.355 394.277 469.355 390.3C469.355 386.324 448.395 383.1 422.539 383.1C396.682 383.1 375.722 386.324 375.722 390.3C375.722 394.277 396.682 397.501 422.539 397.501Z" fill="#4397D2"/>
<path opacity="0.1" d="M422.539 397.501C448.395 397.501 469.355 394.277 469.355 390.3C469.355 386.324 448.395 383.1 422.539 383.1C396.682 383.1 375.722 386.324 375.722 390.3C375.722 394.277 396.682 397.501 422.539 397.501Z" fill="#4397D2"/>
<path opacity="0.1" d="M211.392 390.3C237.248 390.3 258.209 387.077 258.209 383.1C258.209 379.123 237.248 375.9 211.392 375.9C185.536 375.9 164.575 379.123 164.575 383.1C164.575 387.077 185.536 390.3 211.392 390.3Z" fill="#4397D2"/>
<path d="M265.291 192.705C265.279 192.659 265.254 192.617 265.219 192.585C264.503 191.909 255.374 179.546 255.374 179.546C255.374 179.546 254.893 178.166 254.115 176.371C254.365 176.062 254.552 175.711 254.668 175.336C254.71 175.177 254.74 175.016 254.759 174.853C254.759 174.802 254.797 174.761 254.812 174.71C254.979 174.086 254.962 173.43 254.764 172.815C254.71 172.973 254.644 173.126 254.567 173.275C254.386 172.739 254.144 172.224 253.846 171.738C252.635 169.741 250.906 168.057 249.632 166.111C247.704 163.087 246.938 159.514 247.465 156.008C247.465 156.187 247.465 156.371 247.465 156.55C247.514 155.855 247.61 155.163 247.754 154.48C247.954 153.702 248.223 152.942 248.556 152.207C249.7 149.7 251.549 147.514 252.674 144.998C253.051 144.149 253.337 143.265 253.529 142.361C253.925 140.851 254.069 139.291 253.956 137.737C253.956 138.105 253.894 138.473 253.836 138.837C253.715 135.102 252.14 131.546 249.421 128.867C245.495 125.089 239.86 123.622 234.469 122.849C232.203 122.596 230.04 121.805 228.175 120.548C226.104 119.265 223.428 118.956 221.006 119.237C218.223 119.525 215.637 120.749 213.708 122.692C211.147 125.388 210.037 129.207 207.048 131.48C205.237 132.86 202.94 133.504 200.831 134.443C198.722 135.382 196.728 136.743 196.05 138.759C196.05 138.759 196.05 138.731 196.05 138.717V138.832L196.022 138.906C195.32 141.289 196.675 143.714 197.381 146.093C198.116 148.554 198.164 151.154 198.203 153.698C198.256 156.808 198.304 159.923 198.251 163.038C198.227 164.262 198.184 165.499 198.088 166.718C196.95 167.048 195.846 167.473 194.787 167.988C193.711 168.66 189.684 172.824 189.684 172.824L181.809 201.635L181.915 201.75L181.809 202.141L182.208 202.054C183.323 203.204 186.652 206.48 190.246 208.522L190.583 214.172C190.583 214.172 190.986 219.841 196.43 222.183C196.555 224.147 196.944 232.125 195.142 235.286C193.895 237.595 193.308 240.18 193.441 242.776C193.441 242.776 194.071 247.571 193.355 250.092C192.937 251.777 192.906 253.529 193.264 255.226C193.264 255.226 193.264 255.783 193.264 256.74C193.264 261.843 193.326 278.194 193.264 280.044C193.172 282.229 193.264 314.551 193.264 314.551C193.264 314.551 192.817 330.705 191.385 335.08C189.953 339.456 190.314 353.944 190.314 353.944C190.314 353.944 189.415 371.202 192.591 374.607C192.591 374.759 192.562 374.915 192.557 375.067C192.557 375.136 192.557 375.214 192.557 375.283C192.519 376.594 192.783 377.988 193.96 378.416C196.363 379.3 199.539 381.95 200.139 382.709C200.74 383.468 204.233 385.359 208.788 384.853C211.641 384.546 214.512 384.42 217.383 384.476C217.383 384.476 219.18 384.163 218.599 382.023C218.224 380.689 216.821 378.637 215.822 377.289C216.004 377.335 216.182 377.372 216.35 377.404L216.523 377.436H216.658C216.731 377.441 216.805 377.441 216.879 377.436H216.975C217.064 377.443 217.154 377.443 217.244 377.436C218.45 377.326 222.947 379.332 223.749 380.657C224.552 381.982 227.382 382.99 229.515 383.243C230.783 383.39 233.983 383.141 236.669 382.81C238.022 382.676 239.361 382.443 240.676 382.111C241.311 381.881 241.445 381.145 241.263 380.316C241.047 379.265 240.46 378.316 239.6 377.629C238.822 377.1 237.794 375.706 237.034 374.565L236.833 374.257C238.173 373.033 240.595 369.03 241.33 368.202C242.223 367.195 239.888 330.346 239.888 330.346V311.873L243.468 294.39L245.971 285.137L248.119 271.169C248.119 271.169 251.876 254.854 250.718 253.253C250.718 253.22 249.757 236.423 248.748 232.387C248.311 230.589 248.422 226.54 248.681 222.601C248.952 222.343 249.141 222.017 249.226 221.66C249.311 221.304 249.289 220.931 249.161 220.586C249.09 220.35 248.996 220.121 248.883 219.901C248.883 219.832 248.883 219.758 248.883 219.689C250.958 218.774 253.127 218.068 255.355 217.582C258.934 216.91 258.04 215.143 258.04 215.143C258.04 215.143 258.848 213.63 259.381 212.705C259.914 211.78 259.472 203.618 259.381 202.946C259.347 202.675 259.126 201.175 258.872 199.472C260.02 198.69 261.514 197.72 263.143 196.799C266.242 195.042 265.545 193.188 265.291 192.705ZM218.589 309.352C218.589 309.352 215.903 315.913 216.98 317.592C218.056 319.271 216.802 325.506 216.802 325.506L215.903 334.758C215.903 334.758 213.4 351.92 214.294 355.955C214.995 359.12 215.255 368.575 215.336 372.518C215.275 372.541 215.215 372.569 215.159 372.601L215.039 372.66C215.452 371.11 215.279 367.972 213.227 361.66L213.054 335.586C213.054 335.586 212.737 305.469 215.221 302.101C217.705 298.733 218.584 293.014 218.584 293.014C218.584 293.014 218.046 301.263 217.696 303.449C217.345 305.634 218.589 309.352 218.589 309.352ZM213.588 374.16C213.563 374.216 213.535 374.271 213.515 374.321L213.381 374.156C213.45 374.162 213.519 374.164 213.588 374.16Z" fill="url(#paint0_linear_16_176)"/>
<path d="M240.979 384.494C239.59 385.005 232.062 385.874 229.957 385.631C227.853 385.387 225.066 384.365 224.273 383.031C223.48 381.697 219.036 379.681 217.844 379.81C217.356 379.824 216.869 379.759 216.403 379.617C215.581 379.379 214.778 379.083 214.001 378.734C213.892 378.154 213.91 377.558 214.054 376.985C214.081 376.87 214.117 376.756 214.159 376.645C214.44 375.89 215.02 375.272 215.774 374.924L215.947 374.846C216.28 374.708 216.628 374.606 216.984 374.542C220.761 373.848 236.343 375.242 236.343 375.242C236.343 375.242 236.78 375.992 237.38 376.921C238.13 378.071 239.148 379.474 239.917 380.004C240.769 380.701 241.347 381.655 241.556 382.709C241.738 383.523 241.604 384.269 240.979 384.494Z" fill="white"/>
<path opacity="0.1" d="M240.979 384.494C239.59 385.005 232.066 385.874 229.962 385.631C227.857 385.387 225.071 384.361 224.273 383.031C223.476 381.701 219.041 379.682 217.849 379.81C216.658 379.939 214.006 378.734 214.006 378.734C214.006 378.734 213.592 376.893 214.794 375.637L217.196 377.271C217.196 377.271 223.625 379.18 224.816 380.951C226.008 382.723 228.179 383.712 231.317 383.891C233.662 384.039 239.048 383.164 241.57 382.727C241.738 383.523 241.608 384.269 240.979 384.494Z" fill="black"/>
<path d="M217.979 386.841C215.145 386.788 212.31 386.915 209.494 387.222C204.982 387.729 201.537 385.842 200.937 385.065C200.336 384.287 197.228 381.66 194.84 380.74C193.672 380.307 193.398 378.899 193.451 377.583C193.451 377.514 193.451 377.436 193.451 377.367C193.495 376.534 193.624 375.706 193.835 374.897L212.531 374.515L214.15 376.617L214.4 376.939L215.384 378.223C215.384 378.223 215.831 378.784 216.417 379.603C217.407 380.984 218.791 383.022 219.161 384.37C219.752 386.528 217.979 386.841 217.979 386.841Z" fill="white"/>
<path opacity="0.1" d="M217.979 386.841C215.145 386.788 212.31 386.915 209.494 387.222C204.987 387.729 201.537 385.842 200.942 385.065C200.346 384.287 197.228 381.637 194.84 380.749C193.672 380.316 193.398 378.909 193.451 377.593C194.787 377.892 197.593 378.656 198.693 379.985C200.134 381.761 202.715 384.747 206.38 384.936C209.34 385.088 216.547 384.581 219.19 384.379C219.757 386.528 217.979 386.841 217.979 386.841Z" fill="black"/>
<path opacity="0.1" d="M215.755 374.906C215.538 376.442 214.87 376.857 214.39 376.949C214.273 376.971 214.152 376.971 214.034 376.949C213.971 376.944 213.909 376.935 213.847 376.921C213.847 376.921 197.059 380.473 193.667 377.597C193.581 377.523 193.501 377.443 193.427 377.358C193.471 376.524 193.6 375.697 193.811 374.887L212.507 374.505L214.126 376.608C214.406 375.853 214.986 375.235 215.74 374.887L215.755 374.906Z" fill="black"/>
<path opacity="0.1" d="M237.375 376.903C237.001 377.298 236.688 377.524 236.491 377.445C235.607 377.105 228.362 375.923 226.06 376.939C223.759 377.956 215.971 377.105 215.971 377.105C215.971 377.105 215.971 376.222 215.927 374.805C216.26 374.667 216.609 374.565 216.965 374.501C220.742 373.806 236.323 375.2 236.323 375.2C236.323 375.2 236.78 375.973 237.375 376.903Z" fill="black"/>
<path d="M248.34 272.83L246.216 286.881L243.747 296.193L240.21 313.796V332.43C240.21 332.43 242.507 369.504 241.623 370.516C240.739 371.529 237.38 377.294 236.496 376.958C235.612 376.622 228.367 375.435 226.065 376.447C223.764 377.459 215.975 376.617 215.975 376.617C215.975 376.617 215.798 362.23 214.914 358.168C214.03 354.105 216.504 336.838 216.504 336.838L217.388 327.53C217.388 327.53 218.628 321.264 217.566 319.57C216.504 317.877 219.156 311.289 219.156 311.289C219.156 311.289 217.921 307.557 218.277 305.358C218.632 303.159 219.156 294.863 219.156 294.863C219.156 294.863 218.277 300.624 215.822 304.005C213.366 307.387 213.679 337.693 213.679 337.693L213.852 363.919C218.277 377.804 213.852 376.447 213.852 376.447C213.852 376.447 197.064 380.004 193.672 377.123C190.28 374.243 191.251 356.116 191.251 356.116C191.251 356.116 190.9 341.558 192.312 337.16C193.725 332.761 194.172 316.506 194.172 316.506C194.172 316.506 194.08 284.001 194.172 281.806C194.239 279.966 194.172 263.49 194.172 258.341C194.172 257.384 194.172 256.818 194.172 256.818L196.199 251.997L220.223 249.116H231.716C231.716 249.116 249.012 253.009 250.8 254.688C250.838 254.716 250.87 254.75 250.896 254.789C252.054 256.414 248.34 272.83 248.34 272.83Z" fill="#4397D2"/>
<path opacity="0.1" d="M219.171 346.638C219.171 346.638 224.456 358.826 226.949 359.672C229.443 360.519 219.171 346.638 219.171 346.638Z" fill="black"/>
<path opacity="0.1" d="M221.126 364.581C221.126 364.581 238.971 365.428 238.793 367.291C238.615 369.155 221.126 364.581 221.126 364.581Z" fill="black"/>
<path opacity="0.1" d="M197.252 359.709C197.958 360.348 210.863 361.549 209.801 362.718C208.74 363.887 198.313 366.159 198.313 366.159L197.252 359.709Z" fill="black"/>
<path opacity="0.1" d="M195.133 338.683C195.133 339.189 197.785 354.933 198.496 355.609C199.207 356.286 205.035 356.962 205.035 356.962L195.133 338.683Z" fill="black"/>
<path d="M214.375 123.479C211.843 126.189 210.748 130.031 207.798 132.322C206.006 133.702 203.738 134.36 201.653 135.299C199.567 136.237 197.501 137.668 196.882 139.794C196.19 142.186 197.525 144.629 198.227 147.022C198.952 149.497 198.996 152.083 199.039 154.673C199.087 157.807 199.14 160.94 199.082 164.073C198.996 168.955 198.573 174.062 195.868 178.198C205.636 181.175 216.023 181.579 226.267 181.961C228.236 182.096 230.213 182.048 232.172 181.819C233.87 181.495 235.549 181.088 237.203 180.599C240.473 179.771 243.842 179.358 247.225 179.371C248.7 179.371 250.204 179.458 251.626 179.09C253.048 178.722 254.418 177.779 254.802 176.417C255.143 175.193 254.644 173.891 253.99 172.792C252.799 170.786 251.107 169.111 249.829 167.133C248.525 165.043 247.751 162.689 247.569 160.26C247.388 157.832 247.805 155.396 248.787 153.15C249.921 150.624 251.746 148.425 252.861 145.895C254.003 143.178 254.306 140.204 253.736 137.327C253.165 134.45 251.744 131.79 249.642 129.663C245.764 125.862 240.201 124.39 234.877 123.608C232.635 123.354 230.497 122.563 228.66 121.307C226.618 120.019 223.97 119.706 221.578 119.992C218.817 120.288 216.261 121.526 214.375 123.479Z" fill="#3F3D56"/>
<g opacity="0.1">
<path d="M248.936 150.496C247.956 152.713 247.536 155.12 247.71 157.521C247.818 155.804 248.232 154.117 248.936 152.534C250.065 150.008 251.891 147.809 253.005 145.278C253.916 143.165 254.3 140.878 254.125 138.598C254.026 140.196 253.647 141.766 253.005 143.245C251.891 145.775 250.065 147.97 248.936 150.496Z" fill="black"/>
<path d="M199.183 154.048C199.212 155.851 199.241 157.659 199.246 159.463C199.246 156.978 199.222 154.498 199.183 152.019C199.145 149.447 199.097 146.843 198.371 144.363C197.891 142.789 197.18 141.193 196.93 139.605C196.502 141.86 197.718 144.146 198.371 146.396C199.097 148.853 199.145 151.476 199.183 154.048Z" fill="black"/>
<path d="M251.79 176.459C250.348 176.831 248.868 176.749 247.393 176.739C244.013 176.719 240.645 177.124 237.376 177.945C235.721 178.431 234.042 178.836 232.345 179.159C230.385 179.393 228.406 179.442 226.435 179.307C216.538 178.934 206.501 178.534 197.021 175.824C196.74 176.425 196.419 177.009 196.06 177.572C205.828 180.544 216.216 180.954 226.454 181.336C228.425 181.471 230.404 181.422 232.364 181.188C234.055 180.869 235.728 180.465 237.376 179.978C240.638 179.155 244 178.745 247.374 178.759C248.849 178.759 250.348 178.847 251.77 178.474C253.193 178.101 254.562 177.167 254.946 175.805C255.108 175.175 255.092 174.514 254.898 173.891C254.471 175.18 253.149 176.077 251.79 176.459Z" fill="black"/>
</g>
<path d="M237.558 171.007C237.203 171.77 235.704 178.368 235.348 179.044C234.992 179.721 233.051 190.547 232.874 191.154C232.696 191.761 220.079 188.614 220.079 188.614L212.482 182.518L204.675 175.078C204.675 175.078 204.444 168.366 210.195 166.212C210.586 166.065 210.988 165.945 211.397 165.854C218.373 164.248 217.672 143.935 217.672 143.935L231.99 149.856C231.99 149.856 229.337 161.708 229.429 163.995C229.453 164.763 230.082 165.242 230.904 165.531C232.174 165.878 233.496 166.014 234.815 165.936C234.815 165.936 237.914 170.247 237.558 171.007Z" fill="#FBBEBE"/>
<path d="M263.191 193.266L265.223 193.777C265.223 193.777 266.727 195.967 263.191 198.005C260.946 199.311 258.79 200.754 256.738 202.325L246.288 205.371L244.275 199.321L254 192.254L263.191 193.266Z" fill="#4397D2"/>
<path opacity="0.1" d="M263.191 193.266L265.223 193.777C265.223 193.777 266.727 195.967 263.191 198.005C260.946 199.311 258.79 200.754 256.738 202.325L246.288 205.371L244.275 199.321L254 192.254L263.191 193.266Z" fill="black"/>
<path d="M186.926 199.109L182.862 202.919C182.862 202.919 190.194 211.044 195.834 211.55C201.475 212.056 205.112 205.371 205.112 205.371L200.231 198.009L186.926 199.109Z" fill="#4397D2"/>
<path opacity="0.1" d="M186.926 199.109L182.862 202.919C182.862 202.919 190.194 211.044 195.834 211.55C201.475 212.056 205.112 205.371 205.112 205.371L200.231 198.009L186.926 199.109Z" fill="black"/>
<path opacity="0.1" d="M225.537 157.208C233.346 157.208 239.677 151.146 239.677 143.668C239.677 136.19 233.346 130.127 225.537 130.127C217.727 130.127 211.397 136.19 211.397 143.668C211.397 151.146 217.727 157.208 225.537 157.208Z" fill="black"/>
<path d="M225.537 156.192C233.346 156.192 239.677 150.129 239.677 142.651C239.677 135.173 233.346 129.111 225.537 129.111C217.727 129.111 211.397 135.173 211.397 142.651C211.397 150.129 217.727 156.192 225.537 156.192Z" fill="#FBBEBE"/>
<path opacity="0.1" d="M250.906 256.326C247.686 256.679 244.514 257.359 241.445 258.355C236.16 260.039 194.744 258.383 194.167 258.355C194.167 257.398 194.167 256.832 194.167 256.832L196.195 252.01L220.218 249.13H231.711C231.711 249.13 249.008 253.023 250.795 254.702C250.867 255.714 250.906 256.326 250.906 256.326Z" fill="black"/>
<path opacity="0.1" d="M237.558 171.007C237.203 171.77 235.704 178.368 235.348 179.044C234.992 179.721 233.051 190.547 232.874 191.154C232.696 191.761 220.079 188.614 220.079 188.614L212.482 182.518L204.675 175.078C204.675 175.078 204.444 168.366 210.195 166.212L224.475 181.934L230.904 165.531C232.174 165.878 233.496 166.014 234.815 165.936C234.815 165.936 237.914 170.247 237.558 171.007Z" fill="black"/>
<path d="M224.475 182.44L209.859 166.337C209.004 165.814 208.026 165.502 207.013 165.431C206.001 165.359 204.986 165.53 204.06 165.927C200.788 167.284 196.723 168.384 195.661 169.06C194.599 169.737 190.621 173.924 190.621 173.924L202.469 203.604L197.252 223.153C197.252 223.153 198.049 233.142 196.017 236.781C194.779 239.108 194.199 241.705 194.335 244.313C194.335 244.313 194.955 249.139 194.249 251.675C193.836 253.37 193.805 255.129 194.157 256.837C194.157 256.837 236.145 258.53 241.445 256.837C244.514 255.838 247.685 255.158 250.905 254.808C250.905 254.808 249.945 237.876 248.984 233.814C248.023 229.751 249.781 214.264 249.781 214.264L248.633 197.674L255.523 180.65C255.523 180.65 251.79 169.737 247.898 168.637C247.898 168.637 240.83 167.027 239.326 166.268C237.822 165.508 233.402 164.828 233.402 164.828L231.081 165.573L224.475 182.44Z" fill="#4397D2"/>
<path opacity="0.1" d="M244.867 197.113L214.111 195.111C213.333 195.06 212.659 195.623 212.606 196.368L209.304 242.868C209.251 243.614 209.839 244.259 210.618 244.31L241.374 246.312C242.152 246.363 242.826 245.8 242.879 245.055L246.181 198.555C246.234 197.809 245.646 197.164 244.867 197.113Z" fill="black"/>
<path d="M245.926 196.103L215.17 194.101C214.392 194.05 213.718 194.613 213.665 195.359L210.363 241.859C210.31 242.604 210.898 243.249 211.677 243.3L242.433 245.303C243.211 245.353 243.885 244.79 243.938 244.045L247.24 197.545C247.293 196.799 246.704 196.154 245.926 196.103Z" fill="#3F3D56"/>
<path d="M244.911 199.748L215.661 197.844L212.655 240.176L241.905 242.08L244.911 199.748Z" fill="white"/>
<path opacity="0.1" d="M242.288 210.553L218.395 208.952L217.929 215.329L241.822 216.93L242.288 210.553Z" fill="black"/>
<path opacity="0.1" d="M241.424 235.895L237.632 235.648L237.396 238.971L241.188 239.218L241.424 235.895Z" fill="black"/>
<path opacity="0.1" d="M237.684 227.874L218.274 226.61L218.038 229.934L237.448 231.197L237.684 227.874Z" fill="black"/>
<path d="M241.291 198.166L221.081 196.85L220.718 201.959L240.928 203.275L241.291 198.166Z" fill="#3F3D56"/>
<path opacity="0.1" d="M241.291 198.166L221.081 196.85L220.718 201.959L240.928 203.275L241.291 198.166Z" fill="black"/>
<path opacity="0.1" d="M226.243 255.392C226.243 255.392 226.065 280.449 219.171 294.836C219.171 294.836 227.483 275.875 227.483 275.116C227.483 274.357 232.076 266.398 230.846 264.028C229.616 261.659 226.243 255.392 226.243 255.392Z" fill="black"/>
<path opacity="0.1" d="M226.618 139.265C226.354 137.047 226.921 134.812 228.218 132.957C228.064 134.816 228.612 136.666 229.764 138.169C230.916 139.673 232.595 140.73 234.493 141.147C234.331 141.012 234.215 140.834 234.161 140.635C234.107 140.436 234.117 140.226 234.19 140.033C235.175 141.101 235.929 142.366 237.044 143.304C238.159 144.243 239.831 144.804 241.142 144.137C242.925 143.217 242.944 140.792 242.483 138.906C241.493 134.889 239.462 131.175 236.578 128.108C235.858 127.18 234.924 126.425 233.849 125.902C232.774 125.378 231.586 125.1 230.38 125.089C227.651 124.887 224.816 125.117 222.37 126.29C220.994 127.009 219.705 127.872 218.527 128.862L211.8 134.116C211.153 134.563 210.599 135.122 210.167 135.763C209.878 136.3 209.705 136.887 209.657 137.489C209.485 139.21 209.818 140.942 210.617 142.492C211.417 144.042 212.652 145.348 214.183 146.263C214.151 144.903 214.541 143.564 215.305 142.417C216.069 141.27 217.172 140.367 218.474 139.821C218.678 139.985 218.843 140.188 218.958 140.417C219.073 140.646 219.136 140.897 219.142 141.151L220.559 138.731C220.77 138.291 221.102 137.914 221.52 137.641C222.394 137.181 223.485 137.723 224.23 138.372C224.975 139.021 225.7 139.831 226.699 139.932L226.738 136.329" fill="black"/>
<path d="M226.618 138.759C226.353 136.539 226.92 134.302 228.218 132.446C227.785 136.127 230.683 139.927 234.498 140.636C234.335 140.502 234.22 140.325 234.165 140.127C234.111 139.929 234.122 139.719 234.195 139.527C235.18 140.594 235.934 141.855 237.049 142.798C238.163 143.741 239.835 144.298 241.147 143.626C242.93 142.706 242.949 140.282 242.488 138.4C241.498 134.382 239.467 130.669 236.583 127.601C235.688 126.557 234.56 125.717 233.282 125.145C232.357 124.817 231.384 124.628 230.399 124.583C227.67 124.381 224.835 124.606 222.39 125.779C221.014 126.502 219.725 127.366 218.546 128.356L211.819 133.61C211.171 134.056 210.617 134.614 210.186 135.257C209.897 135.794 209.723 136.381 209.676 136.983C209.505 138.703 209.838 140.435 210.637 141.984C211.437 143.533 212.671 144.838 214.203 145.752C214.171 144.392 214.563 143.054 215.326 141.908C216.09 140.761 217.192 139.857 218.493 139.311C218.696 139.475 218.861 139.678 218.976 139.907C219.091 140.136 219.154 140.386 219.161 140.64L220.574 138.23C220.783 137.788 221.116 137.411 221.534 137.139C222.409 136.679 223.5 137.222 224.244 137.871C224.989 138.519 225.715 139.325 226.714 139.43L226.752 135.823" fill="#3F3D56"/>
<path d="M233.316 224.166C232.081 223.568 211.661 226.618 211.661 226.618C211.661 226.618 208.298 225.698 200.168 224.419C192.039 223.14 191.52 215.53 191.52 215.53L190.631 200.296L193.374 197.996L205.126 205.357C205.126 205.357 205.309 209.079 205.126 209.751C205.011 210.211 204.704 210.759 204.732 211.131C204.741 211.232 204.785 211.327 204.856 211.402C204.927 211.477 205.022 211.527 205.126 211.545C205.924 211.739 216.792 213.422 216.792 213.422C216.792 213.422 241.983 211.771 248.263 219.896C248.761 220.492 249.137 221.173 249.373 221.902C250.93 227.455 234.435 224.695 233.316 224.166Z" fill="#FBBEBE"/>
<path opacity="0.1" d="M249.387 221.934C248.426 222.344 247.831 222.638 247.831 222.638C247.831 222.638 238.817 222.385 233.753 220.628C228.689 218.87 222.534 219.183 222.534 219.183C222.534 219.183 201.432 215.705 204.704 211.163C204.713 211.264 204.756 211.36 204.827 211.435C204.898 211.509 204.994 211.56 205.098 211.578C205.895 211.771 216.763 213.455 216.763 213.455C216.763 213.455 241.954 211.803 248.234 219.928C248.747 220.521 249.138 221.202 249.387 221.934Z" fill="black"/>
<path d="M258.151 195.129C258.151 195.129 259.391 203.507 259.477 204.188C259.564 204.869 260.01 213.073 259.477 214.007C258.944 214.941 258.151 216.459 258.151 216.459C258.151 216.459 259.035 218.235 255.499 218.916C251.963 219.597 247.811 221.621 247.811 221.621C247.811 221.621 238.793 221.368 233.758 219.592C228.722 217.816 222.534 218.152 222.534 218.152C222.534 218.152 195.748 213.749 207.241 208.375C218.733 203.001 226.863 210.28 226.863 210.28L239.677 209.521C239.677 209.521 244.453 206.724 245.779 206.981C246.715 207.095 247.666 206.948 248.518 206.558L248.609 197.669L258.151 195.129Z" fill="#FBBEBE"/>
<path opacity="0.1" d="M193.172 174.563L190.607 174.434L182.833 203.42C182.833 203.42 191.227 201.386 194.844 203.42C198.462 205.454 205.098 205.872 205.098 205.872L202.623 182.767L193.172 174.563Z" fill="black"/>
<path d="M193.172 174.052L190.607 173.924L182.833 202.909C182.833 202.909 191.227 200.876 194.844 202.909C198.462 204.943 205.098 205.362 205.098 205.362L202.623 182.256L193.172 174.052Z" fill="#4397D2"/>
<path opacity="0.1" d="M251.967 180.402L255.499 181.165C255.499 181.165 264.517 193.588 265.224 194.283C265.93 194.977 261.86 197.503 260.183 197.503C258.507 197.503 250.286 198.423 247.898 200.549C245.51 202.675 246.504 191.978 246.504 191.734C246.504 191.49 249.469 184.74 249.469 184.74L251.967 180.402Z" fill="black"/>
<path d="M251.967 179.896L255.499 180.655C255.499 180.655 264.517 193.1 265.224 193.777C265.93 194.453 261.86 196.997 260.183 196.997C258.507 196.997 250.286 197.917 247.898 200.043C245.51 202.169 246.504 191.471 246.504 191.228C246.504 190.984 249.488 184.211 249.488 184.211L251.967 179.896Z" fill="#4397D2"/>
<g opacity="0.1">
<path d="M228.194 132.488C228.173 132.135 228.181 131.781 228.218 131.429C227.486 132.481 226.983 133.662 226.738 134.903V135.971C226.738 135.971 226.738 135.948 226.738 135.934V136.187C226.738 136.932 226.738 137.682 226.714 138.427H226.647V138.772C226.647 138.653 226.647 138.538 226.623 138.418C225.662 138.271 224.975 137.498 224.259 136.882C223.543 136.265 222.423 135.676 221.549 136.15C221.13 136.422 220.798 136.799 220.588 137.24L219.161 139.651C219.155 139.398 219.092 139.148 218.977 138.92C218.862 138.691 218.697 138.489 218.493 138.326C217.192 138.871 216.089 139.775 215.325 140.922C214.561 142.069 214.17 143.407 214.203 144.767C212.89 143.98 211.792 142.904 210.999 141.63C210.206 140.355 209.741 138.919 209.643 137.438C209.559 139.091 209.938 140.736 210.739 142.202C211.541 143.668 212.736 144.903 214.203 145.78C214.171 144.42 214.563 143.082 215.326 141.935C216.09 140.788 217.192 139.885 218.493 139.338C218.696 139.502 218.861 139.705 218.976 139.935C219.091 140.164 219.154 140.414 219.161 140.668L220.574 138.257C220.783 137.816 221.116 137.439 221.535 137.167C222.409 136.707 223.5 137.25 224.244 137.898C224.989 138.547 225.715 139.352 226.714 139.458C226.714 138.28 226.727 137.105 226.752 135.934C226.988 134.704 227.478 133.533 228.194 132.488Z" fill="black"/>
<path d="M226.57 137.121C226.594 136.808 226.632 136.495 226.68 136.201L226.733 134.931C226.589 135.652 226.534 136.387 226.57 137.121Z" fill="black"/>
<path d="M241.147 142.61C239.836 143.281 238.164 142.72 237.049 141.781C235.934 140.843 235.18 139.578 234.195 138.51C234.122 138.703 234.112 138.913 234.166 139.112C234.22 139.311 234.336 139.489 234.498 139.624C234.401 139.624 234.31 139.578 234.219 139.555C235.18 140.613 235.944 141.855 237.049 142.775C238.154 143.695 239.836 144.275 241.147 143.603C242.459 142.932 242.834 141.358 242.718 139.826C242.632 141.032 242.18 142.076 241.147 142.61Z" fill="black"/>
<path d="M234.19 139.545C232.583 139.126 231.149 138.247 230.079 137.025C229.009 135.803 228.354 134.297 228.203 132.708C227.93 136.32 230.774 139.941 234.498 140.636C234.339 140.504 234.225 140.33 234.17 140.136C234.115 139.941 234.122 139.736 234.19 139.545Z" fill="black"/>
</g>
<path d="M464.93 214.743C464.93 214.743 463.037 214.49 463.037 211.854C463.037 209.217 461.682 204.28 461.682 204.28C461.682 204.28 460.51 195.691 458.891 194.329C457.272 192.967 455.191 184.97 455.191 184.97C455.191 184.97 454.836 180.632 454.11 179.698C453.385 178.764 452.404 176.477 450.958 173.215C449.512 169.953 443.497 167.717 443.497 167.717C443.497 167.717 432.595 161.662 429.505 159.688C429.223 159.525 428.959 159.334 428.717 159.118C428.179 158.446 425.835 158.432 425.835 158.432C425.589 156.946 425.354 155.244 425.277 153.702C425.277 153.537 425.277 153.371 425.277 153.206C428.722 151.256 431.317 148.181 432.585 144.547C432.643 144.372 432.691 144.192 432.744 144.013C432.954 143.951 433.149 143.846 433.315 143.707C433.48 143.567 433.613 143.395 433.705 143.203C433.978 142.61 433.988 141.92 434.334 141.363C434.738 140.709 435.506 140.36 436.112 139.872C437.64 138.625 438.034 136.532 437.962 134.632C437.914 133.086 437.654 131.531 437.755 129.999C437.755 129.87 437.755 129.741 437.784 129.612C437.813 129.387 437.846 129.152 437.89 128.931C438.125 127.79 438.639 126.713 438.927 125.582C439.216 124.45 439.244 123.175 438.572 122.2C437.587 120.769 435.535 120.484 433.733 120.36C431.691 120.194 429.89 120.406 428.559 118.781C427.948 117.933 427.26 117.139 426.502 116.407C426.233 116.168 423.62 114.636 423.62 114.539C421.062 113.401 418.161 113.187 415.452 113.937C414.092 114.314 412.819 114.93 411.44 115.239C408.48 115.91 405.069 115.184 402.551 116.808C401.148 117.728 400.307 119.196 399.519 120.617C398.879 121.789 398.228 122.962 397.569 124.137C396.502 126.065 395.426 128.025 394.979 130.16C394.885 130.626 394.826 131.098 394.801 131.572C394.801 131.742 394.801 131.912 394.801 132.083C394.801 132.156 394.801 132.23 394.801 132.304C394.801 132.46 394.801 132.616 394.83 132.764C394.859 132.911 394.83 132.952 394.864 133.049C394.897 133.146 394.907 133.362 394.936 133.509C394.964 133.656 395.022 133.918 395.08 134.116C395.08 134.204 395.137 134.287 395.166 134.374C395.195 134.461 395.272 134.682 395.334 134.834C395.397 134.986 395.402 134.995 395.44 135.073C395.512 135.234 395.599 135.391 395.685 135.533C395.724 135.593 395.752 135.653 395.791 135.713C395.923 135.928 396.07 136.134 396.233 136.329C397.256 137.558 398.775 138.34 399.894 139.49C399.894 139.536 399.894 139.582 399.894 139.628C399.894 139.752 399.894 139.877 399.894 140.006C399.963 142.571 400.685 145.082 401.998 147.319C403.311 149.556 405.175 151.452 407.428 152.842C407.428 153.017 407.452 153.196 407.461 153.376C407.555 154.74 407.537 156.109 407.409 157.471C407.212 157.25 406.967 157.075 406.691 156.957C406.415 156.839 406.115 156.782 405.813 156.79C405.607 156.78 405.4 156.797 405.198 156.84L405.155 156.808V156.85C404.098 157.098 402.796 158.152 401.552 161.147C401.552 161.147 397.766 165.232 394.883 165.062C392 164.892 384.702 169.318 384.702 169.318C384.702 169.318 377.581 173.74 376.053 178.248C375.199 180.806 374.174 183.308 372.983 185.739L364.157 203.093L362.538 216.896C362.538 216.896 363.436 223.02 363.258 223.959C363.081 224.897 366.953 233.317 366.953 233.317C366.953 233.317 379.748 254.84 384.975 255.944L385.35 255.696C385.575 255.804 385.812 255.888 386.057 255.944L387.133 255.222C387.199 256.031 387.17 256.844 387.046 257.647C386.33 259.777 387.32 273.644 388.579 276.363C389.838 279.082 389.391 314.739 389.391 314.739L389.213 317.882C389.213 317.882 389.213 317.983 389.256 318.158L389.213 318.903L389.343 318.968C389.478 319.967 389.434 320.982 389.213 321.968C388.762 323.348 388.579 327.245 388.579 327.245C388.579 327.245 384.975 349.274 386.686 353.7C388.396 358.126 389.843 362.976 389.843 362.976C389.843 362.976 391.644 368.497 389.929 369.417C388.214 370.337 383.356 371.97 384.346 374.266C385.259 376.392 388.723 382.088 389.237 382.921L389.194 383.381L388.488 390.71C388.602 391.678 388.876 392.622 389.3 393.507C390.073 395.108 391.572 396.76 394.436 396.581C394.916 396.549 395.469 396.498 396.012 396.429C401.244 395.753 407.682 393.517 407.682 393.517C407.349 393.314 407.043 393.071 406.774 392.794C406.517 392.556 406.313 392.269 406.175 391.953C406.037 391.637 405.968 391.297 405.972 390.954C406.049 389.615 403.44 383.261 402.786 381.692L402.638 381.342C402.638 381.342 408.586 375.384 407.596 370.112C407.596 370.112 401.014 366.431 403.18 364.406C405.347 362.382 409.22 356.585 409.22 356.585C409.22 356.585 409.398 334.892 409.22 331.657C409.035 329.407 409.146 327.144 409.551 324.921C409.624 324.59 409.71 324.263 409.801 323.937C412.801 324.37 415.83 324.59 418.863 324.595C419.971 324.595 421.092 324.573 422.226 324.53C422.226 324.837 422.241 325.168 422.269 325.524C422.519 330.898 422.985 340.325 423.365 343.827C423.903 348.842 426.877 362.373 426.877 362.373C426.877 362.373 421.203 365.856 427.867 374.455C427.867 374.455 427.867 377.565 427.425 378.021C426.953 379.496 426.572 380.997 426.286 382.516C426.008 384.131 425.892 385.773 426.344 386.62C427.425 388.653 433.911 388.488 433.911 388.488C433.963 388.476 434.016 388.468 434.07 388.465C435.294 388.341 436.532 388.452 437.711 388.792C438.89 389.131 439.986 389.693 440.936 390.443C443.4 392.339 452.75 391.511 457.819 390.903C459.804 390.659 461.13 390.443 461.13 390.443C461.194 390.228 461.216 390.003 461.197 389.781C461.144 388.589 460.169 385.976 453.558 383.643C453.558 383.643 447.34 379.64 447.427 376.153H447.287H446.572C447.023 376.139 447.34 376.139 447.34 376.139C447.34 376.139 444.904 367.632 445.899 366.937C446.893 366.242 443.915 356.815 443.915 356.815C443.915 356.815 442.209 340.988 442.113 339.884C442.119 338.932 442.271 337.986 442.564 337.077L442.113 328.395C442.113 328.395 442.026 325.51 442.113 324.572C442.103 323.757 442.036 322.944 441.911 322.138C441.868 321.816 441.825 321.48 441.776 321.149C444.107 320.583 445.62 320.063 445.62 320.063L445.351 289.858C447.331 286.177 447.696 278.098 447.686 272.374C447.686 268.693 447.513 265.97 447.513 265.97L450.218 261.741C450.218 261.741 450.843 256.68 449.853 255.572C449.416 255.07 449.613 254.55 449.973 254.122C450.163 253.973 450.364 253.838 450.574 253.717C450.55 253.685 450.529 253.651 450.511 253.616C450.7 253.465 450.901 253.328 451.112 253.207C451.112 253.207 450.151 251.78 451.011 251.178C451.818 251.702 452.539 252.121 453.087 252.42C453.048 252.756 453.01 252.949 453.01 252.949L453.24 252.489C453.769 252.774 454.091 252.949 454.091 252.949C454.091 252.949 458.329 244.865 458.237 243.678C458.146 242.491 461.12 237.467 461.12 237.467C461.12 237.467 461.481 234.826 463.104 233.722C464.728 232.618 464.363 224.617 464.363 224.617C464.363 224.617 464.815 220.448 465.896 218.75C466.977 217.053 464.93 214.743 464.93 214.743ZM383.846 211.196L383.928 213.123C383.448 212.383 383.102 211.854 383.102 211.854L383.846 211.196Z" fill="url(#paint1_linear_16_176)"/>
<path d="M454.341 249.452L453.303 253.685C453.303 253.685 444.991 249.613 443.497 244.46C442.002 239.307 446 237.343 446 237.343L453.75 240.481L454.341 249.452Z" fill="white"/>
<path opacity="0.1" d="M454.341 249.452L453.303 253.685C453.303 253.685 444.991 249.613 443.497 244.46C442.002 239.307 446 237.343 446 237.343L453.75 240.481L454.341 249.452Z" fill="black"/>
<path d="M407.692 393.512C407.692 393.512 400.005 396.217 394.719 396.558C391.913 396.737 390.438 395.09 389.679 393.503C389.267 392.627 388.998 391.696 388.882 390.742L389.578 383.45L389.944 379.571L401.172 376.774L402.762 381.434L402.911 381.784C403.546 383.344 406.111 389.666 406.034 390.986C406.028 391.328 406.094 391.667 406.229 391.983C406.364 392.299 406.564 392.586 406.818 392.826C407.078 393.089 407.371 393.32 407.692 393.512Z" fill="white"/>
<path d="M460.178 389.804C460.198 390.026 460.175 390.251 460.111 390.466C460.111 390.466 443.67 393.089 440.306 390.466C439.361 389.7 438.259 389.131 437.071 388.796C435.883 388.461 434.635 388.367 433.407 388.52C433.407 388.52 427.045 388.686 425.984 386.68C425.541 385.838 425.657 384.204 425.931 382.598C426.21 381.088 426.583 379.595 427.045 378.126L427.3 377.933L428.813 376.769L446.533 376.268H446.668C446.581 379.737 452.678 383.717 452.678 383.717C459.169 386.017 460.126 388.617 460.178 389.804Z" fill="white"/>
<path opacity="0.1" d="M460.183 389.804C460.2 390.027 460.176 390.251 460.111 390.466C460.111 390.466 443.67 393.089 440.311 390.466C439.365 389.699 438.262 389.13 437.073 388.795C435.885 388.46 434.636 388.366 433.407 388.52C433.407 388.52 427.041 388.686 425.979 386.679C425.541 385.838 425.652 384.204 425.926 382.594C428.376 382.829 432.244 383.413 433.762 384.812C436.059 386.928 439.951 389.044 442.334 389.215C444.217 389.325 455.417 389.666 460.183 389.804Z" fill="black"/>
<path opacity="0.1" d="M460.183 389.804C460.2 390.027 460.176 390.251 460.111 390.466C460.111 390.466 443.669 393.089 440.311 390.466C439.365 389.699 438.262 389.13 437.073 388.795C435.884 388.46 434.636 388.366 433.407 388.52C433.407 388.52 427.04 388.686 425.979 386.679C425.541 385.838 425.652 384.204 425.926 382.594C428.376 382.829 432.244 383.413 433.762 384.812C436.059 386.928 439.951 389.044 442.334 389.215C444.217 389.325 455.417 389.666 460.183 389.804Z" fill="black"/>
<path opacity="0.1" d="M407.692 393.512C407.692 393.512 400.005 396.217 394.719 396.558C391.913 396.737 390.438 395.09 389.679 393.503C391.64 394.133 394.354 394.791 395.781 394.188C397.473 393.466 403.469 393.006 406.832 392.808C407.086 393.077 407.375 393.314 407.692 393.512Z" fill="black"/>
<path opacity="0.1" d="M407.692 393.512C407.692 393.512 400.005 396.217 394.719 396.558C391.913 396.737 390.438 395.09 389.679 393.503C391.64 394.133 394.354 394.791 395.781 394.188C397.473 393.466 403.469 393.006 406.832 392.808C407.086 393.077 407.375 393.314 407.692 393.512Z" fill="black"/>
<path d="M419.098 175.479C412.756 173.118 404.598 165.32 406.635 161.676C407.085 160.756 407.354 159.764 407.428 158.75C407.559 157.373 407.578 155.988 407.485 154.609C407.342 152.348 407.058 150.097 406.635 147.868C406.635 147.868 426.435 148.296 425.282 151.089C424.946 151.913 424.888 153.334 424.984 154.922C425.08 156.509 425.316 158.317 425.565 159.84C425.907 161.924 426.257 163.521 426.257 163.521C426.257 163.521 425.042 165.145 424.335 165.232C423.629 165.32 428.198 178.86 419.098 175.479Z" fill="#CF6F80"/>
<path opacity="0.1" d="M402.892 381.761L402.743 381.918C396.824 375.062 389.665 383.611 389.665 383.611L389.559 383.427L389.924 379.548L401.153 376.751L402.743 381.411L402.892 381.761Z" fill="black"/>
<path opacity="0.1" d="M446.677 376.751C446.677 376.751 442.353 376.668 440.047 378.619C437.741 380.569 426.594 379.037 427.074 378.619C427.214 378.406 427.3 378.165 427.324 377.915L428.837 376.751L446.557 376.249C446.624 376.571 446.677 376.751 446.677 376.751Z" fill="black"/>
<path d="M410.258 322.915C409.936 323.678 409.692 324.468 409.527 325.276C409.127 327.487 409.015 329.737 409.196 331.975C409.374 335.195 409.196 356.778 409.196 356.778C409.196 356.778 405.395 362.534 403.272 364.563C401.148 366.592 407.596 370.236 407.596 370.236C408.557 375.485 402.734 381.411 402.734 381.411C396.814 374.556 389.655 383.1 389.655 383.1C389.655 383.1 385.763 376.659 384.793 374.358C383.822 372.058 388.593 370.47 390.27 369.532C391.947 368.593 390.184 363.091 390.184 363.091C390.184 363.091 388.771 358.264 387.09 353.861C385.408 349.458 388.944 327.544 388.944 327.544C388.944 327.544 389.127 323.647 389.564 322.29C389.782 321.31 389.826 320.302 389.694 319.308C389.665 318.972 389.631 318.696 389.607 318.503C389.583 318.31 389.564 318.227 389.564 318.227L389.631 318.117L392.034 313.828C392.034 313.828 411.411 320.215 410.258 322.915Z" fill="#4397D2"/>
<path d="M410.258 322.915C409.936 323.678 409.692 324.468 409.527 325.276C409.127 327.487 409.015 329.737 409.196 331.975C409.374 335.195 409.196 356.778 409.196 356.778C409.196 356.778 405.395 362.534 403.272 364.563C401.148 366.592 407.596 370.236 407.596 370.236C408.557 375.485 402.734 381.411 402.734 381.411C396.814 374.556 389.655 383.1 389.655 383.1C389.655 383.1 385.763 376.659 384.793 374.358C383.822 372.058 388.593 370.47 390.27 369.532C391.947 368.593 390.184 363.091 390.184 363.091C390.184 363.091 388.771 358.264 387.09 353.861C385.408 349.458 388.944 327.544 388.944 327.544C388.944 327.544 389.127 323.647 389.564 322.29C389.782 321.31 389.826 320.302 389.694 319.308C389.665 318.972 389.631 318.696 389.607 318.503C389.583 318.31 389.564 318.227 389.564 318.227L389.631 318.117L392.034 313.828C392.034 313.828 411.411 320.215 410.258 322.915Z" fill="#4397D2"/>
<path d="M446.677 376.245C446.677 376.245 442.353 376.157 440.047 378.085C437.741 380.013 426.594 378.508 427.074 378.085C427.555 377.662 427.511 374.533 427.511 374.533C420.972 365.98 426.55 362.511 426.55 362.511C426.55 362.511 423.634 349.053 423.105 344.061C422.736 340.578 422.279 331.179 422.034 325.855C421.928 323.555 421.866 321.968 421.866 321.968L427.161 320.96L427.848 320.831L440.734 318.351C440.734 318.351 441.089 320.652 441.33 322.533C441.451 323.337 441.517 324.147 441.527 324.958C441.445 325.878 441.527 328.763 441.527 328.763L441.969 337.394C441.683 338.3 441.535 339.241 441.527 340.187C441.618 341.291 443.295 357.031 443.295 357.031C443.295 357.031 446.211 366.426 445.217 367.103C444.222 367.779 446.677 376.245 446.677 376.245Z" fill="#4397D2"/>
<path opacity="0.1" d="M425.282 151.103C424.946 151.927 424.888 153.348 424.984 154.936C422.332 156.465 419.283 157.247 416.188 157.191C413.092 157.136 410.076 156.246 407.485 154.623C407.342 152.362 407.058 150.111 406.635 147.882C406.635 147.882 426.435 148.31 425.282 151.103Z" fill="black"/>
<path d="M432.926 140.944C432.979 145.119 431.297 149.142 428.251 152.129C425.206 155.116 421.046 156.822 416.686 156.873C412.327 156.923 408.126 155.312 405.006 152.396C401.887 149.479 400.105 145.496 400.053 141.321C400.053 141.193 400.053 141.073 400.053 140.944C400.053 136.768 401.785 132.764 404.868 129.811C407.952 126.859 412.134 125.2 416.494 125.2C420.855 125.2 425.037 126.859 428.12 129.811C431.204 132.764 432.936 136.768 432.936 140.944H432.926Z" fill="#CF6F80"/>
<path opacity="0.1" d="M419.098 175.479C412.756 173.118 404.598 165.32 406.635 161.676C407.085 160.756 407.354 159.764 407.428 158.75L416.11 165.587L421.481 169.806L425.565 159.854C425.907 161.938 426.257 163.535 426.257 163.535C426.257 163.535 425.042 165.159 424.335 165.246C423.629 165.334 428.198 178.86 419.098 175.479Z" fill="black"/>
<path d="M441.551 205.693L434.3 322.326L424.845 322.92L400.355 255.291L404.372 175L405.222 158.037L416.11 166.599L421.481 170.818L425.686 160.572L433.503 167.096L441.551 205.693Z" fill="#4397D2"/>
<path d="M441.551 205.693L434.3 322.326L424.845 322.92L400.355 255.291L404.372 175L405.222 158.037L416.11 166.599L421.481 170.818L425.686 160.572L433.503 167.096L441.551 205.693Z" fill="#4397D2"/>
<path opacity="0.1" d="M410.258 322.915C409.936 323.678 409.692 324.468 409.527 325.276C402.64 324.26 395.952 322.261 389.684 319.345L389.554 319.281L389.598 318.54V318.153L392 313.865C392 313.865 411.411 320.215 410.258 322.915Z" fill="black"/>
<path opacity="0.1" d="M427.319 325.294C425.56 325.582 423.786 325.777 422.005 325.878C421.9 323.578 421.837 321.991 421.837 321.991L427.161 320.96L427.319 325.294Z" fill="black"/>
<path opacity="0.1" d="M441.349 322.533C437.933 323.385 432.652 324.342 427.934 323.743L427.867 320.831L440.753 318.351C440.753 318.351 441.094 320.633 441.349 322.533Z" fill="black"/>
<path opacity="0.1" d="M427.848 324.277C408.149 327.498 390.107 318.264 390.107 318.264L390.28 315.135C390.28 315.135 390.727 279.667 389.487 276.947C388.248 274.228 387.282 260.458 387.983 258.355C388.685 256.253 385.422 224.506 385.422 224.506L384.894 211.624L365.536 204.092L374.184 186.825C375.352 184.404 376.357 181.915 377.192 179.371C378.696 174.885 385.677 170.482 385.677 170.482C385.677 170.482 392.836 166.084 395.666 166.249C398.496 166.415 402.205 162.357 402.205 162.357C404.944 155.672 407.423 158.676 407.423 158.676C407.423 158.998 407.423 158.676 407.289 159.665C406.328 167.004 422.827 190.192 423.062 190.607L424.653 227.257L426.243 273.639L427.848 324.277Z" fill="black"/>
<path d="M427.319 324.277C407.62 327.498 389.574 318.264 389.574 318.264L389.751 315.135C389.751 315.135 390.193 279.667 388.954 276.947C387.714 274.228 386.748 260.444 387.455 258.323C388.161 256.202 384.879 224.488 384.879 224.488L384.346 211.605L364.993 204.073L373.641 186.806C374.806 184.386 375.811 181.898 376.649 179.357C378.153 174.885 385.158 170.477 385.158 170.477C385.158 170.477 392.317 166.079 395.142 166.245C397.967 166.41 401.696 162.357 401.696 162.357C404.439 155.672 407.461 158.676 407.461 158.676C407.461 158.998 407.173 159.136 407.327 159.665C409.441 166.783 422.337 190.192 422.572 190.607L424.163 227.257L425.719 273.662L427.319 324.277Z" fill="white"/>
<path d="M427.319 324.277C407.62 327.498 389.574 318.264 389.574 318.264L389.751 315.135C389.751 315.135 390.193 279.667 388.954 276.947C387.714 274.228 386.748 260.444 387.455 258.323C388.161 256.202 384.879 224.488 384.879 224.488L384.346 211.605L364.993 204.073L373.641 186.806C374.806 184.386 375.811 181.898 376.649 179.357C378.153 174.885 385.158 170.477 385.158 170.477C385.158 170.477 392.317 166.079 395.142 166.245C397.967 166.41 401.696 162.357 401.696 162.357C404.439 155.672 407.461 158.676 407.461 158.676C407.461 158.998 407.173 159.136 407.327 159.665C409.441 166.783 422.337 190.192 422.572 190.607L424.163 227.257L425.719 273.662L427.319 324.277Z" fill="white"/>
<path opacity="0.1" d="M422.01 191.642C419.891 190.795 408.667 178.524 408.667 178.524V175.732C408.259 174.812 405.828 175.373 403.863 176.017L404.708 159.053L405.669 159.817C407.769 166.93 421.779 191.232 422.01 191.642Z" fill="black"/>
<path d="M422.543 190.629C420.42 189.778 409.196 177.512 409.196 177.512V174.715C408.788 173.795 406.361 174.356 404.391 175L405.222 158.055L406.183 158.814C408.302 165.918 422.308 190.215 422.543 190.629Z" fill="white"/>
<path d="M422.543 190.629C420.42 189.778 409.196 177.512 409.196 177.512V174.715C408.788 173.795 406.361 174.356 404.391 175L405.222 158.055L406.183 158.814C408.302 165.918 422.308 190.215 422.543 190.629Z" fill="white"/>
<path opacity="0.1" d="M390.107 251.822C390.371 251.822 403.805 250.469 403.805 250.469C403.805 250.469 411.939 265.79 411.406 269.512C410.873 273.234 409.907 276.538 406.635 275.954C403.363 275.369 389.026 276.414 389.026 276.414L390.107 251.822Z" fill="black"/>
<path d="M389.574 250.805C389.843 250.805 403.277 249.452 403.277 249.452C403.277 249.452 411.406 264.796 410.878 268.477C410.349 272.158 409.374 275.503 406.107 274.918C402.839 274.334 388.493 275.379 388.493 275.379L389.574 250.805Z" fill="white"/>
<path d="M389.574 250.805C389.843 250.805 403.277 249.452 403.277 249.452C403.277 249.452 411.406 264.796 410.878 268.477C410.349 272.158 409.374 275.503 406.107 274.918C402.839 274.334 388.493 275.379 388.493 275.379L389.574 250.805Z" fill="white"/>
<path d="M399.697 243.632C399.697 243.632 412.026 249.981 412.29 251.914C412.554 253.846 406.015 251.067 404.603 250.727C403.672 250.515 402.726 250.374 401.773 250.304L392.351 250.547L399.697 243.632Z" fill="#CF6F80"/>
<path opacity="0.1" d="M418.565 192.433C419.282 192.433 419.862 191.877 419.862 191.191C419.862 190.505 419.282 189.949 418.565 189.949C417.849 189.949 417.268 190.505 417.268 191.191C417.268 191.877 417.849 192.433 418.565 192.433Z" fill="black"/>
<path d="M418.565 191.927C419.282 191.927 419.862 191.371 419.862 190.685C419.862 189.999 419.282 189.442 418.565 189.442C417.849 189.442 417.268 189.999 417.268 190.685C417.268 191.371 417.849 191.927 418.565 191.927Z" fill="#3F3D56"/>
<path opacity="0.1" d="M420.953 246.209C421.669 246.209 422.25 245.653 422.25 244.966C422.25 244.28 421.669 243.724 420.953 243.724C420.237 243.724 419.656 244.28 419.656 244.966C419.656 245.653 420.237 246.209 420.953 246.209Z" fill="black"/>
<path d="M420.953 245.698C421.669 245.698 422.25 245.142 422.25 244.456C422.25 243.77 421.669 243.213 420.953 243.213C420.237 243.213 419.656 243.77 419.656 244.456C419.656 245.142 420.237 245.698 420.953 245.698Z" fill="#3F3D56"/>
<path opacity="0.1" d="M419.862 219.321C420.579 219.321 421.16 218.765 421.16 218.079C421.16 217.393 420.579 216.836 419.862 216.836C419.146 216.836 418.565 217.393 418.565 218.079C418.565 218.765 419.146 219.321 419.862 219.321Z" fill="black"/>
<path d="M419.862 218.815C420.579 218.815 421.16 218.259 421.16 217.573C421.16 216.886 420.579 216.33 419.862 216.33C419.146 216.33 418.565 216.886 418.565 217.573C418.565 218.259 419.146 218.815 419.862 218.815Z" fill="#3F3D56"/>
<path d="M449.767 250.046C449.767 250.046 450.651 251.316 449.767 251.886C448.883 252.457 449.853 253.92 449.853 253.92C449.853 253.92 447.648 255.153 448.618 256.271C449.589 257.389 448.974 262.409 448.974 262.409L446.322 266.637C446.322 266.637 446.48 269.347 446.49 273.009C446.49 278.723 446.139 286.757 444.198 290.419L444.458 320.468C444.458 320.468 435.17 323.72 427.396 322.727L426.243 274.509C426.243 274.509 427.925 247.166 428.544 241.921C428.907 239.198 429.055 236.452 428.986 233.708C428.986 233.708 428.722 225.5 427.833 221.695C427.833 221.695 426.872 205.187 426.776 200.618C426.733 198.433 426.853 192.056 426.988 185.992C427.137 179.362 427.305 173.109 427.305 173.109L425.551 159.817C425.551 159.817 427.305 159.651 427.833 160.323C428.07 160.535 428.328 160.724 428.602 160.889C431.634 162.849 442.329 168.876 442.329 168.876C442.329 168.876 448.248 171.131 449.666 174.361C451.083 177.59 452.068 179.882 452.755 180.802C453.442 181.722 453.817 186.047 453.817 186.047C453.817 186.047 455.854 194.007 457.445 195.355C459.035 196.703 460.178 205.26 460.178 205.26L446.125 215.843C446.125 215.843 444.89 233.446 444.626 234.127C444.361 234.808 449.767 250.046 449.767 250.046Z" fill="white"/>
<path d="M450.3 250.046C450.3 250.046 451.179 251.316 450.3 251.886C449.421 252.457 450.382 253.92 450.382 253.92C450.382 253.92 448.176 255.153 449.147 256.271C450.117 257.389 449.502 262.409 449.502 262.409L446.86 266.637C446.86 266.637 447.018 269.347 447.033 273.009C447.033 278.723 446.682 286.757 444.741 290.419L445.005 320.468C445.005 320.468 435.718 323.72 427.944 322.727L426.795 274.509C426.795 274.509 428.472 247.166 429.097 241.921C429.46 239.198 429.606 236.452 429.534 233.708C429.534 233.708 429.27 225.5 428.386 221.695C428.386 221.695 427.425 205.187 427.324 200.618C427.281 198.433 427.401 192.056 427.535 185.992C427.684 179.362 427.852 173.109 427.852 173.109L425.537 159.638C425.537 159.638 427.852 159.638 428.386 160.323C428.62 160.537 428.878 160.727 429.155 160.889C432.182 162.849 442.877 168.876 442.877 168.876C442.877 168.876 448.782 171.131 450.223 174.361C451.665 177.59 452.625 179.882 453.313 180.802C454 181.722 454.374 186.047 454.374 186.047C454.374 186.047 456.412 194.007 458.002 195.355C459.592 196.703 460.741 205.26 460.741 205.26L446.687 215.843C446.687 215.843 445.452 233.446 445.183 234.127C444.914 234.808 450.3 250.046 450.3 250.046Z" fill="white"/>
<path d="M450.3 250.046C450.3 250.046 451.179 251.316 450.3 251.886C449.421 252.457 450.382 253.92 450.382 253.92C450.382 253.92 448.176 255.153 449.147 256.271C450.117 257.389 449.502 262.409 449.502 262.409L446.86 266.637C446.86 266.637 447.018 269.347 447.033 273.009C447.033 278.723 446.682 286.757 444.741 290.419L445.005 320.468C445.005 320.468 435.718 323.72 427.944 322.727L426.795 274.509C426.795 274.509 428.472 247.166 429.097 241.921C429.46 239.198 429.606 236.452 429.534 233.708C429.534 233.708 429.27 225.5 428.386 221.695C428.386 221.695 427.425 205.187 427.324 200.618C427.281 198.433 427.401 192.056 427.535 185.992C427.684 179.362 427.852 173.109 427.852 173.109L425.537 159.638C425.537 159.638 427.852 159.638 428.386 160.323C428.62 160.537 428.878 160.727 429.155 160.889C432.182 162.849 442.877 168.876 442.877 168.876C442.877 168.876 448.782 171.131 450.223 174.361C451.665 177.59 452.625 179.882 453.313 180.802C454 181.722 454.374 186.047 454.374 186.047C454.374 186.047 456.412 194.007 458.002 195.355C459.592 196.703 460.741 205.26 460.741 205.26L446.687 215.843C446.687 215.843 445.452 233.446 445.183 234.127C444.914 234.808 450.3 250.046 450.3 250.046Z" fill="white"/>
<path opacity="0.1" d="M433.469 177.015L434.742 180.558L428.059 186.999C428.208 180.369 428.376 174.117 428.376 174.117L426.06 160.65C426.06 160.65 428.376 160.65 428.91 161.335C429.144 161.55 429.402 161.739 429.678 161.901L435.357 177.586L433.469 177.015Z" fill="black"/>
<path d="M432.926 175.999L434.2 179.537L427.521 185.978C427.665 179.348 427.838 173.095 427.838 173.095L425.517 159.624C425.517 159.624 427.838 159.624 428.367 160.309C428.602 160.522 428.86 160.712 429.135 160.875L434.848 176.574L432.926 175.999Z" fill="white"/>
<path opacity="0.1" d="M432.926 140.944C432.928 142.602 432.656 144.25 432.119 145.826C432.029 145.84 431.936 145.837 431.847 145.816C431.758 145.796 431.674 145.758 431.6 145.706C431.47 141.565 429.347 137.673 426.728 134.365C425.992 133.367 425.101 132.483 424.086 131.742C423.058 131.004 421.781 130.658 420.501 130.771C419.06 130.96 417.787 131.899 416.331 132.018C414.409 132.17 412.689 130.896 410.781 130.836C410.006 130.842 409.241 131.007 408.537 131.32C407.834 131.632 407.208 132.085 406.702 132.649C405.699 133.781 404.955 135.103 404.516 136.527C403.761 138.689 403.349 140.947 403.296 143.226C403.272 144.514 403.142 146.129 401.893 146.599C401.987 145.652 401.875 144.697 401.563 143.794C401.251 142.891 400.747 142.06 400.081 141.354L400.053 141.321C400.053 141.193 400.053 141.073 400.053 140.944C400.053 136.768 401.785 132.764 404.868 129.811C407.952 126.859 412.134 125.2 416.494 125.2C420.855 125.2 425.037 126.859 428.12 129.811C431.204 132.764 432.936 136.768 432.936 140.944H432.926Z" fill="black"/>
<path d="M423.317 115.947C420.82 114.823 417.98 114.61 415.331 115.349C414.001 115.726 412.747 116.338 411.396 116.647C408.514 117.314 405.15 116.591 402.676 118.206C401.302 119.127 400.475 120.58 399.707 121.998L397.785 125.499C396.737 127.417 395.68 129.368 395.243 131.48C394.806 133.592 395.07 135.957 396.468 137.659C397.482 138.892 398.991 139.67 400.096 140.834C400.76 141.543 401.263 142.377 401.574 143.282C401.885 144.187 401.997 145.144 401.902 146.093C403.152 145.632 403.276 144.008 403.305 142.72C403.359 140.441 403.771 138.183 404.526 136.021C404.964 134.597 405.709 133.275 406.712 132.143C407.217 131.579 407.843 131.125 408.546 130.811C409.25 130.498 410.015 130.332 410.791 130.325C412.713 130.39 414.438 131.664 416.34 131.508C417.782 131.393 419.06 130.454 420.511 130.265C421.79 130.149 423.069 130.496 424.095 131.236C425.111 131.974 426.001 132.859 426.733 133.859C429.356 137.171 431.485 141.045 431.61 145.2C432.153 145.577 432.936 145.08 433.205 144.491C433.474 143.903 433.484 143.212 433.825 142.651C434.219 142.002 434.973 141.653 435.564 141.165C437.063 139.927 437.438 137.843 437.38 135.952C437.323 134.061 436.938 132.143 437.313 130.284C437.539 129.147 438.048 128.075 438.327 126.948C438.605 125.821 438.639 124.556 437.981 123.585C437.02 122.163 434.997 121.878 433.234 121.744C431.23 121.579 429.438 121.79 428.16 120.176C427.559 119.334 426.883 118.543 426.142 117.811C425.878 117.567 423.317 116.049 423.317 115.947Z" fill="#512E4E"/>
<path d="M423.317 115.947C420.82 114.823 417.98 114.61 415.331 115.349C414.001 115.726 412.747 116.338 411.396 116.647C408.514 117.314 405.15 116.591 402.676 118.206C401.302 119.127 400.475 120.58 399.707 121.998L397.785 125.499C396.737 127.417 395.68 129.368 395.243 131.48C394.806 133.592 395.07 135.957 396.468 137.659C397.482 138.892 398.991 139.67 400.096 140.834C400.76 141.543 401.263 142.377 401.574 143.282C401.885 144.187 401.997 145.144 401.902 146.093C403.152 145.632 403.276 144.008 403.305 142.72C403.359 140.441 403.771 138.183 404.526 136.021C404.964 134.597 405.709 133.275 406.712 132.143C407.217 131.579 407.843 131.125 408.546 130.811C409.25 130.498 410.015 130.332 410.791 130.325C412.713 130.39 414.438 131.664 416.34 131.508C417.782 131.393 419.06 130.454 420.511 130.265C421.79 130.149 423.069 130.496 424.095 131.236C425.111 131.974 426.001 132.859 426.733 133.859C429.356 137.171 431.485 141.045 431.61 145.2C432.153 145.577 432.936 145.08 433.205 144.491C433.474 143.903 433.484 143.212 433.825 142.651C434.219 142.002 434.973 141.653 435.564 141.165C437.063 139.927 437.438 137.843 437.38 135.952C437.323 134.061 436.938 132.143 437.313 130.284C437.539 129.147 438.048 128.075 438.327 126.948C438.605 125.821 438.639 124.556 437.981 123.585C437.02 122.163 434.997 121.878 433.234 121.744C431.23 121.579 429.438 121.79 428.16 120.176C427.559 119.334 426.883 118.543 426.142 117.811C425.878 117.567 423.317 116.049 423.317 115.947Z" fill="#512E4E"/>
<path opacity="0.1" d="M371.08 212.972L366.064 204.087L364.474 217.798C364.474 217.798 365.358 223.89 365.18 224.824C365.002 225.758 368.803 234.131 368.803 234.131C368.803 234.131 381.358 255.549 386.484 256.648L403.781 244.796L399.188 239.211C399.188 239.211 397.597 238.617 397.199 239.211C397.199 239.211 388.665 225.159 387.786 224.147C386.907 223.135 387.075 221.097 387.075 221.097C387.075 221.097 385.749 219.744 386.191 218.474C386.633 217.204 383.654 212.806 383.654 212.806L386.393 210.354L371.08 212.972Z" fill="black"/>
<path d="M366.329 203.07L365.002 204.087L363.412 217.798C363.412 217.798 364.296 223.89 364.118 224.824C363.941 225.758 367.746 234.131 367.746 234.131C367.746 234.131 380.296 255.549 385.422 256.648L402.748 244.796L398.15 239.211C398.15 239.211 396.56 238.617 396.161 239.211C396.161 239.211 387.633 225.159 386.748 224.147C385.864 223.135 386.042 221.097 386.042 221.097C386.042 221.097 384.716 219.744 385.158 218.474C385.6 217.204 382.592 212.806 382.592 212.806L385.331 210.354L366.329 203.07Z" fill="white"/>
<path d="M366.329 203.07L365.002 204.087L363.412 217.798C363.412 217.798 364.296 223.89 364.118 224.824C363.941 225.758 367.746 234.131 367.746 234.131C367.746 234.131 380.296 255.549 385.422 256.648L402.748 244.796L398.15 239.211C398.15 239.211 396.56 238.617 396.161 239.211C396.161 239.211 387.633 225.159 386.748 224.147C385.864 223.135 386.042 221.097 386.042 221.097C386.042 221.097 384.716 219.744 385.158 218.474C385.6 217.204 382.592 212.806 382.592 212.806L385.331 210.354L366.329 203.07Z" fill="white"/>
<path opacity="0.1" d="M448.618 256.8C449.579 257.918 448.974 262.942 448.974 262.942L446.322 267.143C446.322 267.143 446.48 269.857 446.49 273.52L442.031 274.854C441.628 274.974 441.2 275.001 440.783 274.931C440.367 274.861 439.974 274.697 439.637 274.452C439.301 274.207 439.03 273.888 438.848 273.523C438.666 273.158 438.578 272.756 438.591 272.351L439.365 248.61L449.767 252.415C448.883 253.004 449.853 254.449 449.853 254.449C449.853 254.449 447.648 255.682 448.618 256.8Z" fill="black"/>
<path d="M449.147 256.294C450.108 257.407 449.503 262.432 449.503 262.432L446.86 266.637C446.86 266.637 447.018 269.347 447.033 273.009L442.492 274.366C442.098 274.485 441.68 274.511 441.273 274.443C440.866 274.375 440.482 274.215 440.153 273.976C439.823 273.737 439.559 273.426 439.381 273.068C439.203 272.711 439.116 272.319 439.129 271.923L439.903 248.1L450.3 251.914C449.411 252.503 450.382 253.947 450.382 253.947C450.382 253.947 448.176 255.176 449.147 256.294Z" fill="white"/>
<path d="M452.597 244.966C452.597 244.966 451.89 249.287 450.122 249.54C448.354 249.793 447.561 256.529 445.798 256.294C444.035 256.059 445.202 250.027 445.265 248.859C445.327 247.69 443.343 242.85 444.823 241.75C446.302 240.651 451.011 241.75 451.011 241.75L452.597 244.966Z" fill="#CF6F80"/>
<path d="M452.597 244.966C452.597 244.966 451.89 249.287 450.122 249.54C448.354 249.793 447.561 256.529 445.798 256.294C444.035 256.059 445.202 250.027 445.265 248.859C445.327 247.69 443.343 242.85 444.823 241.75C446.302 240.651 451.011 241.75 451.011 241.75L452.597 244.966Z" fill="#CF6F80"/>
<path opacity="0.1" d="M456.335 211.702L459.664 205.26C459.664 205.26 460.995 210.17 460.995 212.792C460.995 215.415 462.85 215.672 462.85 215.672C462.85 215.672 464.882 217.973 463.811 219.652C462.739 221.331 462.312 225.491 462.312 225.491C462.312 225.491 462.663 233.446 461.072 234.545C459.482 235.645 459.126 238.272 459.126 238.272C459.126 238.272 456.21 243.264 456.301 244.451C456.392 245.638 452.236 253.676 452.236 253.676C452.236 253.676 454.269 243.687 442.425 239.372C442.425 239.372 442.334 235.985 443.218 235.056C444.102 234.127 445.481 233.676 444.616 229.001C443.751 224.327 444.366 218.691 444.366 217.563C444.366 216.436 447.018 209.41 447.018 209.41L456.335 211.702Z" fill="black"/>
<path d="M457.815 204.34L460.726 205.26C460.726 205.26 462.057 210.17 462.057 212.792C462.057 215.415 463.912 215.672 463.912 215.672C463.912 215.672 465.944 217.973 464.873 219.652C463.801 221.331 463.369 225.491 463.369 225.491C463.369 225.491 463.724 233.446 462.134 234.545C460.544 235.645 460.212 238.272 460.212 238.272C460.212 238.272 457.296 243.264 457.387 244.451C457.478 245.638 453.317 253.676 453.317 253.676C453.317 253.676 455.35 243.687 443.506 239.372C443.506 239.372 443.42 235.985 444.304 235.056C445.188 234.127 446.567 233.676 445.702 229.001C444.837 224.327 445.452 218.691 445.452 217.563C445.452 216.436 448.104 209.41 448.104 209.41L457.815 204.34Z" fill="white"/>
<path d="M457.815 204.34L460.726 205.26C460.726 205.26 462.057 210.17 462.057 212.792C462.057 215.415 463.912 215.672 463.912 215.672C463.912 215.672 465.944 217.973 464.873 219.652C463.801 221.331 463.369 225.491 463.369 225.491C463.369 225.491 463.724 233.446 462.134 234.545C460.544 235.645 460.212 238.272 460.212 238.272C460.212 238.272 457.296 243.264 457.387 244.451C457.478 245.638 453.317 253.676 453.317 253.676C453.317 253.676 455.35 243.687 443.506 239.372C443.506 239.372 443.42 235.985 444.304 235.056C445.188 234.127 446.567 233.676 445.702 229.001C444.837 224.327 445.452 218.691 445.452 217.563C445.452 216.436 448.104 209.41 448.104 209.41L457.815 204.34Z" fill="white"/>
<path opacity="0.1" d="M393.489 371.294C393.489 371.294 398.131 368.501 401.177 370.53C404.223 372.559 393.489 371.294 393.489 371.294Z" fill="black"/>
<path opacity="0.1" d="M429.563 362.658C429.563 362.658 433.671 362.152 437.121 365.708C440.571 369.265 429.563 362.658 429.563 362.658Z" fill="black"/>
<g opacity="0.1">
<path d="M435.564 140.153C434.973 140.645 434.214 140.99 433.82 141.639C433.484 142.196 433.474 142.886 433.205 143.479C432.936 144.073 432.153 144.565 431.605 144.188C431.48 140.047 429.352 136.159 426.733 132.846C426.001 131.848 425.111 130.965 424.095 130.229C423.068 129.487 421.788 129.139 420.506 129.253C419.065 129.442 417.796 130.38 416.341 130.5C414.419 130.652 412.694 129.377 410.786 129.318C410.011 129.323 409.247 129.488 408.544 129.801C407.841 130.113 407.216 130.567 406.712 131.13C405.709 132.263 404.964 133.584 404.526 135.009C403.771 137.171 403.359 139.429 403.305 141.708C403.277 142.992 403.152 144.593 401.912 145.071C401.941 145.413 401.941 145.756 401.912 146.097C403.166 145.637 403.291 144.013 403.32 142.725C403.374 140.446 403.785 138.188 404.54 136.026C404.979 134.601 405.723 133.28 406.726 132.147C407.231 131.584 407.856 131.13 408.558 130.817C409.261 130.503 410.026 130.337 410.801 130.33C412.723 130.394 414.452 131.669 416.355 131.512C417.796 131.397 419.074 130.459 420.521 130.27C421.802 130.154 423.081 130.5 424.11 131.241C425.126 131.979 426.015 132.864 426.748 133.863C429.366 137.176 431.495 141.05 431.619 145.205C432.167 145.582 432.95 145.085 433.219 144.496C433.488 143.907 433.498 143.217 433.834 142.656C434.228 142.007 434.988 141.657 435.579 141.17C437.078 139.932 437.452 137.848 437.395 135.957C437.395 135.897 437.395 135.842 437.395 135.782C437.299 137.429 436.842 139.099 435.564 140.153Z" fill="black"/>
<path d="M400.091 139.831C398.991 138.667 397.482 137.885 396.468 136.651C395.612 135.563 395.124 134.25 395.07 132.888C394.919 134.591 395.416 136.288 396.468 137.668C397.482 138.901 398.991 139.679 400.091 140.843C401.154 141.981 401.793 143.424 401.907 144.947C401.979 144.021 401.856 143.091 401.544 142.212C401.232 141.332 400.738 140.523 400.091 139.831Z" fill="black"/>
<path d="M438.327 125.936C438.043 127.063 437.539 128.135 437.308 129.272C437.17 130.04 437.12 130.821 437.159 131.6C437.175 131.16 437.225 130.721 437.308 130.288C437.539 129.152 438.043 128.08 438.327 126.953C438.49 126.331 438.543 125.687 438.485 125.048C438.454 125.347 438.401 125.644 438.327 125.936Z" fill="black"/>
</g>
<g opacity="0.1">
<path d="M435.564 140.153C434.973 140.645 434.214 140.99 433.82 141.639C433.484 142.196 433.474 142.886 433.205 143.479C432.936 144.073 432.153 144.565 431.605 144.188C431.48 140.047 429.352 136.159 426.733 132.846C426.001 131.848 425.111 130.965 424.095 130.229C423.068 129.487 421.788 129.139 420.506 129.253C419.065 129.442 417.796 130.38 416.341 130.5C414.419 130.652 412.694 129.377 410.786 129.318C410.011 129.323 409.247 129.488 408.544 129.801C407.841 130.113 407.216 130.567 406.712 131.13C405.709 132.263 404.964 133.584 404.526 135.009C403.771 137.171 403.359 139.429 403.305 141.708C403.277 142.992 403.152 144.593 401.912 145.071C401.941 145.413 401.941 145.756 401.912 146.097C403.166 145.637 403.291 144.013 403.32 142.725C403.374 140.446 403.785 138.188 404.54 136.026C404.979 134.601 405.723 133.28 406.726 132.147C407.231 131.584 407.856 131.13 408.558 130.817C409.261 130.503 410.026 130.337 410.801 130.33C412.723 130.394 414.452 131.669 416.355 131.512C417.796 131.397 419.074 130.459 420.521 130.27C421.802 130.154 423.081 130.5 424.11 131.241C425.126 131.979 426.015 132.864 426.748 133.863C429.366 137.176 431.495 141.05 431.619 145.205C432.167 145.582 432.95 145.085 433.219 144.496C433.488 143.907 433.498 143.217 433.834 142.656C434.228 142.007 434.988 141.657 435.579 141.17C437.078 139.932 437.452 137.848 437.395 135.957C437.395 135.897 437.395 135.842 437.395 135.782C437.299 137.429 436.842 139.099 435.564 140.153Z" fill="black"/>
<path d="M400.091 139.831C398.991 138.667 397.482 137.885 396.468 136.651C395.612 135.563 395.124 134.25 395.07 132.888C394.919 134.591 395.416 136.288 396.468 137.668C397.482 138.901 398.991 139.679 400.091 140.843C401.154 141.981 401.793 143.424 401.907 144.947C401.979 144.021 401.856 143.091 401.544 142.212C401.232 141.332 400.738 140.523 400.091 139.831Z" fill="black"/>
<path d="M438.327 125.936C438.043 127.063 437.539 128.135 437.308 129.272C437.17 130.04 437.12 130.821 437.159 131.6C437.175 131.16 437.225 130.721 437.308 130.288C437.539 129.152 438.043 128.08 438.327 126.953C438.49 126.331 438.543 125.687 438.485 125.048C438.454 125.347 438.401 125.644 438.327 125.936Z" fill="black"/>
</g>
<path opacity="0.1" d="M63.7725 386.463C89.6288 386.463 110.589 383.24 110.589 379.263C110.589 375.286 89.6288 372.062 63.7725 372.062C37.9163 372.062 16.9557 375.286 16.9557 379.263C16.9557 383.24 37.9163 386.463 63.7725 386.463Z" fill="#4397D2"/>
<path d="M65.2813 241.322H62.2688V306.274H65.2813V241.322Z" fill="#535461"/>
<path d="M84.2166 306.08L84.0244 309.007L83.7601 313.148L83.6496 314.868L83.3806 319.009L83.2652 320.73L83.001 324.871L79.9596 371.832C79.8299 373.853 78.9002 375.75 77.3601 377.137C75.82 378.523 73.7855 379.295 71.6715 379.295H55.8785C53.7587 379.296 51.7189 378.52 50.1777 377.126C48.6365 375.732 47.7107 373.827 47.5904 371.8L44.5491 324.838L44.2848 320.698L44.1743 318.977L43.9004 314.836L43.7899 313.115L43.5257 308.974L43.3335 306.048C43.3002 305.487 43.3865 304.926 43.5871 304.398C43.7876 303.87 44.0983 303.387 44.5001 302.977C44.9019 302.568 45.3865 302.241 45.9244 302.017C46.4623 301.793 47.0422 301.676 47.6289 301.673H79.926C80.5152 301.676 81.0976 301.795 81.6373 302.021C82.177 302.248 82.6627 302.577 83.0644 302.99C83.4662 303.403 83.7757 303.89 83.9738 304.421C84.1719 304.953 84.2546 305.517 84.2166 306.08Z" fill="#3F3D56"/>
<path d="M84.0244 309.002L83.7553 313.134H43.7899L43.5209 309.002H84.0244Z" fill="#9D9CB5"/>
<path d="M83.6448 314.854L83.3805 318.986H44.1695L43.9004 314.854H83.6448Z" fill="#9D9CB5"/>
<path d="M83.2653 320.711L83.001 324.839H44.5491L44.28 320.711H83.2653Z" fill="#9D9CB5"/>
<path d="M38.942 265.671C56.4887 277.826 63.7967 296.837 63.7967 296.837C63.7967 296.837 42.6561 296.143 25.1045 283.987C7.55301 271.831 0.235474 252.834 0.235474 252.834C0.235474 252.834 21.3761 253.515 38.942 265.671Z" fill="#4397D2"/>
<path d="M0.235474 252.834C0.235474 252.834 22.1785 264.497 29.2173 274.155C36.2562 283.812 63.7775 296.846 63.7775 296.846" stroke="#535461" stroke-width="2" stroke-miterlimit="10"/>
<path d="M50.2474 241.184C59.7991 247.796 63.7774 258.143 63.7774 258.143C63.7774 258.143 52.2462 257.766 42.7185 251.155C33.1908 244.543 29.1885 234.191 29.1885 234.191C29.1885 234.191 40.7005 234.568 50.2474 241.184Z" fill="#4397D2"/>
<path d="M29.1885 234.191C29.1885 234.191 41.1329 240.54 44.9671 245.795C48.8012 251.049 63.7774 258.143 63.7774 258.143" stroke="#535461" stroke-width="2" stroke-miterlimit="10"/>
<path d="M77.6533 257.619C66.6842 269.163 64.3635 284.249 64.3635 284.249C64.3635 284.249 79.8298 280.614 90.7893 269.066C101.749 257.518 104.079 242.436 104.079 242.436C104.079 242.436 88.6224 246.075 77.6533 257.619Z" fill="#4397D2"/>
<path d="M104.089 242.441C104.089 242.441 89.7995 254.274 86.1672 262.427C82.5348 270.58 64.3635 284.249 64.3635 284.249" stroke="#535461" stroke-width="2" stroke-miterlimit="10"/>
</g>
<defs>
<linearGradient id="paint0_linear_16_176" x1="223.673" y1="384.936" x2="223.673" y2="119.163" gradientUnits="userSpaceOnUse">
<stop stop-color="#808080" stop-opacity="0.25"/>
<stop offset="0.54" stop-color="#808080" stop-opacity="0.12"/>
<stop offset="1" stop-color="#808080" stop-opacity="0.1"/>
</linearGradient>
<linearGradient id="paint1_linear_16_176" x1="414.351" y1="396.572" x2="414.351" y2="113.458" gradientUnits="userSpaceOnUse">
<stop stop-color="#808080" stop-opacity="0.25"/>
<stop offset="0.54" stop-color="#808080" stop-opacity="0.12"/>
<stop offset="1" stop-color="#808080" stop-opacity="0.1"/>
</linearGradient>
<clipPath id="clip0_16_176">
<rect width="561" height="397" fill="white" transform="translate(0 0.500885)"/>
</clipPath>
</defs>
</svg>
